<?xml version="1.0" encoding="UTF-8"?>
<svg id="_レイヤー_2" data-name="レイヤー 2" xmlns="http://www.w3.org/2000/svg" viewBox="0 0 1703.12 800.44">
  <defs>
    <style>
      .cls-1 {
        fill: #f7f6f1;
      }
    </style>
  </defs>
  <g id="BACKGROUND">
    <path class="cls-1" d="M1703.12,694.82l-50.75-45.35h-53.45v-42.11s-24.29,0-24.29,0v-87.46s-90.7-58.31-90.7-58.31l-89.08,58.31v42.11h-51.83V166.82s-55.07-76.12-55.07-76.12v-38.87S1250.7,0,1250.7,0l-32.39,51.83v40.49s-56.69,77.74-56.69,77.74v223.51s-171.68-1.62-171.68-1.62v-98.8s-225.13,72.88-225.13,187.88c0,0-38.87-244.56-247.8-244.56s-260.76,249.42-260.76,249.42c0,0,1.62-134.43-213.79-191.12v298.01s-29.15,11.34-37.25,34.01c-8.1,22.67-4.32,32.39-4.32,32.39v139.63s1702.24,1.62,1702.24,1.62v-105.61Z"/>
  </g>
</svg>