<?xml version="1.0" encoding="UTF-8"?>
<svg id="_レイヤー_2" data-name="レイヤー 2" xmlns="http://www.w3.org/2000/svg" viewBox="0 0 1702.81 112.78">
  <defs>
    <style>
      .cls-1 {
        fill: #f7f6f1;
      }
    </style>
  </defs>
  <g id="BACKGROUND">
    <g>
      <rect class="cls-1" width="1702.81" height="39.9"/>
      <rect class="cls-1" y="71.83" width="1702.81" height="40.95"/>
      <rect class="cls-1" x="97.77" y="25.94" width="13.97" height="81.81"/>
      <rect class="cls-1" x="129.69" y="25.94" width="13.97" height="81.81"/>
      <rect class="cls-1" x="161.61" y="25.94" width="13.97" height="81.81"/>
      <rect class="cls-1" x="193.54" y="25.94" width="13.97" height="81.81"/>
      <rect class="cls-1" x="225.46" y="25.94" width="13.97" height="81.81"/>
      <rect class="cls-1" x="257.39" y="25.94" width="13.97" height="81.81"/>
      <rect class="cls-1" x="552.68" y="25.94" width="13.97" height="81.81"/>
      <rect class="cls-1" x="584.61" y="25.94" width="13.97" height="81.81"/>
      <rect class="cls-1" x="616.53" y="25.94" width="13.97" height="81.81"/>
      <rect class="cls-1" x="648.46" y="25.94" width="13.97" height="81.81"/>
      <rect class="cls-1" x="680.38" y="25.94" width="13.97" height="81.81"/>
      <rect class="cls-1" x="712.3" y="25.94" width="13.97" height="81.81"/>
      <rect class="cls-1" x="973.68" y="25.94" width="13.97" height="81.81"/>
      <rect class="cls-1" x="1005.6" y="25.94" width="13.97" height="81.81"/>
      <rect class="cls-1" x="1037.53" y="25.94" width="13.97" height="81.81"/>
      <rect class="cls-1" x="1069.45" y="25.94" width="13.97" height="81.81"/>
      <rect class="cls-1" x="1101.38" y="25.94" width="13.97" height="81.81"/>
      <rect class="cls-1" x="1133.3" y="25.94" width="13.97" height="81.81"/>
      <rect class="cls-1" x="1436.58" y="25.94" width="13.97" height="81.81"/>
      <rect class="cls-1" x="1468.5" y="25.94" width="13.97" height="81.81"/>
      <rect class="cls-1" x="1500.43" y="25.94" width="13.97" height="81.81"/>
      <rect class="cls-1" x="1532.35" y="25.94" width="13.97" height="81.81"/>
      <rect class="cls-1" x="1564.27" y="25.94" width="13.97" height="81.81"/>
      <rect class="cls-1" x="1596.2" y="25.94" width="13.97" height="81.81"/>
      <rect class="cls-1" x="375.11" y="25.94" width="13.97" height="81.81"/>
      <rect class="cls-1" x="451.92" y="25.94" width="13.97" height="81.81"/>
      <rect class="cls-1" x="485.84" y="25.94" width="13.97" height="81.81"/>
      <rect class="cls-1" x="772.16" y="25.94" width="13.97" height="81.81"/>
      <rect class="cls-1" x="848.98" y="25.94" width="13.97" height="81.81"/>
      <rect class="cls-1" x="882.9" y="25.94" width="13.97" height="81.81"/>
      <rect class="cls-1" x="1233.06" y="25.94" width="13.97" height="81.81"/>
      <rect class="cls-1" x="1309.88" y="25.94" width="13.97" height="81.81"/>
      <rect class="cls-1" x="1343.8" y="25.94" width="13.97" height="81.81"/>
    </g>
  </g>
</svg>