<?xml version="1.0" encoding="UTF-8"?>
<svg id="_レイヤー_2" data-name="レイヤー 2" xmlns="http://www.w3.org/2000/svg" viewBox="0 0 68.84 21.33">
  <defs>
    <style>
      .cls-1, .cls-2 {
        fill: #9b8c64;
      }

      .cls-2 {
        fill-rule: evenodd;
      }
    </style>
  </defs>
  <g id="_レイヤー_1-2" data-name="レイヤー 1">
    <g>
      <path class="cls-1" d="M26.4,4l.14-.16c.04-.08.06-.19.06-.34v-1.27h-2.34v1.27c0,.15.02.26.06.34l.14.15.07.03h-.99l.08-.02.13-.16c.04-.08.06-.19.06-.34V.7c0-.15-.02-.26-.06-.34l-.13-.15-.08-.03h.99l-.07.03-.14.15c-.04.08-.06.19-.06.34v1.29h2.34V.7c0-.15-.02-.26-.06-.34l-.14-.15-.07-.03h.99l-.07.03-.13.16c-.04.08-.06.19-.06.34v2.81c0,.15.02.26.06.34l.14.15.08.03h-.99l.07-.02"/>
      <path class="cls-1" d="M28.05,1.09c.19-.31.45-.55.79-.72.34-.17.74-.26,1.18-.26.37,0,.72.07,1.05.22.33.15.59.37.78.66.2.29.29.65.29,1.06s-.09.75-.28,1.06c-.19.31-.45.55-.8.72-.34.17-.74.26-1.18.26-.37,0-.72-.07-1.05-.22-.32-.15-.59-.37-.78-.66-.2-.29-.3-.65-.3-1.06s.1-.75.28-1.06M31.43,1.22c-.16-.27-.37-.49-.64-.64-.27-.16-.58-.23-.92-.23-.31,0-.59.07-.83.21-.24.14-.43.34-.57.6-.14.26-.2.56-.2.9s.08.65.23.92c.16.27.37.49.64.64.27.16.58.23.92.23.31,0,.59-.07.83-.21.24-.14.43-.34.57-.6.14-.26.2-.56.2-.9s-.08-.65-.23-.92"/>
      <path class="cls-1" d="M32.5.5c-.12.06-.21.14-.26.24l.09-.56h2.95l.09.56c-.05-.1-.14-.18-.26-.24-.12-.06-.27-.09-.45-.09h-.62v3.1c0,.15.02.26.06.34l.14.16.07.02h-.99l.07-.02.13-.15c.04-.08.06-.19.06-.34V.4h-.62c-.18,0-.33.03-.45.09"/>
      <path class="cls-1" d="M35.74,4.03l.08-.03.13-.17c.04-.08.06-.21.06-.37V.72c0-.15-.02-.27-.06-.35l-.13-.17-.08-.03h2.25v.56c-.07-.22-.3-.34-.67-.34h-.86v1.59h1.07l.21-.04.13-.08.05-.05v.54l-.05-.05-.13-.07-.21-.03h-1.07v1.59h.97c.19,0,.35-.03.48-.1.13-.07.23-.16.29-.27l-.11.59h-2.34Z"/>
      <path class="cls-1" d="M38.98.36l-.13-.15-.07-.03h.99l-.08.03-.14.15c-.04.08-.06.19-.06.34v3.1h1.02c.19,0,.35-.03.48-.1.14-.07.23-.16.29-.27l-.11.59h-2.39l.07-.02.13-.17c.04-.08.06-.21.06-.37V.7c0-.15-.02-.26-.06-.34"/>
      <path class="cls-1" d="M43.85.4v1.59h1.08c.15,0,.26-.02.31-.06l.08-.1v.55l-.03-.05-.11-.07c-.06-.02-.14-.04-.25-.04h-1.08v1.29c0,.15.02.26.06.33l.14.16.08.03h-.99l.08-.03.13-.15c.04-.08.06-.19.06-.34V.73c0-.15-.02-.27-.06-.35l-.13-.17-.08-.03h2.25v.57c-.02-.09-.08-.17-.17-.24-.09-.07-.23-.11-.4-.11h-.96Z"/>
      <path class="cls-1" d="M46.18.36l-.13-.15-.07-.03h.99l-.08.03-.14.15c-.04.08-.06.19-.06.34v3.1h1.02c.19,0,.35-.03.48-.1.14-.07.23-.16.29-.27l-.11.59h-2.39l.07-.02.13-.17c.04-.08.06-.21.06-.37V.7c0-.15-.02-.26-.06-.34"/>
      <path class="cls-1" d="M49.83,2.53l-.4.89c-.06.14-.09.25-.09.34,0,.12.06.21.19.26h-.89l.18-.11c.08-.08.17-.22.27-.44l1.62-3.47,1.61,3.49c.09.2.18.34.27.41l.2.12h-1.03c.1-.05.15-.11.15-.21,0-.08-.03-.19-.1-.34l-.43-.95h-1.55ZM51.28,2.3l-.68-1.49-.67,1.49h1.34Z"/>
      <path class="cls-1" d="M53.68,3.86c-.33-.15-.61-.37-.81-.67-.2-.3-.3-.66-.3-1.09,0-.38.09-.72.29-1.02.19-.3.47-.54.82-.71.35-.17.75-.26,1.21-.26.29,0,.55.03.79.09s.42.12.56.2v.62c-.13-.2-.32-.36-.58-.49-.25-.12-.52-.18-.78-.18-.37,0-.69.07-.96.21-.27.14-.48.34-.62.6-.15.26-.22.56-.22.91,0,.38.08.7.25.97.17.27.39.47.67.6.28.13.58.2.91.2.15,0,.3-.02.46-.05.16-.03.31-.08.44-.14v-.92c0-.12-.02-.21-.06-.27l-.14-.14-.07-.03h.99l-.07.02-.14.12c-.04.06-.06.15-.06.26v1.02c-.22.12-.46.22-.71.28-.26.07-.51.1-.76.1-.39,0-.76-.07-1.09-.22"/>
      <path class="cls-1" d="M57.39,4.01c-.2-.05-.38-.13-.53-.23v-.68c.11.25.27.44.49.57.22.13.45.19.69.19s.44-.07.6-.21c.16-.14.24-.32.24-.53,0-.14-.03-.26-.1-.36-.06-.1-.17-.19-.31-.28-.14-.09-.34-.19-.6-.29-.36-.15-.62-.3-.79-.47-.16-.16-.25-.36-.25-.59,0-.2.05-.37.16-.53.11-.15.25-.27.43-.36.18-.08.38-.13.59-.13.19,0,.37.02.55.07.18.05.34.11.5.2v.6c-.1-.21-.25-.36-.45-.48-.2-.11-.4-.17-.61-.17-.24,0-.43.07-.57.21-.14.14-.22.3-.22.49,0,.14.04.26.13.36.09.1.19.18.32.25.13.07.3.15.53.24.23.1.42.2.57.28.15.09.27.2.37.34.1.14.15.31.15.5,0,.22-.06.42-.18.58-.12.16-.28.29-.47.38-.2.09-.41.13-.64.13-.22,0-.42-.03-.62-.08"/>
      <path class="cls-1" d="M29.67,7.43c-.11-.03-.21-.07-.29-.12v-.37c.06.14.15.24.27.31.12.07.25.11.38.11s.24-.04.33-.12c.09-.08.13-.17.13-.29l-.05-.2-.17-.15c-.08-.05-.19-.1-.33-.16-.2-.08-.34-.17-.43-.26-.09-.09-.13-.2-.13-.32,0-.11.03-.21.09-.29.06-.09.14-.15.24-.2.1-.05.21-.07.32-.07.1,0,.2.01.3.04.1.03.19.06.27.11v.33c-.05-.11-.14-.2-.25-.26-.11-.06-.22-.09-.34-.09-.13,0-.23.04-.31.11-.08.07-.12.16-.12.27l.07.2.18.14c.07.04.17.08.29.14.13.05.23.11.31.15l.2.18c.06.08.08.17.08.28,0,.12-.03.23-.1.32-.07.09-.15.16-.26.21-.11.05-.22.07-.35.07-.12,0-.23-.01-.34-.04"/>
      <path class="cls-1" d="M31.74,7.42l-.09-.11-.16.12-.2.04c-.1,0-.19-.03-.26-.08l-.11-.21c0-.23.24-.34.71-.34v-.03c0-.11-.02-.2-.05-.25-.05-.08-.13-.11-.24-.11l-.22.07-.09.18-.03-.05v-.07s.1-.19.1-.19c.08-.06.18-.08.3-.08.18,0,.3.05.38.16l.05.12.02.19v.36l.06.15.17.05h.04l-.2.14-.18-.05M31.27,6.99l-.1.17.05.13.14.05.12-.03.1-.08.05-.17v-.13c-.18,0-.3.02-.37.06"/>
      <path class="cls-1" d="M32.36,7.44l-.18-.08v-.27c.04.1.1.16.18.21l.24.06.17-.05.07-.11-.07-.11s-.12-.07-.21-.1c-.12-.05-.21-.1-.28-.15l-.1-.2c0-.09.04-.17.12-.24s.18-.1.3-.1l.23.03.14.06-.05.23-.14-.16-.2-.05-.15.05-.06.11.07.13s.12.07.22.11c.12.04.21.09.27.14l.09.2-.05.17-.16.12c-.07.03-.15.05-.24.05l-.21-.03"/>
      <path class="cls-1" d="M33.43,7.39l-.2-.21c-.05-.09-.07-.18-.07-.28,0-.13.03-.24.08-.33.06-.09.13-.16.22-.21.09-.05.18-.07.28-.07.14,0,.25.05.35.13.1.09.15.21.16.37h-.89c0,.1.02.18.06.26l.17.17.23.06c.21,0,.36-.06.43-.18-.02.11-.08.2-.17.27-.09.07-.2.1-.34.1-.12,0-.23-.03-.32-.08M33.48,6.48l-.12.22h.62c0-.09-.03-.17-.08-.22l-.19-.08-.23.08"/>
      <path class="cls-1" d="M34.48,5.37l-.1-.05h-.02l.39-.16v1.33l.15-.13c.07-.05.16-.07.28-.07.1,0,.19.02.27.07l.19.19c.04.08.07.17.07.27,0,.12-.03.23-.09.33-.06.1-.13.17-.22.23-.1.06-.22.09-.35.09-.09,0-.19-.02-.29-.05l-.11-.02-.12.06v-1.91l-.05-.18M34.76,7.22l.08.09.22.05c.11,0,.2-.04.27-.12.07-.08.11-.19.11-.33s-.03-.24-.1-.34c-.07-.1-.17-.14-.29-.14l-.15.04-.12.1-.05.14v.36l.02.16"/>
      <path class="cls-1" d="M35.92,6.61c.06-.1.14-.17.24-.23.1-.06.21-.09.34-.09s.23.03.33.08.18.12.23.2c.05.09.08.18.08.28s-.03.21-.09.3c-.06.09-.14.17-.24.23-.1.06-.22.09-.34.09s-.23-.03-.33-.08c-.1-.05-.18-.12-.23-.2-.06-.09-.08-.18-.08-.28s.03-.21.09-.3M36.84,6.69l-.15-.21-.23-.08c-.12,0-.22.04-.28.12-.07.08-.1.18-.1.3l.05.25.15.21.23.08c.12,0,.21-.04.28-.12.07-.08.1-.18.1-.3l-.05-.25"/>
      <path class="cls-1" d="M40.2,7.44l-1.07-1.07v.79c0,.1.02.17.05.21l.09.07h-.53l.09-.07s.05-.11.05-.22v-1.54c0-.1-.02-.17-.05-.21l-.09-.07h.53l-.09.07s-.05.11-.05.22v.74l.81-.73c.13-.11.19-.2.19-.24l-.05-.07h.53l-.17.07c-.08.04-.18.12-.3.23l-.76.68.86.84c.1.11.19.18.25.22l.13.07h-.42Z"/>
      <path class="cls-1" d="M41.14,7.47c-.12,0-.21-.03-.29-.1-.07-.07-.11-.17-.11-.31v-.43l-.04-.19-.1-.09-.06-.02h.41v.69c0,.1.03.17.09.22l.21.08.21-.07.09-.19v-.45l-.03-.18-.08-.08-.04-.02h.37v.77l.05.18.1.05h.02l-.39.16v-.21c-.11.14-.25.21-.42.21"/>
      <path class="cls-1" d="M42.14,6.49l-.1-.05.37-.15v1.43c0,.14-.03.24-.1.32-.07.08-.15.12-.25.12l-.21-.05c.12-.01.2-.04.25-.08l.07-.11.02-.19v-1.06l-.05-.18M42.17,5.88l-.04-.1.04-.1.12-.04.12.04.04.1-.04.1-.12.04-.12-.04"/>
      <path class="cls-1" d="M43.19,7.47c-.12,0-.21-.03-.29-.1-.08-.07-.11-.17-.11-.31v-.43l-.04-.19-.1-.09-.05-.02h.41v.69c0,.1.03.17.09.22l.21.08.21-.07.09-.19v-.45l-.03-.18-.08-.08-.04-.02h.37v.77l.05.18.1.05h.02l-.39.16v-.21c-.11.14-.25.21-.42.21"/>
      <path class="cls-1" d="M44.19,5.37l-.1-.05h-.02l.39-.16v1.67l.34-.26.12-.11.05-.08-.02-.04-.03-.02h-.02s.49,0,.49,0l-.06.03-.15.09c-.07.04-.15.1-.24.17l-.25.19.41.38.21.17.12.05h.01l-.12.05-.12.02-.13-.05-.16-.14-.05-.04-.41-.38v.29c0,.09.01.16.03.2l.07.09h.04s-.49.01-.49.01h.04s.07-.11.07-.11l.03-.2v-1.58l-.05-.18"/>
      <path class="cls-1" d="M45.97,7.47c-.12,0-.21-.03-.29-.1-.08-.07-.11-.17-.11-.31v-.43l-.04-.19-.1-.09-.05-.02h.41v.69c0,.1.03.17.09.22l.21.08.21-.07.09-.19v-.45l-.03-.18-.08-.08-.04-.02h.37v.77l.05.18.1.05h.02l-.39.16v-.21c-.11.14-.25.21-.42.21"/>
      <path class="cls-1" d="M47.11,7.44l-.18-.08v-.27c.04.1.1.16.18.21l.24.06.17-.05.07-.11-.07-.11s-.11-.07-.21-.1c-.12-.05-.21-.1-.28-.15l-.1-.2c0-.09.04-.17.12-.24.08-.07.18-.1.3-.1l.22.03.14.06-.05.23-.14-.16-.2-.05-.15.05-.06.11.07.13s.12.07.22.11c.12.04.21.09.27.14l.09.2-.05.17-.16.12c-.07.03-.15.05-.24.05l-.21-.03"/>
      <path class="cls-1" d="M48.45,6.35l.23-.05c.12,0,.22.04.29.11.07.07.11.17.11.3v.43l.03.2.07.09.04.02h-.49.04s.07-.1.07-.1c.02-.04.03-.11.03-.2v-.35l-.03-.17-.08-.1-.19-.06-.21.07-.09.2v.4l.03.2.07.09.04.02h-.49.04s.07-.1.07-.1l.03-.2v-1.58l-.05-.18-.1-.05h-.02l.39-.16v1.31l.18-.13"/>
      <path class="cls-1" d="M49.45,6.49l-.1-.05.37-.15v.83l.03.2.07.09h.04s-.49.01-.49.01h.04s.07-.1.07-.1l.03-.2v-.46l-.05-.18M49.48,5.88l-.04-.1.04-.1.12-.04.12.04.04.1-.04.1-.12.04-.12-.04"/>
      <path class="cls-1" d="M50.34,6.5l.19-.15.22-.06.22.05.14.16.21-.16.24-.05c.12,0,.22.03.3.1.07.07.11.17.11.31v.42c0,.11.02.19.05.23l.09.07h-.48l.09-.07s.05-.12.05-.23v-.35l-.03-.17-.08-.1-.19-.06-.21.07-.09.2v.4c0,.11.02.19.05.23l.09.07h-.48l.09-.07s.05-.12.05-.23v-.35l-.03-.17-.08-.1-.19-.06-.21.07-.09.2v.4c0,.12.02.2.05.24l.09.07h-.48l.09-.07s.04-.12.04-.23v-.46l-.04-.18-.11-.05.37-.15v.21Z"/>
      <path class="cls-1" d="M53.09,7.42l-.09-.11-.16.12-.2.04c-.1,0-.19-.03-.26-.08l-.1-.21c0-.23.23-.34.71-.34v-.03c0-.11-.02-.2-.05-.25-.05-.08-.13-.11-.24-.11l-.22.07-.09.18-.03-.05v-.07s.1-.19.1-.19c.08-.06.18-.08.3-.08.18,0,.3.05.38.16l.05.12.02.19v.36l.06.15.17.05h.04l-.2.14-.18-.05M52.61,6.99l-.1.17.05.13.14.05.12-.03.1-.08.05-.17v-.13c-.18,0-.3.02-.37.06"/>
      <path class="cls-1" d="M20.05,16.33c-.46-.2-.96-.33-1.47-.37.76-.13,1.37-.43,1.83-.89.46-.46.7-1.02.7-1.66,0-.42-.14-.81-.41-1.17-.27-.36-.67-.64-1.17-.84-.29-.1-.62-.18-1.01-.24s-.94-.08-1.68-.08h-2.82c.16.04.32.15.48.34.16.19.24.53.24,1.02v7.09c0,.54-.09.9-.26,1.08-.17.19-.33.29-.48.32h2.84c.68,0,1.21-.02,1.59-.06.38-.04.72-.1,1.02-.19.67-.19,1.19-.48,1.58-.87.39-.39.59-.89.59-1.5,0-.44-.15-.83-.44-1.17-.29-.34-.67-.62-1.14-.82M15.99,11.65h1.19c.45,0,.8.04,1.07.11.26.07.51.18.74.32.29.18.5.41.65.7.14.29.21.59.21.92,0,.27-.06.53-.19.79-.13.26-.3.48-.52.66-.21.17-.45.31-.72.41-.28.11-.62.16-1.03.16h-1.39v-4.07ZM19.56,19.87c-.46.33-1.11.49-1.93.49h-1.63v-4.07h1.24c.55,0,.99.03,1.31.1.32.07.59.17.81.32.61.42.91.96.91,1.62,0,.71-.23,1.22-.7,1.55"/>
      <path class="cls-1" d="M28.46,20.09c-.37.18-.82.27-1.33.27h-2.68v-4.07h2.98c.23,0,.42.03.58.09.16.06.27.12.35.19l.14.13v-1.39l-.14.13c-.08.07-.2.13-.36.19-.16.06-.36.09-.58.09h-2.96v-4.07h2.39c1.03,0,1.65.29,1.86.86v-1.43h-6.17l.15.07c.14.08.26.22.37.42.11.21.16.5.16.89v7.03c0,.41-.05.72-.16.94-.11.22-.23.36-.37.43l-.14.07h6.42l.31-1.52c-.16.28-.43.5-.8.68"/>
      <path class="cls-1" d="M66.41,11.07c.6.13.9.57.9,1.3v6.53l-8.07-7.84h-2.13c.4.07.73.23,1,.5.26.27.4.56.4.89v7.16c0,.47-.08.79-.25.98l-.06.06-.07-.05c-.23-.19-.48-.54-.73-1.06l-4.45-8.94-4.49,8.9c-.17.33-.33.6-.47.8-.24-.19-.53-.44-.85-.76l-4.35-3.94,3.85-3.18c.62-.52,1.13-.87,1.52-1.05.4-.18.69-.29.87-.31h-2.7c.16.03.24.13.24.3,0,.2-.33.57-.98,1.12l-4.08,3.38v-3.47c0-.5.08-.84.24-1.03.16-.18.31-.29.45-.31h-5.23c.16.03.24.13.24.3,0,.2-.33.57-.98,1.12l-4.08,3.38v-3.47c0-.5.08-.84.24-1.03.16-.18.31-.29.45-.31h-2.65c.16.04.32.15.48.33.16.18.24.52.24,1v7.21c0,.49-.09.82-.26,1.01-.17.19-.33.29-.46.31h2.65c-.14-.02-.29-.12-.45-.31-.16-.19-.24-.53-.24-1v-3.7l5.4,5.01h4.64c-.14-.02-.29-.12-.45-.31-.16-.19-.24-.53-.24-1v-3.7l5.4,5.01h2.75c-.34-.13-.52-.36-.52-.67,0-.23.09-.52.26-.87l1.5-3.09h3.5l1.59,3.25c.18.37.28.66.28.86,0,.24-.14.42-.43.53h4.35c-.18-.03-.37-.14-.57-.32-.2-.18-.29-.51-.29-.97v-6.86l8.81,8.55v-8.95c0-.47.08-.79.23-.98.16-.19.31-.29.47-.32h-2.43ZM40.27,19.61c0,.49-.09.82-.26,1.01-.15.16-.28.25-.4.29-.13-.05-.33-.15-.59-.32-.3-.19-.72-.53-1.25-1.04l-4.35-3.94,3.85-3.18c.62-.52,1.13-.87,1.52-1.05.35-.16.61-.26.79-.29.15.05.29.15.44.31.16.18.24.52.24,1v7.21ZM51.18,15.7l1.45-3.01,1.47,3.01h-2.93Z"/>
      <path class="cls-1" d="M21.65,8.5c-.58-.13-1.6-.13-1.78-.13-1.38,0-2.74.23-4.15.48-1.79.32-2.37.46-4.17,1.03-1.62.51-2.75.99-4.35,1.75-1.54.73-3.08,1.6-4.64,2.47-.19.1-.38.21-.57.3-.57.28-1.18.6-1.73.95-.18.12-.26.21-.22.27.07.12.45.01,1.15-.3l.12-.06.17-.15.12-.12c6.15-3.54,11.3-5.75,17.42-6.23.95-.07,1.97,0,2.92.02l.12-.03c.04-.1-.14-.17-.41-.23"/>
      <path class="cls-2" d="M10.87,14.57l-.21.09-.15-.07.04-.08c.22-.27.59-.5.73-.79.1-.21.05-.46-.19-.52-.27-.07-.62.11-.83.32-.23.22-.38.46-.53.71-.12.2-.25.42-.17.58l.05.15-.14.18c-.42.36-.87.71-1.35,1.05-.1.07-.23.15-.34.15-.1,0-.15-.06-.16-.13l.05-.24c.1-.28.19-.55.29-.83l.02-.19c-.09-.17-.58.11-.73.2-.08.05-.43.33-.41.12l.13-.19c.51-.52.97-1.04,1.43-1.56.1-.11.22-.22.31-.33.1-.13.21-.27.31-.4.21-.27.41-.54.61-.8.23-.3.45-.6.63-.9.18-.31.29-.63.38-.95.04-.13.08-.27.05-.39-.03-.12-.15-.23-.31-.23-.22,0-.39.18-.52.34-.28.35-.56.71-.81,1.08-.12.17-.24.35-.35.52-.1.17-.24.32-.34.49-.13.22-.26.45-.39.67-.05.09-.11.19-.16.28-.14.24-.27.49-.4.73-.12.23-.28.44-.41.66-.06.1-.11.2-.17.29-.13.25-.27.5-.48.75-.21.28-.47.53-.72.78-.06.06-.45.43-.91.72-.56.37-1.21.69-1.31.84l-.76.74c.26-.27,2-1.13,2.28-1.37.47-.4.5-.14.25.23-.15.23-.29.46-.44.68l-.06.14c0,.24.38-.1.45-.21.27-.45.59-.9.95-1.33.18-.22.37-.42.57-.63.15-.15.36-.41.56-.51h.23s-.01.1-.01.1c-.06.17-.13.34-.15.5-.02.16.02.32.17.39.18.09.49.03.74-.09.26-.12.47-.3.68-.46.27-.22.54-.43.82-.64.12-.1.26-.2.42-.24.14-.04.27-.03.41-.05.2-.03.39-.13.56-.23.78-.44,1.51-.91,2.14-1.42l.11-.18c-.78.48-1.6.97-2.45,1.46M8.54,12.22c.3-.48.58-.96.92-1.42l.2-.26c.11-.13.38-.54.61-.54.3,0,.1.36.05.49-.1.27-.21.47-.39.74-.19.29-.38.6-.62.87-.26.3-.5.61-.76.93-.21.26-1.16,1.28-1.2,1.25-.05-.03.87-1.56,1.18-2.07M10.25,14.44l-.13.07-.1-.07.03-.13.08-.15c.09-.17.21-.34.37-.49.08-.08.47-.44.55-.24l-.07.21c-.18.28-.42.56-.73.79"/>
      <path class="cls-1" d="M5.94,10.57c0-.42,0-.91-.31-1.16-.09-.08-.17-.09-.23-.03l-.04.12c.03.1.05.18.07.24.16.8.14,1.25.01,2.07-.35,2.18-1.43,4.65-3.28,6.88-.42.51-.79.85-1.1,1.03-.44.25-.73.13-.86-.38l-.04-.24-.16.1c0,.18.02.34.06.49.16.62.66.61,1.2.31,1.19-.67,2.12-2.2,2.62-3.12.57-1.03.99-1.92,1.37-2.93.29-.77.44-1.36.63-2.39.06-.34.05-.66.06-.98"/>
    </g>
  </g>
</svg>