<?xml version="1.0" encoding="UTF-8"?>
<svg id="_レイヤー_2" data-name="レイヤー 2" xmlns="http://www.w3.org/2000/svg" viewBox="0 0 39.86 47.99">
  <defs>
    <style>
      .cls-1 {
        fill: #9b8c64;
      }
    </style>
  </defs>
  <g id="_レイヤー_1-2" data-name="レイヤー 1">
    <g>
      <path class="cls-1" d="M29.37,20.36c-.09-.41-.34-.74-.68-.97.54-.64.64-1.15.52-1.6-.13-.46-.41-.75-.77-.92.22-.36.32-.74.32-1.08,0-.52-.3-.98-.84-1.2.11-.24.17-.49.18-.74,0-.51-.32-1.03-.85-1.31.12-.24.18-.49.17-.7-.02-.65-.54-1.22-1.4-1.34-1.6-.22-2.88.58-4.36,1.72-.87-.54-1.67-1.31-1.67-1.31,0,0-.79.77-1.66,1.31-1.48-1.14-2.76-1.94-4.36-1.72-.86.12-1.39.69-1.41,1.34,0,.21.05.46.17.7-.53.28-.85.8-.85,1.31,0,.25.07.5.18.74-.55.22-.84.69-.84,1.2,0,.34.1.72.32,1.08-.36.17-.64.46-.77.92-.13.44-.02.96.52,1.6-.34.22-.6.55-.68.97-.13.59.06,1.22.87,1.91-.66.74-.25,2.08.58,2.76.41.34.9.64,1.46.86.04.24.14.48.3.7.9,1.39,2.8,1.81,4.57,1.28h.01c.42.74.68,2.13.82,3.12.11.76.23,1.74.18,3.62-.05,1.76-.13,3.83-2.03,4.94-1.66.97-3.59.82-3.59.82l-.17,1.02h12.77l-.17-1.02s-1.92.14-3.58-.82c-1.91-1.11-1.99-3.18-2.03-4.94-.05-1.88.08-2.86.18-3.62.14-.98.41-2.37.82-3.12h.01c1.77.53,3.68.11,4.57-1.28.16-.22.26-.47.3-.7.56-.22,1.05-.52,1.46-.86.82-.67,1.23-2.02.58-2.76.81-.7.99-1.32.87-1.91M28.2,21.76l-.17.19c-.24-.1-.53-.17-.89-.18-.9-.01-1.76.31-3.18,1.6-.79,0-1.58-.13-2.1-.32.96-.89,1.88-1.71,2.1-1.9,1.66.1,3.27-.45,4.21-1.25.52.41.55,1.2.03,1.86M27.46,22.39c-.83.52-2.01.88-3.04.96,1.01-.79,1.99-1.21,2.95-.98l.09.03M21.39,27.57c-.55-.18-.98-.42-1.22-.55.29-.21.86-.63,1.47-1.15.33.09.63.17.92.23-.42.41-.8.89-1.12,1.49l-.05-.02M18.52,27.59c-.33-.6-.71-1.08-1.12-1.49.29-.06.59-.13.92-.23.62.52,1.18.94,1.47,1.15-.24.14-.67.37-1.22.55l-.05.02M19.98,19.02s-.64-.6-1.44-1.36c.58-.34.94-.66,1.44-1.09.5.43.86.75,1.45,1.09-.81.76-1.45,1.36-1.45,1.36M19.98,21.79s-.89-.83-1.44-1.37c.57-.35,1.14-.79,1.44-1.09.3.31.87.75,1.44,1.09-.55.54-1.44,1.37-1.44,1.37M20.15,21.95c.28-.25.86-.78,1.5-1.39.56.27,1.23.47,1.96.55-.62.56-1.27,1.26-1.96,1.85-.7-.33-1.24-.77-1.49-1.01M21.43,23.14c-.85.74-1.45,1.31-1.45,1.31,0,0-.6-.58-1.45-1.31.48-.26,1.04-.69,1.45-1.04.41.35.96.78,1.45,1.04M20.14,19.19c.28-.25.86-.79,1.5-1.4.55.26,1.2.54,1.9.65-.71.61-1.33,1.16-1.91,1.76-.73-.33-1.25-.78-1.5-1.01M20.14,16.44c.29-.24.91-.76,1.51-1.32.5.3,1.18.64,1.85.83-.55.37-1.17.86-1.86,1.51-.73-.33-1.25-.78-1.5-1.02M21.47,14.99c-.69.59-1.48,1.27-1.49,1.28h0s0,0,0,0c-.01,0-.79-.69-1.49-1.28.61-.41,1.12-.81,1.49-1.15.37.34.88.74,1.49,1.15M20.13,13.73c.36-.29,1.23-1,1.52-1.2.44.29,1.2.61,1.86.8-.6.41-1.16.92-1.87,1.52-.66-.41-1.25-.89-1.51-1.12M18.31,14.84c-.7-.59-1.26-1.1-1.87-1.52.66-.2,1.42-.52,1.86-.8.28.2,1.16.92,1.52,1.2-.27.23-.85.71-1.51,1.12M19.82,16.44c-.25.24-.77.69-1.5,1.02-.69-.65-1.31-1.14-1.86-1.51.67-.19,1.35-.53,1.85-.83.6.56,1.22,1.09,1.51,1.32M19.82,19.19c-.25.24-.77.68-1.5,1.01-.58-.61-1.2-1.16-1.91-1.76.71-.11,1.35-.39,1.9-.65.64.61,1.22,1.16,1.5,1.4M19.81,21.95c-.26.23-.79.67-1.49,1.01-.69-.59-1.34-1.29-1.96-1.85.73-.08,1.39-.28,1.96-.55.63.61,1.22,1.15,1.5,1.39M19.83,24.58c-.26.22-.83.67-1.51.98-.69-.59-1.35-1.28-1.97-1.87.76-.08,1.51-.26,1.96-.46.65.55,1.24,1.1,1.52,1.34M18.54,25.75c.56-.3.93-.57,1.44-1,.51.43.88.69,1.44,1-.85.71-1.44,1.15-1.44,1.15,0,0-.59-.44-1.44-1.15M20.13,24.58c.27-.24.87-.79,1.52-1.34.46.2,1.21.38,1.96.46-.62.59-1.28,1.28-1.97,1.87-.68-.31-1.25-.77-1.51-.98M24.43,20.78c.82-.59,2.01-1.23,3.02-1.14l.22.03c-.79.68-2.08,1.03-3.24,1.11M28.13,19.15c-.14-.04-.29-.06-.44-.07-1.12-.02-2.24.5-3.73,1.71-.78,0-1.55-.27-2.08-.49.77-.79,1.86-1.61,2.08-1.82,1.75.11,3.14-.22,4.05-1.08.58.32.62.99.12,1.75M24.47,18.08c.8-.54,1.92-.95,2.92-.85h.02c-.71.67-1.8.83-2.94.85M27.83,16.7c-.14-.02-.28-.03-.43-.03-1.16,0-2.43.55-3.44,1.42-.77,0-1.53-.29-2.07-.51.72-.63,1.43-1.16,2.07-1.52,1.39.22,2.64.04,3.37-.65l.21-.23c.51.25.67.85.29,1.53M24.62,15.71c1.05-.48,1.93-.65,2.29-.67-.5.49-1.28.71-2.29.67M27.3,14.47h-.08c-.94-.03-1.88.33-3.27,1.17h0c-.74-.11-1.6-.42-2.12-.69.82-.7,1.51-1.17,2.12-1.51,1.22.27,2.24.08,2.67-.21.11-.07.2-.15.28-.24.45.3.65.87.39,1.47M24.58,13.14c.7-.31,1.28-.41,1.79-.35l.08.02c-.09.08-.18.15-.29.19-.41.15-.87.22-1.59.14M25.74,10.99c1.05.13,1.21.83,1,1.38l-.17-.03c-.9-.11-1.77.22-2.61.71-.65-.13-1.55-.44-2.08-.69,1.89-1.41,2.91-1.47,3.86-1.35M19.98,11.21c.3.3.86.77,1.46,1.17-1.03.8-1.46,1.21-1.46,1.21,0,0-.43-.41-1.45-1.21.59-.4,1.15-.86,1.45-1.17M14.22,10.99c.95-.12,1.97-.06,3.86,1.35-.53.26-1.43.56-2.08.69-.84-.48-1.71-.81-2.61-.71l-.17.03c-.21-.54-.05-1.24,1-1.38M15.38,13.14c-.71.08-1.18.01-1.59-.14-.1-.04-.2-.11-.29-.19l.08-.02c.51-.07,1.09.04,1.79.35M13.05,13c.09.09.18.17.29.24.42.28,1.44.47,2.67.21.61.33,1.31.81,2.12,1.51-.52.27-1.38.59-2.12.69h0c-1.39-.85-2.33-1.21-3.27-1.18h-.08c-.26-.59-.06-1.17.39-1.46M15.33,15.71c-1,.05-1.79-.17-2.29-.67.36.02,1.24.18,2.29.67M12.42,15.17l.21.23c.73.7,1.97.87,3.37.65.64.36,1.34.89,2.07,1.52-.53.23-1.3.51-2.07.51-1.01-.87-2.28-1.41-3.44-1.42-.15,0-.29.01-.43.03-.39-.68-.22-1.28.29-1.53M15.48,18.08c-1.14-.03-2.23-.18-2.94-.85h.02c1-.1,2.12.3,2.92.85M11.95,17.4c.9.86,2.29,1.19,4.05,1.08.22.21,1.31,1.02,2.08,1.82-.53.22-1.3.49-2.08.49-1.49-1.21-2.61-1.74-3.73-1.71-.15,0-.3.03-.44.07-.49-.76-.45-1.43.12-1.75M15.53,20.78c-1.16-.07-2.45-.43-3.24-1.11l.22-.03c1.01-.09,2.2.55,3.02,1.14M11.79,19.9c.94.79,2.55,1.35,4.21,1.25.22.19,1.15,1.01,2.1,1.9-.53.19-1.32.32-2.1.32-1.42-1.29-2.29-1.61-3.18-1.6-.36,0-.65.07-.89.18l-.17-.19c-.52-.66-.49-1.45.03-1.86M15.54,23.35c-1.04-.08-2.22-.43-3.04-.96l.09-.03c.96-.23,1.94.19,2.96.98M12.33,24.56c-.53-.67-.73-1.44-.32-1.88.99.62,2.51,1.13,3.99,1.05.4.35,1.24,1.16,2.08,1.93-.26.09-.58.16-.93.22-.98-.89-1.86-1.14-2.61-1.1-.63.04-.95.32-1.03.68-.47-.22-.88-.52-1.18-.9M16.7,25.93c-.23.02-.46.03-.7.03-.66,0-1.3-.09-1.88-.27.05-.21.23-.37.58-.4.67-.07,1.43.25,1.99.64M16.93,27.83c-.94-.03-1.87-.48-2.39-1.08-.18-.21-.32-.43-.38-.64.54.14,1.15.2,1.84.17.37-.02.69-.05,1.01-.1l.14.12c.15.15.69.69,1.11,1.38-.34.09-.75.17-1.33.16M20.4,31.28c-.18,1.51-.19,1.93-.16,3.4.06,3.16.77,4.22,2.28,5.09,1.51.87,3.41.83,3.41.83l.09.54h-12.07l.09-.54s1.9.04,3.41-.83c1.51-.87,2.21-1.92,2.28-5.09.03-1.46.03-1.89-.16-3.4-.19-1.54-.51-2.64-.94-3.5.6-.23,1.12-.47,1.36-.62.24.15.76.39,1.36.62-.43.86-.75,1.96-.94,3.5M25.41,26.74c-.52.6-1.45,1.06-2.39,1.08-.58.02-1-.06-1.33-.16.42-.69.96-1.23,1.11-1.38l.14-.12c.31.05.64.08,1.01.1.69.04,1.29-.03,1.84-.17-.07.21-.2.43-.38.64M23.26,25.93c.56-.38,1.32-.7,1.99-.64.35.03.53.19.58.4-.58.18-1.22.27-1.88.27-.24,0-.47-.01-.7-.03M27.63,24.56c-.3.38-.71.68-1.18.9-.09-.37-.4-.65-1.04-.68-.76-.04-1.64.21-2.61,1.1-.35-.05-.67-.13-.92-.22.84-.77,1.68-1.58,2.08-1.93,1.47.08,3-.43,3.99-1.05.41.44.21,1.21-.32,1.88"/>
      <path class="cls-1" d="M1.08,44.51l-.03.02v.05h-.05v-.51h.04l.05.07h.91v.04l-.05.06v.64s.04.02.04.02h.02v.04c-.28.17-.61.26-.99.26-.13,0-.25-.02-.37-.06-.12-.04-.23-.09-.32-.17-.09-.08-.17-.18-.22-.3-.06-.12-.08-.26-.08-.43s.03-.31.08-.43c.06-.12.13-.22.22-.3.09-.08.2-.14.32-.18.12-.04.24-.06.37-.06h.14s.11.02.11.02l.11.03.14.04.14.06.08.04.04-.03h.04s-.2.49-.2.49l-.04-.03v-.04s-.05-.06-.05-.06l-.13-.06-.18-.04-.2-.02-.21.04-.18.11-.12.18c-.03.07-.05.16-.05.26s.02.18.06.25l.14.18.19.1.21.03.23-.02.2-.05v-.24h-.4Z"/>
      <path class="cls-1" d="M3.13,43.28c.13,0,.25.02.37.06s.22.1.3.18c.09.08.16.18.21.3.05.12.08.26.08.42s-.03.3-.08.42c-.05.12-.12.22-.21.3-.09.08-.19.14-.3.18-.12.04-.24.06-.37.06s-.25-.02-.37-.06c-.12-.04-.22-.1-.3-.18-.09-.08-.16-.18-.21-.3-.05-.12-.08-.26-.08-.42s.03-.3.08-.42c.05-.12.12-.22.21-.3.09-.08.19-.14.3-.18s.24-.06.37-.06M3.13,43.72l-.19.04-.16.1-.11.17-.04.23.04.22.11.17.16.1.19.03.19-.03.16-.1.11-.17.04-.22-.04-.23-.11-.17-.16-.1-.19-.04"/>
      <polygon class="cls-1" points="4.74 45.16 4.81 45.13 4.82 45.09 4.82 43.74 4.3 43.74 4.26 43.76 4.24 43.84 4.2 43.84 4.2 43.2 4.24 43.2 4.26 43.28 4.3 43.3 5.81 43.3 5.85 43.28 5.87 43.2 5.9 43.2 5.9 43.84 5.87 43.84 5.85 43.76 5.81 43.74 5.29 43.74 5.29 45.09 5.3 45.13 5.37 45.16 5.37 45.2 4.74 45.2 4.74 45.16"/>
      <path class="cls-1" d="M6.92,43.28c.13,0,.25.02.37.06s.22.1.3.18c.09.08.16.18.21.3.05.12.08.26.08.42s-.03.3-.08.42c-.05.12-.12.22-.21.3-.09.08-.19.14-.3.18-.12.04-.24.06-.37.06s-.25-.02-.37-.06c-.12-.04-.22-.1-.3-.18-.09-.08-.16-.18-.21-.3-.05-.12-.08-.26-.08-.42s.03-.3.08-.42c.05-.12.12-.22.21-.3.09-.08.19-.14.3-.18s.24-.06.37-.06M6.92,43.72l-.19.04-.16.1-.11.17-.04.23.04.22.11.17.16.1.19.03.19-.03.16-.1.11-.17.04-.22-.04-.23-.11-.17-.16-.1-.19-.04"/>
      <path class="cls-1" d="M10.63,43.97v-.02s0-.03,0-.03l-.04-.06-.11-.05-.16-.04-.19-.02-.19.02-.19.08-.14.15c-.04.06-.05.14-.05.23s.02.17.05.23l.14.15.19.08.19.03.13-.02.17-.05.15-.07.07-.08v-.03s-.02-.03-.02-.03l.03-.02.32.57-.04.03-.02-.02h-.03s-.09.03-.09.03l-.17.07c-.07.02-.15.04-.24.06-.09.02-.2.03-.31.03-.12,0-.24-.02-.36-.06-.12-.04-.23-.1-.32-.18-.1-.08-.18-.18-.23-.3-.06-.12-.09-.26-.09-.42s.03-.3.09-.42c.06-.12.14-.22.23-.3.1-.08.2-.14.32-.18.12-.04.24-.06.36-.06s.23,0,.32.02l.23.05.14.05.07.02.05-.03h.03s-.28.61-.28.61l-.03-.02Z"/>
      <path class="cls-1" d="M12.06,43.28c.13,0,.25.02.37.06s.22.1.3.18c.09.08.16.18.21.3.05.12.08.26.08.42s-.03.3-.08.42c-.05.12-.12.22-.21.3-.09.08-.19.14-.3.18-.12.04-.24.06-.37.06s-.25-.02-.37-.06c-.12-.04-.22-.1-.3-.18-.09-.08-.16-.18-.21-.3-.05-.12-.08-.26-.08-.42s.02-.3.08-.42c.05-.12.12-.22.21-.3.09-.08.19-.14.3-.18s.24-.06.37-.06M12.06,43.72l-.19.04-.16.1-.11.17-.04.23.04.22.11.17.16.1.19.03.19-.03.16-.1.11-.17.04-.22-.04-.23-.11-.17-.16-.1-.19-.04"/>
      <path class="cls-1" d="M13.31,43.41v-.04s-.09-.02-.09-.02v-.04h.74v.04l-.07.02-.02.03.04.07.1.14.15.19.16.21.16.2.13.16v-.96l-.07-.07v-.04h.56v.04l-.07.02v.04s-.01,1.68-.01,1.68v.04s.09.02.09.02v.04h-.58v-.04h.06s.01-.04.01-.04v-.03s-.05-.06-.05-.06l-.09-.11-.16-.2c-.07-.08-.15-.19-.24-.31-.1-.12-.21-.28-.35-.45v1.18s.09.02.09.02v.04h-.58v-.04l.07-.02v-.04s.01-1.68.01-1.68Z"/>
      <rect class="cls-1" x="15.41" y="44.01" width=".8" height=".43"/>
      <polygon class="cls-1" points="17.73 45.16 17.77 45.15 17.79 45.11 17.76 45.04 17.69 44.91 17.59 44.74 17.49 44.57 17.41 44.42 17.36 44.34 17.06 44.66 17.06 45.09 17.08 45.13 17.15 45.16 17.15 45.2 16.52 45.2 16.52 45.16 16.59 45.13 16.6 45.09 16.6 43.41 16.59 43.37 16.52 43.34 16.52 43.3 17.15 43.3 17.15 43.34 17.08 43.37 17.06 43.41 17.06 44.06 17.08 44.06 17.28 43.84 17.48 43.63 17.62 43.47 17.68 43.39 17.67 43.35 17.63 43.34 17.63 43.3 18.41 43.3 18.41 43.34 18.36 43.35 18.32 43.38 18.28 43.41 18.24 43.46 17.71 44 18.33 45.1 18.38 45.15 18.43 45.16 18.43 45.2 17.73 45.2 17.73 45.16"/>
      <path class="cls-1" d="M19.1,45.12v.03s.06,0,.06,0v.04h-.54v-.04l.05-.02.03-.06.03-.1.06-.2c.03-.08.06-.17.09-.27.03-.1.07-.2.1-.3.03-.1.07-.2.1-.3.03-.1.06-.18.08-.26l.06-.19.02-.08-.02-.03h-.04v-.05h.8v.04h-.04s-.02.05-.02.05l.03.09c.02.06.04.13.07.23.03.09.07.2.11.31.04.12.08.24.12.36.04.12.09.24.12.36.04.12.08.22.11.31l.04.09.04.02v.04h-.6v-.04l.06-.04-.02-.05-.03-.1-.03-.11-.02-.07h-.73l-.05.16-.03.1-.02.05v.02M19.85,44.5l-.3-.86-.27.86h.57Z"/>
      <path class="cls-1" d="M20.91,43.41v-.04s-.09-.02-.09-.02v-.04h.74v.04l-.07.02-.02.03.04.07.1.14.15.19.16.21.16.2.13.16v-.96l-.07-.07v-.04h.56v.04l-.07.02v.04s-.01,1.68-.01,1.68v.04s.09.02.09.02v.04h-.58v-.04h.06s.01-.04.01-.04v-.03s-.05-.06-.05-.06l-.09-.11-.16-.2c-.07-.08-.15-.19-.24-.31-.1-.12-.21-.28-.35-.45v1.18s.09.02.09.02v.04h-.58v-.04l.07-.02v-.04s.01-1.68.01-1.68Z"/>
      <path class="cls-1" d="M23.46,45.12v.03s.05,0,.05,0v.04h-.54v-.04l.05-.02.03-.06.03-.1.07-.2c.03-.08.05-.17.09-.27s.07-.2.1-.3c.03-.1.07-.2.1-.3.03-.1.06-.18.08-.26l.06-.19.02-.08-.02-.03h-.04v-.05h.8v.04h-.04s-.02.05-.02.05l.03.09c.02.06.05.13.08.23.03.09.07.2.11.31.04.12.08.24.12.36.04.12.08.24.12.36.04.12.08.22.11.31l.04.09.04.02v.04h-.6v-.04l.06-.04-.02-.05-.03-.1-.04-.11-.02-.07h-.73l-.05.16-.03.1v.05s-.02.02-.02.02M24.2,44.5l-.3-.86-.27.86h.57Z"/>
      <polygon class="cls-1" points="27.17 45.16 27.21 45.15 27.23 45.11 27.2 45.04 27.13 44.91 27.03 44.74 26.94 44.57 26.85 44.42 26.8 44.34 26.5 44.66 26.5 45.09 26.52 45.13 26.59 45.16 26.59 45.2 25.96 45.2 25.96 45.16 26.03 45.13 26.04 45.09 26.04 43.41 26.03 43.37 25.96 43.34 25.96 43.3 26.59 43.3 26.59 43.34 26.52 43.37 26.5 43.41 26.5 44.06 26.52 44.06 26.72 43.84 26.92 43.63 27.07 43.47 27.13 43.39 27.11 43.35 27.07 43.34 27.07 43.3 27.85 43.3 27.85 43.34 27.8 43.35 27.76 43.38 27.73 43.41 27.68 43.46 27.15 44 27.77 45.1 27.82 45.15 27.87 45.16 27.87 45.2 27.17 45.2 27.17 45.16"/>
      <polygon class="cls-1" points="28.21 45.16 28.28 45.13 28.29 45.09 28.29 43.41 28.28 43.37 28.21 43.34 28.21 43.3 28.84 43.3 28.84 43.34 28.77 43.37 28.75 43.41 28.75 45.09 28.77 45.13 28.84 45.16 28.84 45.2 28.21 45.2 28.21 45.16"/>
      <path class="cls-1" d="M29.33,43.41v-.04s-.09-.02-.09-.02v-.04h.74v.04l-.07.02-.02.03.04.07.11.14.15.19.16.21.16.2.13.16v-.96l-.07-.07v-.04h.56v.04l-.07.02v.04s-.01,1.68-.01,1.68v.04s.09.02.09.02v.04h-.58v-.04h.06s.01-.04.01-.04v-.03s-.05-.06-.05-.06l-.09-.11-.16-.2c-.07-.08-.15-.19-.24-.31-.1-.12-.21-.28-.35-.45v1.18s.09.02.09.02v.04h-.58v-.04l.07-.02v-.04s.01-1.68.01-1.68Z"/>
      <path class="cls-1" d="M32.47,44.51l-.03.02v.05h-.05v-.51h.04l.05.07h.9v.04l-.05.06v.64s.04.02.04.02h.02v.04c-.28.17-.61.26-.99.26-.13,0-.25-.02-.37-.06-.12-.04-.23-.09-.32-.17-.09-.08-.17-.18-.22-.3-.06-.12-.08-.26-.08-.43s.03-.31.08-.43c.06-.12.13-.22.22-.3.09-.08.2-.14.32-.18.12-.04.24-.06.37-.06h.14s.11.02.11.02l.11.03.14.04.14.06.08.04.04-.03h.04s-.2.49-.2.49l-.04-.03v-.04s-.05-.06-.05-.06l-.13-.06-.18-.04-.2-.02-.21.04-.18.11-.12.18c-.03.07-.05.16-.05.26s.02.18.06.25l.14.18.19.1.21.03.23-.02.2-.05v-.24h-.4Z"/>
      <path class="cls-1" d="M33.69,43.41v-.04s-.09-.02-.09-.02v-.04h1.02c.14,0,.26.02.37.07.11.05.19.11.26.2.07.09.12.19.15.3.03.12.05.24.05.38,0,.12-.02.24-.05.36s-.09.22-.16.3c-.07.09-.16.16-.27.21-.11.05-.23.08-.38.08h-.99v-.04l.07-.02v-.04s.01-1.68.01-1.68ZM34.54,44.77c.16,0,.28-.05.35-.15.07-.1.11-.22.11-.38s-.04-.28-.11-.38c-.07-.1-.19-.15-.35-.15h-.39v1.05h.39Z"/>
      <path class="cls-1" d="M36.62,43.28c.13,0,.25.02.37.06s.22.1.3.18c.09.08.16.18.21.3.05.12.08.26.08.42s-.03.3-.08.42c-.05.12-.12.22-.21.3-.09.08-.19.14-.3.18-.12.04-.24.06-.37.06s-.25-.02-.37-.06c-.12-.04-.22-.1-.3-.18-.09-.08-.16-.18-.21-.3-.05-.12-.08-.26-.08-.42s.03-.3.08-.42c.05-.12.12-.22.21-.3.09-.08.19-.14.3-.18s.24-.06.37-.06M36.62,43.72l-.19.04-.16.1-.11.17-.04.23.04.22.11.17.16.1.19.03.19-.03.16-.1.11-.17.04-.22-.04-.23-.11-.17-.16-.1-.19-.04"/>
      <path class="cls-1" d="M39.24,45.16l.07-.02v-.04s.01-1.33.01-1.33h0s-.55,1.39-.55,1.39l-.54-1.42h0v1.39s.09.02.09.02v.04h-.54v-.04l.07-.02v-.04s.01-1.68.01-1.68v-.04s-.09-.02-.09-.02v-.04h.8v.04l-.07.07.02.06.05.13.06.17.07.18.06.15.03.09c.04-.09.07-.18.11-.27l.1-.24.07-.18.03-.09-.07-.07v-.04h.83v.04l-.07.02v.04s-.01,1.68-.01,1.68v.04s.09.02.09.02v.04h-.61v-.04Z"/>
      <path class="cls-1" d="M7.06,47.88l.04-.02.02-.05-.02-.08-.05-.19c-.02-.08-.05-.17-.08-.27-.03-.1-.06-.2-.09-.3-.03-.1-.06-.21-.09-.31-.03-.1-.05-.19-.08-.27l-.06-.2-.02-.09-.03-.04v-.04h.56v.04l-.05.02-.02.04.02.08.04.17.06.22.07.24.06.23.05.18h0l.05-.18.06-.23.07-.24.06-.22.04-.17v-.08s0-.04,0-.04l-.04-.02v-.04h.73v.04l-.04.02-.02.04.02.07.04.17.05.23.06.25.05.23.04.16h0l.03-.14.06-.22.07-.25.07-.24.05-.18.02-.09-.02-.04-.04-.02v-.04h.52v.04l-.04.02-.02.05-.02.09-.06.2c-.02.08-.05.17-.08.27-.03.1-.06.2-.09.3-.03.1-.06.2-.09.3-.03.1-.05.19-.07.27l-.05.19-.02.08.02.04h.04v.05h-.64v-.04l.06-.05-.03-.18c-.02-.09-.05-.2-.08-.32-.03-.12-.06-.25-.09-.38-.03-.14-.06-.26-.09-.39h0c-.03.11-.05.23-.09.37-.04.14-.07.27-.11.4-.04.13-.06.24-.09.33-.02.09-.04.15-.04.16l.07.05v.04h-.66v-.04Z"/>
      <polygon class="cls-1" points="9.58 47.88 9.65 47.86 9.66 47.82 9.66 46.13 9.65 46.09 9.58 46.07 9.58 46.03 10.21 46.03 10.21 46.07 10.14 46.09 10.12 46.13 10.12 47.82 10.14 47.86 10.21 47.88 10.21 47.92 9.58 47.92 9.58 47.88"/>
      <path class="cls-1" d="M10.7,46.13v-.04s-.09-.02-.09-.02v-.04h.74v.04l-.07.02-.02.03.04.07.11.15.15.19.16.21.16.2.13.16v-.96l-.06-.07v-.04h.56v.04l-.07.02v.04s-.01,1.68-.01,1.68v.04s.09.02.09.02v.04h-.58v-.04h.06s.01-.04.01-.04v-.03s-.05-.06-.05-.06l-.09-.11-.16-.2c-.07-.08-.15-.19-.24-.31-.1-.12-.21-.28-.35-.45v1.17s.09.02.09.02v.04h-.58v-.04l.07-.02v-.04s.01-1.68.01-1.68Z"/>
      <polygon class="cls-1" points="14.09 47.23 14.06 47.17 14 47.15 13.43 47.15 13.43 47.48 14.41 47.48 14.45 47.46 14.47 47.38 14.5 47.38 14.5 47.99 14.47 47.99 14.45 47.93 14.41 47.92 12.88 47.92 12.88 47.88 12.95 47.86 12.97 47.82 12.97 46.13 12.95 46.09 12.88 46.07 12.88 46.02 14.41 46.02 14.45 46 14.47 45.92 14.5 45.92 14.5 46.55 14.47 46.55 14.45 46.47 14.41 46.45 13.43 46.45 13.43 46.75 14 46.75 14.06 46.73 14.09 46.67 14.13 46.67 14.13 47.23 14.09 47.23"/>
      <path class="cls-1" d="M15.35,47.82v.04s.09.02.09.02v.04h-.63v-.04l.07-.02v-.04s.01-1.68.01-1.68v-.04s-.09-.02-.09-.02v-.04h1.12c.23,0,.39.05.49.15.1.1.15.25.15.45,0,.17-.04.3-.12.39-.08.09-.19.16-.32.2l.36.6.09.06v.04h-.64v-.04l.07-.06-.02-.05-.06-.1-.08-.13-.09-.14-.07-.11-.04-.07h-.3v.61ZM15.87,46.83c.09,0,.15-.02.19-.06l.05-.14-.05-.14s-.09-.06-.19-.06h-.52v.4h.52Z"/>
      <polygon class="cls-1" points="18.42 46.02 18.42 46.07 18.38 46.09 18.35 46.13 17.76 47.11 17.76 47.82 17.77 47.86 17.84 47.88 17.84 47.92 17.21 47.92 17.21 47.88 17.28 47.86 17.3 47.82 17.3 47.18 16.71 46.19 16.65 46.09 16.61 46.07 16.61 46.02 17.28 46.02 17.28 46.07 17.23 46.08 17.21 46.11 17.25 46.2 17.34 46.36 17.45 46.56 17.55 46.72 17.59 46.65 17.66 46.54 17.74 46.4 17.82 46.27 17.88 46.16 17.9 46.11 17.88 46.08 17.84 46.07 17.84 46.02 18.42 46.02"/>
      <path class="cls-1" d="M20.78,47.14l-.02-.04h-.05s-.07.02-.07.02l-.07.08-.05.09-.03.08.04.04.06.04.06.03h.05s.05-.04.05-.04h.04v.49h-.15s-.15-.03-.15-.03l-.14-.07-.12-.11c-.1.08-.2.14-.3.17-.1.03-.21.04-.33.04l-.23-.03-.22-.1-.16-.18c-.04-.08-.06-.16-.06-.27l.03-.19.08-.16.12-.12.15-.09-.11-.14-.05-.17c0-.1.02-.17.05-.24l.14-.15.19-.07.2-.02.2.02.18.07.13.14c.03.06.05.14.05.23l-.02.13-.06.11-.08.09-.09.07.1.11.09.13c.07-.12.15-.24.24-.34s.19-.18.31-.25v.62h-.02ZM19.69,47.55l.19-.05.15-.14c-.06-.21-.18-.32-.34-.32l-.19.07-.08.19.08.18.19.07M19.76,46.28l-.14.05-.07.16.07.16.14.05.14-.05.07-.16-.07-.16-.14-.05"/>
      <path class="cls-1" d="M22.3,47.82v.04s.09.02.09.02v.04h-.63v-.04l.07-.02v-.04s.01-1.68.01-1.68v-.04s-.09-.02-.09-.02v-.04h1.12c.23,0,.39.05.49.15.1.1.15.25.15.45,0,.17-.04.3-.12.39-.08.09-.19.16-.32.2l.36.6.09.06v.04h-.64v-.04l.07-.06-.02-.05-.06-.1-.08-.13-.09-.14-.07-.11-.04-.07h-.3v.61ZM22.81,46.83c.09,0,.15-.02.19-.06l.05-.14-.05-.14s-.09-.06-.19-.06h-.52v.4h.52Z"/>
      <polygon class="cls-1" points="25.05 47.23 25.03 47.17 24.96 47.15 24.39 47.15 24.39 47.48 25.38 47.48 25.41 47.46 25.43 47.38 25.47 47.38 25.47 47.99 25.43 47.99 25.41 47.93 25.38 47.92 23.85 47.92 23.85 47.88 23.92 47.86 23.93 47.82 23.93 46.13 23.92 46.09 23.85 46.07 23.85 46.02 25.38 46.02 25.41 46 25.43 45.92 25.47 45.92 25.47 46.55 25.43 46.55 25.41 46.47 25.38 46.45 24.39 46.45 24.39 46.75 24.96 46.75 25.03 46.73 25.05 46.67 25.09 46.67 25.09 47.23 25.05 47.23"/>
      <path class="cls-1" d="M25.97,47.19v.08s.05.08.05.08l.15.09.21.07.24.03c.15,0,.27-.02.34-.06l.11-.18-.09-.09c-.06-.02-.14-.03-.24-.04s-.2-.02-.3-.04c-.11-.01-.21-.04-.3-.07-.09-.03-.17-.08-.24-.15-.06-.07-.09-.16-.09-.27,0-.09.02-.17.05-.25l.15-.19c.07-.05.14-.09.23-.12.09-.03.2-.05.31-.05.1,0,.2,0,.29.02.09.02.17.03.24.05l.17.05.1.02.05-.02.03-.04h.03s-.21.52-.21.52l-.04-.02v-.04l-.06-.07-.15-.06-.21-.05-.22-.02c-.13,0-.23.02-.28.05l-.08.12.06.09.14.04.2.02.23.03.23.05.2.1.14.17c.04.07.05.15.05.26l-.04.23-.14.21c-.07.06-.16.11-.27.15-.11.04-.25.05-.42.05-.13,0-.24,0-.33-.02-.09-.01-.17-.03-.24-.05l-.16-.05-.08-.03h-.03s-.03.05-.03.05h-.04s.23-.65.23-.65l.03.02Z"/>
      <path class="cls-1" d="M28.61,46c.13,0,.25.02.37.06.12.04.22.1.3.18.09.08.16.18.21.3.05.12.08.26.08.42s-.03.3-.08.42c-.05.12-.12.22-.21.3-.09.08-.19.14-.3.18-.12.04-.24.06-.37.06s-.25-.02-.37-.06c-.12-.04-.22-.1-.3-.18-.09-.08-.16-.18-.21-.3-.05-.12-.08-.26-.08-.42s.03-.3.08-.42c.05-.12.12-.22.21-.3.09-.08.19-.14.3-.18.12-.04.24-.06.37-.06M28.61,46.44l-.19.04-.16.1-.11.17-.04.23.04.22.11.17.16.1.19.03.19-.03.16-.1.11-.17.04-.22-.04-.23-.11-.17-.16-.1-.19-.04"/>
      <path class="cls-1" d="M30.27,47.82v.04s.09.02.09.02v.04h-.63v-.04l.07-.02v-.04s.01-1.68.01-1.68v-.04s-.08-.02-.08-.02v-.04h1.12c.23,0,.39.05.49.15.1.1.15.25.15.45,0,.17-.04.3-.12.39-.08.09-.19.16-.32.2l.36.6.09.06v.04h-.64v-.04l.07-.06-.03-.05-.06-.1-.08-.13-.09-.14-.07-.11-.04-.07h-.3v.61ZM30.79,46.83l.19-.06.05-.14-.05-.14-.19-.06h-.52v.4h.52Z"/>
      <polygon class="cls-1" points="32.19 47.88 32.26 47.86 32.28 47.82 32.28 46.46 31.75 46.46 31.71 46.48 31.69 46.57 31.66 46.57 31.66 45.92 31.69 45.92 31.71 46.01 31.75 46.03 33.26 46.03 33.3 46.01 33.32 45.92 33.36 45.92 33.36 46.57 33.32 46.57 33.3 46.48 33.26 46.46 32.74 46.46 32.74 47.82 32.75 47.86 32.82 47.88 32.82 47.92 32.19 47.92 32.19 47.88"/>
      <polygon class="cls-1" points="19.58 4.45 19.73 4.91 20.21 4.91 19.82 5.19 19.97 5.65 19.58 5.37 19.19 5.65 19.34 5.19 18.95 4.91 19.43 4.91 19.58 4.45"/>
      <polygon class="cls-1" points="17.53 5.55 17.71 6.09 18.28 6.09 17.82 6.42 17.99 6.97 17.53 6.63 17.07 6.97 17.25 6.42 16.79 6.09 17.35 6.09 17.53 5.55"/>
      <polygon class="cls-1" points="21.47 6.85 21.61 7.31 22.09 7.31 21.71 7.59 21.86 8.05 21.47 7.76 21.08 8.05 21.23 7.59 20.84 7.31 21.32 7.31 21.47 6.85"/>
      <polygon class="cls-1" points="17.92 1.65 18.03 1.98 18.38 1.98 18.1 2.19 18.2 2.52 17.92 2.31 17.64 2.52 17.75 2.19 17.47 1.98 17.82 1.98 17.92 1.65"/>
      <polygon class="cls-1" points="24.27 0 24.38 .33 24.72 .33 24.44 .53 24.55 .86 24.27 .66 23.99 .86 24.09 .53 23.81 .33 24.16 .33 24.27 0"/>
      <polygon class="cls-1" points="21.82 10.15 21.9 10.38 22.14 10.38 21.94 10.52 22.02 10.75 21.82 10.61 21.62 10.75 21.7 10.52 21.5 10.38 21.75 10.38 21.82 10.15"/>
      <polygon class="cls-1" points="22.31 2.08 22.38 2.28 22.58 2.28 22.42 2.4 22.48 2.59 22.31 2.47 22.15 2.59 22.21 2.4 22.04 2.28 22.25 2.28 22.31 2.08"/>
      <polygon class="cls-1" points="15.99 1.32 16.06 1.52 16.26 1.52 16.1 1.64 16.16 1.83 15.99 1.71 15.83 1.83 15.89 1.64 15.72 1.52 15.93 1.52 15.99 1.32"/>
      <polygon class="cls-1" points="15.3 .86 15.37 1.05 15.57 1.05 15.41 1.17 15.47 1.37 15.3 1.25 15.14 1.37 15.2 1.17 15.03 1.05 15.24 1.05 15.3 .86"/>
      <line class="cls-1" x1="17.96" y1="5.93" x2="19.11" y2="5.26"/>
      <polyline class="cls-1" points="17.96 6.01 17.89 5.97 17.92 5.85 19.06 5.18 19.18 5.21 19.15 5.33 18.01 6 17.96 6.01"/>
      <line class="cls-1" x1="21.13" y1="6.98" x2="20.11" y2="5.62"/>
      <polyline class="cls-1" points="21.13 7.07 21.06 7.03 20.04 5.68 20.06 5.55 20.19 5.57 21.21 6.92 21.19 7.05 21.13 7.07"/>
      <line class="cls-1" x1="21.78" y1="10.01" x2="21.6" y2="8.19"/>
      <polygon class="cls-1" points="21.78 10.1 21.69 10.02 21.52 8.2 21.6 8.1 21.69 8.18 21.87 10 21.79 10.1 21.78 10.1"/>
      <line class="cls-1" x1="19.26" y1="4.55" x2="18.27" y2="2.76"/>
      <polyline class="cls-1" points="19.25 4.64 19.18 4.59 18.19 2.8 18.22 2.68 18.35 2.71 19.33 4.51 19.3 4.63 19.25 4.64"/>
      <line class="cls-1" x1="16.38" y1="1.68" x2="17.36" y2="1.95"/>
      <polyline class="cls-1" points="17.36 2.04 17.33 2.04 16.35 1.77 16.29 1.66 16.4 1.6 17.38 1.87 17.44 1.98 17.36 2.04"/>
      <line class="cls-1" x1="20.03" y1="4.72" x2="22.02" y2="2.65"/>
      <polyline class="cls-1" points="20.03 4.8 19.97 4.78 19.96 4.65 21.95 2.59 22.08 2.59 22.08 2.71 20.09 4.78 20.03 4.8"/>
      <line class="cls-1" x1="22.55" y1="2.06" x2="23.76" y2=".91"/>
      <polyline class="cls-1" points="22.55 2.15 22.48 2.12 22.49 2 23.7 .84 23.82 .85 23.82 .97 22.61 2.13 22.55 2.15"/>
      <line class="cls-1" x1="15.74" y1="1.41" x2="15.6" y2="1.31"/>
      <polyline class="cls-1" points="15.74 1.5 15.69 1.49 15.55 1.39 15.53 1.26 15.65 1.24 15.79 1.34 15.81 1.47 15.74 1.5"/>
    </g>
  </g>
</svg>