<?xml version="1.0" encoding="UTF-8"?>
<svg id="_レイヤー_2" data-name="レイヤー 2" xmlns="http://www.w3.org/2000/svg" viewBox="0 0 90.24 34.62">
  <defs>
    <style>
      .cls-1 {
        fill: #9b8c64;
      }
    </style>
  </defs>
  <g id="_レイヤー_1-2" data-name="レイヤー 1">
    <g>
      <path class="cls-1" d="M52.33,10.12c.46-1.74.23-3.57-.67-5.14-.28-.5-.63-.96-1.03-1.36-.09-.1-.24-.12-.36-.05-.09.05-.15.15-.15.26v.08c.16.55.23,1.1.23,1.64,0,1.1-.29,2.17-.83,3.1.17-.6.27-1.23.27-1.89,0-3.73-3.02-6.77-6.72-6.77-.57,0-1.14.07-1.69.21-.13.03-.22.15-.22.29,0,.13.09.25.22.29,2.7.71,4.59,3.16,4.59,5.98,0,1.98-.94,3.78-2.43,4.92-.58-.07-1.16-.21-1.7-.44-.24-.54-.4-1.12-.47-1.71.81-1.11,1.99-1.95,3.4-2.32.13-.03.22-.15.22-.29s-.09-.25-.22-.28c-.56-.14-1.13-.22-1.69-.22-3.71,0-6.72,3.04-6.72,6.77s3.01,6.77,6.72,6.77c.57,0,1.14-.07,1.69-.22.13-.03.22-.15.22-.29s-.09-.25-.22-.29c-1.64-.43-2.97-1.5-3.78-2.9.43.45.92.85,1.49,1.18,1.55.9,3.37,1.15,5.1.68,1.73-.47,3.18-1.59,4.08-3.15.28-.5.51-1.03.66-1.58.04-.13-.02-.27-.14-.33-.11-.07-.26-.05-.35.05-1.18,1.21-2.77,1.84-4.38,1.84.61-.15,1.2-.39,1.75-.71,1.56-.9,2.67-2.36,3.13-4.11M46.56,6.77c0-2.68-1.57-5.06-3.92-6.15.14-.01.29-.03.43-.03,3.38,0,6.14,2.77,6.14,6.18,0,3.4-2.76,6.18-6.14,6.18-.15,0-.29-.02-.43-.03,2.36-1.09,3.92-3.47,3.92-6.15M41.48,12.72c-.36-.37-.69-.79-.95-1.26-.07-.13-.13-.26-.19-.39.76.54,1.61.91,2.49,1.1-.42.23-.87.42-1.34.55M39.93,9.96c.13-.5.33-.99.6-1.46.08-.13.17-.25.25-.38-.02.22-.04.43-.04.65,0,.71.11,1.41.33,2.08-.41-.25-.79-.54-1.14-.89M43.51,7.05c-.84.39-1.58.95-2.18,1.62,0-.48.07-.96.19-1.44.5-.13,1.02-.21,1.56-.21.15,0,.29.02.43.03M43.51,19.35c-.15.01-.29.03-.44.03-3.38,0-6.13-2.77-6.13-6.18,0-2.43,1.4-4.53,3.43-5.54-.13.18-.25.36-.36.55-1.1,1.93-1.16,4.18-.34,6.08.36,2.22,1.8,4.13,3.83,5.06M51.15,14.68c-.82,1.43-2.14,2.45-3.72,2.88-1.58.43-3.24.21-4.66-.62-1.96-1.14-3.06-3.22-3.06-5.36,0-.14,0-.27.02-.41.09.2.18.39.29.58.9,1.57,2.35,2.69,4.08,3.15.33.09.66.15.99.19,2.09.79,4.44.48,6.26-.82-.06.13-.12.27-.2.4M44.25,14.34c-.67-.18-1.28-.47-1.84-.84.22.02.44.04.66.04,2.21,0,4.17-1.08,5.4-2.74,1.57-1.29,2.47-3.23,2.47-5.24,0-.21-.02-.43-.04-.64.08.12.17.25.25.38.55.95.83,2.01.83,3.08,0,.54-.07,1.07-.21,1.6-.42,1.59-1.44,2.93-2.86,3.75-1.42.83-3.07,1.04-4.66.62"/>
      <path class="cls-1" d="M4.31,26.85c0-.6-.04-.68-.33-.76l-.25-.02-.06-.04.12-.06c.33,0,.79.02.83.02s.5-.02.72-.02l.12.06-.06.04-.18.02c-.2.04-.26.16-.27.42-.01.24-.01.46-.01.77v.82c0,.33,0,.35-.09.4-.47.25-1.13.33-1.55.33-.56,0-1.59-.07-2.41-.79-.45-.39-.87-1.18-.87-2.1,0-1.18.57-2.01,1.22-2.42.66-.41,1.38-.46,1.95-.46.46,0,.98.1,1.12.12.15.04.41.07.59.07l.09.07c0,.1-.05.31-.05,1.05,0,.12-.01.16-.07.16l-.05-.11c0-.1-.04-.31-.15-.49-.18-.28-.77-.6-1.72-.6-.46,0-1.01.04-1.56.49-.42.34-.72,1.01-.72,1.87,0,1.04.52,1.79.78,2.04.58.57,1.24.79,1.92.79.26,0,.64-.04.83-.15.09-.05.15-.13.15-.26v-1.25Z"/>
      <path class="cls-1" d="M7.57,24.62c.07-.18.1-.21.14-.21.06,0,.08.08.14.2.1.24,1.02,2.53,1.37,3.38.21.5.37.57.49.61l.23.03.07.05-.13.05c-.09,0-.51,0-.9-.01-.11,0-.2,0-.2-.04l.04-.04s.09-.06.05-.15l-.51-1.28-.05-.03h-1.32l-.06.05-.33.89c-.05.14-.08.28-.08.37,0,.11.1.15.2.15h.05l.06.05-.09.05c-.14,0-.45-.02-.51-.02-.06,0-.34.02-.58.02l-.11-.05.05-.05h.17c.26-.05.37-.24.48-.52l1.35-3.48ZM8.21,26.94l.02-.04-.57-1.52h-.1l-.53,1.52.02.04h1.16Z"/>
      <path class="cls-1" d="M10.62,26.12c0-.86,0-1.02-.01-1.2-.01-.19-.05-.28-.23-.31h-.2s-.05-.06-.05-.06l.09-.05c.26,0,.64.01.68.01.06,0,.54-.01.72-.01.36,0,.77.03,1.07.24.14.1.4.37.4.76,0,.41-.17.81-.7,1.27.47.59.86,1.09,1.2,1.44.31.31.49.37.64.39.11.02.17.02.2.02l.05.05s-.03.05-.14.05h-.36c-.33,0-.47-.03-.61-.11-.25-.13-.45-.4-.78-.82-.24-.3-.49-.66-.62-.81l-.08-.03h-.73s-.04.03-.04.03v.13c0,.54,0,.97.03,1.2.02.16.05.27.23.29l.25.03.05.05-.09.05c-.31,0-.68-.02-.7-.02,0,0-.39.02-.57.02l-.09-.05.05-.05.18-.03c.11-.03.12-.13.15-.29.03-.23.03-.67.03-1.2v-.98ZM11.12,26.6l.04.07c.09.05.38.09.63.09.14,0,.29,0,.43-.1.19-.13.34-.43.34-.85,0-.69-.38-1.09-.99-1.09-.17,0-.35.02-.41.03l-.04.07v1.79Z"/>
      <path class="cls-1" d="M14.86,26.12c0-.86,0-1.02-.01-1.2-.01-.19-.05-.28-.23-.31h-.2s-.04-.06-.04-.06l.09-.05c.26,0,.63.01.66.01.07,0,.43-.01.77-.01.57,0,1.62-.05,2.29.64.29.29.56.75.56,1.41,0,.7-.3,1.24-.62,1.56-.25.26-.76.64-1.73.64-.25,0-.55-.02-.8-.03-.25-.02-.44-.03-.47-.03-.01,0-.12,0-.23,0-.12,0-.25.01-.35.01l-.09-.05.05-.05.17-.03c.11-.03.12-.13.15-.29.03-.23.03-.67.03-1.2v-.98ZM15.38,26.73c0,.59,0,1.11,0,1.21,0,.14.02.34.07.4.07.1.27.22.95.22.53,0,1-.18,1.34-.5.3-.28.45-.81.45-1.32,0-.71-.3-1.16-.54-1.4-.54-.55-1.17-.62-1.85-.62-.11,0-.29.02-.34.04l-.07.11v1.86Z"/>
      <path class="cls-1" d="M19.41,26.12c0-.86,0-1.02-.01-1.2-.01-.19-.04-.28-.23-.31h-.19s-.05-.06-.05-.06l.09-.05c.26,0,.63.01.66.01.04,0,1.23,0,1.36,0,.11,0,.21-.03.26-.03l.08-.03.03.05s-.03.11-.05.26l-.03.37-.05.06-.04-.07-.03-.2c-.04-.09-.1-.13-.41-.17-.1-.01-.76-.02-.82-.02l-.03.06v1.51l.03.06c.07,0,.82,0,.95-.01.14-.01.22-.02.28-.08l.08-.07.03.05s-.03.12-.04.31c-.01.11-.03.32-.03.36l-.05.1-.04-.05-.02-.18c-.02-.08-.07-.14-.29-.17-.16-.02-.77-.03-.86-.03l-.04.04v.46c0,.19,0,.84,0,.95.01.37.12.45.68.45.15,0,.42,0,.57-.06.15-.07.23-.16.26-.39l.06-.08.04.08s-.05.42-.08.54c-.04.14-.1.14-.32.14-.43,0-.76-.01-.99-.02-.24-.01-.39-.01-.47-.01-.01,0-.12,0-.25,0-.11,0-.24.01-.33.01l-.09-.04.05-.05.18-.03c.11-.02.12-.13.15-.29.03-.23.03-.67.03-1.21v-.98Z"/>
      <path class="cls-1" d="M22.71,27.96c.01.46.07.6.22.64.1.03.23.03.29.03l.05.05-.11.05c-.32,0-.55-.02-.6-.02s-.29.02-.55.02l-.09-.05.05-.05.23-.03c.14-.04.16-.19.16-.69v-3.19c0-.22.03-.28.08-.28l.22.17c.09.09.92.98,1.81,1.9.57.59,1.18,1.25,1.35,1.43l-.06-2.79c0-.36-.04-.48-.21-.52-.1-.02-.23-.03-.28-.03l-.05-.05.11-.04c.26,0,.53.01.6.01s.25-.01.49-.01l.1.04-.07.05h-.14c-.19.05-.2.16-.2.5v3.26c-.01.37-.02.4-.06.4-.06,0-.12-.05-.44-.34-.06-.05-.88-.87-1.49-1.51-.66-.7-1.31-1.38-1.48-1.58l.06,2.62Z"/>
      <path class="cls-1" d="M31.98,26.59c0,.71,0,1.29.04,1.6.02.21.07.38.29.4.1.01.26.03.33.03l.06.04-.12.06c-.4,0-.86-.02-.9-.02s-.5.02-.72.02l-.12-.06.06-.04.22-.03c.15-.03.18-.19.21-.4.04-.31.04-.89.04-1.6v-3.11l-1.08.02c-.45,0-.63.06-.75.24-.08.12-.1.18-.12.23l-.07.07-.04-.07.16-.77.07-.14c.05,0,.12.07.32.09.21.02.49.04.58.04h2.74c.23,0,.4-.01.52-.04.11-.01.18-.04.2-.04l.04.09c0,.22-.02.73-.02.81l-.05.1s-.05-.02-.06-.12v-.08c-.03-.22-.21-.39-.91-.4l-.92-.02v3.11Z"/>
      <path class="cls-1" d="M35.04,26.12c0-.86,0-1.02-.01-1.2-.01-.19-.05-.28-.23-.31h-.19s-.05-.06-.05-.06l.09-.05c.26,0,.63.01.66.01.04,0,1.23,0,1.36,0,.11,0,.21-.03.26-.03l.08-.03.03.05s-.03.11-.05.26l-.03.37-.05.06-.05-.07-.03-.2c-.04-.09-.1-.13-.41-.17-.1-.01-.76-.02-.82-.02l-.03.06v1.51l.03.06c.07,0,.82,0,.95-.01.14-.01.22-.02.28-.08l.08-.07.03.05s-.03.12-.04.31c-.01.11-.03.32-.03.36l-.05.1-.04-.05-.03-.18c-.02-.08-.07-.14-.29-.17-.16-.02-.77-.03-.86-.03l-.04.04v.46c0,.19,0,.84,0,.95.01.37.12.45.68.45.15,0,.42,0,.57-.06.15-.07.23-.16.26-.39l.06-.08.04.08s-.05.42-.08.54c-.04.14-.1.14-.32.14-.43,0-.76-.01-.99-.02-.24-.01-.39-.01-.47-.01-.01,0-.12,0-.25,0-.11,0-.24.01-.33.01l-.09-.04.05-.05.18-.03c.11-.02.12-.13.15-.29.03-.23.03-.67.03-1.21v-.98Z"/>
      <path class="cls-1" d="M38.36,26.12c0-.86,0-1.02-.01-1.2-.01-.19-.05-.28-.23-.31h-.2s-.04-.06-.04-.06l.09-.05c.26,0,.64.01.68.01.06,0,.54-.01.72-.01.36,0,.77.03,1.07.24.14.1.4.37.4.76,0,.41-.17.81-.7,1.27.47.59.86,1.09,1.2,1.44.31.31.49.37.64.39.11.02.17.02.2.02l.05.05s-.03.05-.14.05h-.36c-.33,0-.47-.03-.61-.11-.25-.13-.45-.4-.78-.82-.24-.3-.49-.66-.62-.81l-.08-.03h-.73s-.04.03-.04.03v.13c0,.54,0,.97.03,1.2.02.16.05.27.23.29l.25.03.05.05-.09.05c-.31,0-.68-.02-.7-.02,0,0-.39.02-.57.02l-.09-.05.05-.05.17-.03c.11-.03.12-.13.15-.29.03-.23.03-.67.03-1.2v-.98ZM38.85,26.6l.04.07c.09.05.38.09.63.09.14,0,.29,0,.43-.1.2-.13.34-.43.34-.85,0-.69-.38-1.09-.99-1.09-.17,0-.35.02-.41.03l-.05.07v1.79Z"/>
      <path class="cls-1" d="M42.47,26.12c0-.86,0-1.02-.01-1.2-.01-.19-.05-.28-.23-.31h-.19s-.05-.06-.05-.06l.09-.05c.26,0,.64.01.68.01.06,0,.54-.01.72-.01.36,0,.77.03,1.07.24.14.1.4.37.4.76,0,.41-.17.81-.7,1.27.47.59.87,1.09,1.2,1.44.31.31.49.37.64.39.11.02.17.02.2.02l.05.05s-.03.05-.14.05h-.36c-.33,0-.47-.03-.61-.11-.25-.13-.45-.4-.78-.82-.24-.3-.49-.66-.62-.81l-.08-.03h-.73s-.04.03-.04.03v.13c0,.54,0,.97.03,1.2.02.16.05.27.23.29l.25.03.05.05-.09.05c-.31,0-.68-.02-.7-.02,0,0-.39.02-.56.02l-.09-.05.05-.05.18-.03c.11-.03.12-.13.15-.29.03-.23.03-.67.03-1.2v-.98ZM42.96,26.6l.04.07c.08.05.38.09.63.09.14,0,.29,0,.43-.1.19-.13.35-.43.35-.85,0-.69-.38-1.09-.99-1.09-.17,0-.35.02-.41.03l-.04.07v1.79Z"/>
      <path class="cls-1" d="M47.48,24.62c.07-.18.1-.21.14-.21.06,0,.08.08.14.2.1.24,1.02,2.53,1.37,3.38.21.5.36.57.49.61l.23.03.07.05-.13.05c-.08,0-.51,0-.9-.01-.11,0-.2,0-.2-.04l.04-.04s.09-.06.05-.15l-.51-1.28-.05-.03h-1.32l-.06.05-.33.89c-.05.14-.09.28-.09.37,0,.11.1.15.2.15h.05l.06.05-.09.05c-.14,0-.45-.02-.51-.02-.06,0-.34.02-.58.02l-.11-.05.05-.05h.17c.26-.05.37-.24.48-.52l1.35-3.48ZM48.12,26.94l.02-.04-.57-1.52h-.1l-.53,1.52.02.04h1.16Z"/>
      <path class="cls-1" d="M50.19,28.2c-.56-.48-.7-1.12-.7-1.65,0-.37.14-1.02.64-1.52.34-.33.86-.6,1.74-.6.23,0,.55.02.83.07.22.04.4.08.59.08l.07.06s-.01.11-.03.31c0,.18,0,.49-.01.57l-.06.12-.05-.12c0-.22-.09-.44-.24-.56-.2-.17-.62-.31-1.12-.31-.73,0-1.09.2-1.29.39-.42.39-.51.89-.51,1.45,0,1.07.84,2.02,2.06,2.02.43,0,.72-.03.94-.26.12-.12.2-.36.22-.47l.06-.08.05.08s-.08.52-.14.71c-.03.1-.05.12-.14.16-.23.09-.66.12-1.03.12-.86,0-1.44-.2-1.89-.6"/>
      <path class="cls-1" d="M54.36,26.12c0-.86,0-1.02-.01-1.2-.01-.19-.04-.28-.23-.31h-.2s-.05-.06-.05-.06l.09-.05c.26,0,.63.01.66.01.04,0,1.24,0,1.36,0,.11,0,.22-.03.26-.03l.08-.03.03.05s-.03.11-.05.26l-.03.37-.05.06-.04-.07-.03-.2c-.04-.09-.1-.13-.41-.17-.1-.01-.76-.02-.83-.02l-.03.06v1.51l.03.06c.07,0,.83,0,.96-.01.14-.01.22-.02.28-.08l.09-.07.03.05s-.03.12-.05.31c-.01.11-.03.32-.03.36l-.05.1-.04-.05-.02-.18c-.02-.08-.07-.14-.29-.17-.16-.02-.77-.03-.86-.03l-.04.04v.46c0,.19,0,.84,0,.95.01.37.12.45.68.45.15,0,.42,0,.57-.06.15-.07.23-.16.26-.39l.06-.08.04.08s-.05.42-.08.54c-.04.14-.1.14-.32.14-.43,0-.76-.01-.99-.02-.24-.01-.39-.01-.47-.01-.01,0-.12,0-.25,0-.11,0-.24.01-.33.01l-.09-.04.04-.05.18-.03c.11-.02.12-.13.15-.29.03-.23.03-.67.03-1.21v-.98Z"/>
      <path class="cls-1" d="M60.48,25.3c0-1.15,0-1.35-.02-1.59-.01-.25-.07-.37-.31-.42l-.25-.02-.06-.04.12-.06c.17,0,.37,0,.53,0h.3c.15,0,1.63.02,1.8,0,.14,0,.26,0,.32-.03l.1-.04.04.07c0,.05-.04.14-.06.35l-.04.49-.06.08-.05-.09c0-.06-.02-.18-.07-.28-.04-.1-.21-.23-.5-.24l-1.13-.02-.07.08v2.03l.05.07h.94c.12,0,.23,0,.33-.01.18-.02.27-.04.34-.13l.08-.07.04.06s-.04.17-.06.41c-.01.15-.03.44-.03.49l-.05.14-.05-.07-.04-.27c-.04-.1-.15-.24-.38-.27-.18-.02-.98-.02-1.1-.02l-.05.07v.63c0,.71,0,1.29.04,1.6.02.21.07.38.28.4.1.01.26.03.33.03l.06.04-.12.06c-.4,0-.86-.02-.9-.02s-.5.02-.72.02l-.12-.06.06-.04.22-.03c.15-.03.18-.19.21-.4.04-.31.04-.89.04-1.6v-1.3Z"/>
      <path class="cls-1" d="M64.07,26.12c0-.86,0-1.02-.01-1.2-.01-.18-.05-.28-.23-.31h-.2s-.05-.06-.05-.06l.09-.05c.26,0,.6.01.66.01s.41-.01.58-.01l.1.05-.05.05h-.14c-.15.04-.18.14-.2.32-.01.18-.01.33-.01,1.2v.78c0,.81.17,1.14.42,1.36.28.26.53.3.85.3.35,0,.69-.16.89-.39.27-.32.32-.78.32-1.35v-.7c0-.86,0-1.02-.01-1.2,0-.18-.04-.28-.23-.31h-.19s-.05-.06-.05-.06l.09-.05c.25,0,.59.01.62.01.04,0,.31-.01.48-.01l.09.05-.05.05h-.14c-.16.05-.19.14-.2.32-.01.18,0,.33,0,1.2v.6c0,.6-.08,1.28-.53,1.67-.42.36-.86.41-1.2.41-.19,0-.79-.01-1.19-.39-.28-.26-.5-.65-.5-1.46v-.82Z"/>
      <path class="cls-1" d="M68.99,26.12c0-.86,0-1.02-.01-1.2-.01-.19-.04-.28-.23-.31h-.19s-.05-.06-.05-.06l.09-.05c.26,0,.61.01.64.01.05,0,.4-.01.57-.01l.09.05-.05.05h-.14c-.15.05-.19.12-.2.32-.01.18-.01.33-.01,1.2v.33h.03c.09-.11,1.11-1.12,1.32-1.34.16-.16.31-.31.31-.4l-.07-.11-.05-.05.07-.04c.12,0,.29.01.43.01.03,0,.41-.01.55-.01l.08.04-.06.05c-.09,0-.21.03-.32.08-.23.1-.35.23-.6.47-.14.13-1.12,1.07-1.24,1.21.15.16,1.34,1.36,1.57,1.58.48.43.55.51.82.62.15.06.31.08.35.08l.07.05s-.03.04-.12.04h-.29c-.16,0-.27,0-.4-.01-.3-.03-.45-.15-.7-.34-.26-.2-1.46-1.48-1.74-1.81h-.03v.54c0,.54,0,.97.03,1.21.02.16.04.27.22.29l.22.03.05.05-.09.04c-.28,0-.62-.02-.67-.02s-.39.02-.57.02l-.09-.04.05-.05.18-.03c.11-.03.12-.13.15-.29.03-.23.03-.67.03-1.21v-.98Z"/>
      <path class="cls-1" d="M72.9,26.12c0-.86,0-1.02-.01-1.2-.01-.18-.05-.28-.23-.31h-.2s-.05-.06-.05-.06l.09-.05c.26,0,.6.01.66.01s.41-.01.58-.01l.1.05-.05.05h-.14c-.15.04-.18.14-.2.32-.01.18-.01.33-.01,1.2v.78c0,.81.17,1.14.42,1.36.28.26.53.3.85.3.35,0,.69-.16.89-.39.27-.32.32-.78.32-1.35v-.7c0-.86,0-1.02-.01-1.2,0-.18-.04-.28-.23-.31h-.19s-.05-.06-.05-.06l.09-.05c.25,0,.59.01.62.01.04,0,.31-.01.48-.01l.09.05-.05.05h-.14c-.16.05-.19.14-.2.32-.01.18,0,.33,0,1.2v.6c0,.6-.08,1.28-.53,1.67-.42.36-.86.41-1.2.41-.19,0-.79-.01-1.19-.39-.28-.26-.5-.65-.5-1.46v-.82Z"/>
      <path class="cls-1" d="M79.44,24.44c1.29,0,2.26.79,2.26,2.09s-.92,2.27-2.29,2.27c-1.57,0-2.24-1.18-2.24-2.19,0-.9.69-2.17,2.27-2.17M79.57,28.57c.51,0,1.55-.27,1.55-1.89,0-1.33-.81-2.04-1.71-2.04-.96,0-1.64.6-1.64,1.81,0,1.3.77,2.11,1.81,2.11"/>
      <path class="cls-1" d="M82.77,26.12c0-.86,0-1.02-.01-1.2-.01-.19-.05-.28-.23-.31h-.2s-.05-.06-.05-.06l.09-.05c.26,0,.61.01.64.01.05,0,.4-.01.57-.01l.09.05-.05.05h-.14c-.15.05-.19.12-.2.32-.01.18-.01.33-.01,1.2v.33h.03c.09-.11,1.11-1.12,1.33-1.34.16-.16.31-.31.31-.4l-.07-.11-.05-.05.07-.04c.12,0,.29.01.43.01.03,0,.41-.01.55-.01l.08.04-.06.05c-.08,0-.21.03-.32.08-.23.1-.34.23-.6.47-.14.13-1.12,1.07-1.24,1.21.15.16,1.34,1.36,1.57,1.58.48.43.54.51.82.62.15.06.31.08.35.08l.07.05s-.03.04-.12.04h-.29c-.16,0-.27,0-.4-.01-.3-.03-.45-.15-.69-.34-.26-.2-1.46-1.48-1.74-1.81h-.03v.54c0,.54,0,.97.03,1.21.02.16.04.27.22.29l.22.03.05.05-.09.04c-.28,0-.62-.02-.67-.02s-.39.02-.57.02l-.09-.04.04-.05.18-.03c.11-.03.12-.13.15-.29.03-.23.03-.67.03-1.21v-.98Z"/>
      <path class="cls-1" d="M87.81,24.62c.07-.18.1-.21.14-.21.06,0,.08.08.14.2.1.24,1.02,2.53,1.37,3.38.21.5.36.57.49.61l.23.03.07.05-.13.05c-.08,0-.51,0-.9-.01-.11,0-.2,0-.2-.04l.04-.04s.09-.06.05-.15l-.51-1.28-.05-.03h-1.32l-.06.05-.33.89c-.05.14-.09.28-.09.37,0,.11.1.15.2.15h.05l.06.05-.09.05c-.14,0-.45-.02-.51-.02-.06,0-.34.02-.58.02l-.11-.05.05-.05h.17c.26-.05.37-.24.48-.52l1.35-3.48ZM88.44,26.94l.02-.04-.57-1.52h-.1l-.53,1.52.02.04h1.16Z"/>
      <path class="cls-1" d="M31.69,33.38c0,.4,0,.72.02.89.01.12.04.21.16.22l.18.02.03.03-.07.03c-.22,0-.48-.01-.5-.01s-.28.01-.4.01l-.07-.03.03-.03.12-.02c.08-.02.1-.11.12-.22.02-.17.02-.5.02-.89v-.43l-.03-.03h-1.73l-.02.03v.43c0,.4,0,.72.02.89.01.12.04.21.16.22l.18.02.03.03-.07.03c-.22,0-.48-.01-.5-.01s-.28.01-.4.01l-.07-.03.03-.03.12-.02c.08-.02.1-.11.12-.22.02-.17.02-.5.02-.89v-.72c0-.64,0-.76,0-.89,0-.14-.04-.21-.18-.23h-.14s-.03-.04-.03-.04l.07-.03c.18,0,.44.01.46.01s.28-.01.4-.01l.07.03-.03.03h-.1c-.11.03-.14.1-.15.25,0,.13,0,.25,0,.89v.09l.02.02h1.73l.03-.02v-.09c0-.64,0-.76,0-.89,0-.14-.04-.21-.18-.23h-.14s-.03-.04-.03-.04l.07-.03c.18,0,.44.01.46.01s.28-.01.4-.01l.06.03-.03.03h-.1c-.11.03-.14.1-.15.25,0,.13,0,.25,0,.89v.72Z"/>
      <path class="cls-1" d="M33.75,32.31c.66,0,1.15.42,1.15,1.1s-.46,1.2-1.16,1.2c-.8,0-1.13-.63-1.13-1.16,0-.48.34-1.15,1.15-1.15M33.81,34.5c.26,0,.81-.15.81-1.01,0-.7-.43-1.08-.89-1.08-.49,0-.85.32-.85.97,0,.68.41,1.13.93,1.13"/>
      <path class="cls-1" d="M36.15,33.72c0,.28,0,.52.02.64l.11.16h.13s.02.03.02.03l-.05.02c-.16,0-.34,0-.36,0h-.29s-.05-.01-.05-.01l.02-.02h.09s.09-.17.09-.17c.02-.12.02-.36.02-.64v-1.24h-.43c-.18,0-.25.03-.3.1l-.05.09-.03.03v-.03s.05-.3.05-.3l.03-.06.13.03.23.02h1.1c.09,0,.16,0,.21-.02h.08s.02.02.02.02v.32s-.03.04-.03.04l-.02-.05v-.03c-.01-.09-.08-.16-.36-.16h-.37s0,1.24,0,1.24Z"/>
      <path class="cls-1" d="M37.54,33.2c0-.46,0-.54,0-.64,0-.1-.03-.15-.12-.17h-.1s-.02-.03-.02-.03l.05-.02h.21s.12,0,.12,0h.67s.13-.02.13-.02h.04s.01.01.01.01l-.02.14v.2s-.04.03-.04.03l-.02-.04-.02-.11s-.05-.08-.21-.1h-.4s-.02.02-.02.02v.81l.02.03h.46s.14-.05.14-.05l.04-.04v.02s0,.07,0,.16v.19s-.03.05-.03.05l-.02-.03v-.1s-.05-.09-.16-.1l-.42-.02-.02.02v.26c0,.1,0,.44,0,.5,0,.2.05.24.34.24l.28-.03c.08-.03.11-.09.13-.21l.03-.04.02.04-.04.29c-.02.08-.05.08-.16.08-.22,0-.38,0-.49,0-.11,0-.18,0-.23,0h-.12s-.17,0-.17,0l-.05-.02.02-.02h.09s.08-.17.08-.17c.02-.12.02-.36.02-.64v-.52Z"/>
      <path class="cls-1" d="M39.57,33.73c0,.43.01.62.07.67.05.05.12.07.35.07.15,0,.28,0,.35-.09l.08-.18.03-.04.02.04-.04.29c-.02.07-.03.08-.18.08-.21,0-.36,0-.48,0-.12,0-.21,0-.3,0h-.12s-.17,0-.17,0l-.05-.02.02-.02h.09s.08-.17.08-.17c.02-.12.02-.35.02-.64v-.52c0-.46,0-.54,0-.63,0-.1-.03-.15-.12-.17h-.1s-.02-.03-.02-.03l.05-.02c.13,0,.32,0,.33,0h.32s.05.01.05.01l-.02.02h-.1c-.08.02-.11.07-.11.18,0,.09,0,.18,0,.63v.52Z"/>
      <path class="cls-1" d="M40.87,34.54l-.04-.11c0-.15.01-.27.01-.31l.02-.05.02.03v.11c.05.22.24.3.44.3.28,0,.42-.2.42-.39,0-.2-.08-.32-.34-.53l-.13-.11c-.31-.26-.38-.44-.38-.64,0-.32.23-.53.6-.53.11,0,.2.01.27.03h.1s.03.03.03.03c0,.01-.01.11-.01.31l-.02.07-.02-.04-.04-.15s-.1-.16-.36-.16c-.2,0-.36.13-.36.34,0,.17.08.27.36.49l.08.07c.34.27.43.46.43.69,0,.12-.05.34-.25.49-.12.09-.28.12-.44.12-.14,0-.27-.02-.39-.08"/>
      <path class="cls-1" d="M43.29,33.97c0-.35.22-.57.45-.71-.11-.15-.14-.27-.14-.41,0-.23.24-.54.63-.54.15,0,.28.03.35.07l.04.07-.02.34-.03.05-.02-.06-.09-.25c-.07-.07-.17-.13-.29-.13-.18,0-.37.11-.37.39,0,.23.16.42.46.75.1.11.46.45.55.53.08-.11.15-.31.15-.49l-.06-.14-.14-.05-.04-.02.05-.02c.07,0,.19,0,.35.02l.05.06c0,.24-.16.53-.29.69.19.16.32.24.4.29.09.05.24.11.35.11l.04.02-.05.02h-.29c-.22,0-.29-.02-.61-.28-.07.07-.3.32-.73.32-.51,0-.71-.39-.71-.65M44.66,34.24c-.16-.14-.45-.41-.53-.5-.08-.08-.26-.29-.35-.41-.15.1-.26.26-.26.49,0,.37.26.63.58.63.27,0,.45-.11.55-.22"/>
      <path class="cls-1" d="M47.08,32.66c0-.64,0-.76,0-.89,0-.14-.04-.21-.17-.23h-.14s-.03-.04-.03-.04l.07-.03c.18,0,.44.01.46.01.04,0,.36-.01.48-.01.26,0,.53.02.75.18.1.07.28.27.28.56,0,.3-.13.61-.49.95.34.43.61.8.85,1.05.22.23.4.28.5.3h.16s.04.04.04.04l-.1.03h-.29c-.23,0-.33-.02-.44-.08-.18-.09-.32-.3-.55-.6-.17-.23-.36-.5-.45-.61l-.05-.03h-.5s-.03.03-.03.03v.1c0,.4,0,.72.02.89.01.12.04.21.16.23l.18.02.03.02-.07.03c-.22,0-.48-.01-.5-.01,0,0-.26.01-.38.01l-.07-.03.03-.02.12-.02c.08-.02.1-.11.12-.23.02-.17.02-.5.02-.89v-.72ZM47.41,33.02l.03.05c.06.04.25.07.43.07.1,0,.21-.01.31-.08.14-.1.25-.32.25-.63,0-.52-.27-.82-.71-.82-.12,0-.23.01-.27.03l-.03.05v1.35Z"/>
      <path class="cls-1" d="M49.96,33.2c0-.46,0-.54,0-.64,0-.1-.03-.15-.12-.17h-.1s-.02-.03-.02-.03l.05-.02h.21s.12,0,.12,0h.67s.13-.02.13-.02h.04s.01.01.01.01l-.02.14v.2s-.04.03-.04.03l-.02-.04-.02-.11s-.05-.08-.21-.1h-.4s-.02.02-.02.02v.81l.02.03h.46s.14-.05.14-.05l.04-.04v.02s0,.07,0,.16v.19s-.03.05-.03.05l-.02-.03v-.1s-.05-.09-.16-.1l-.42-.02-.02.02v.26c0,.1,0,.44,0,.5.01.2.05.24.34.24l.28-.03c.08-.03.11-.09.13-.21l.03-.04.02.04-.04.29c-.02.08-.04.08-.16.08-.22,0-.38,0-.49,0-.11,0-.18,0-.23,0h-.12s-.17,0-.17,0l-.05-.02.02-.02h.09s.08-.17.08-.17c.02-.12.02-.36.02-.64v-.52Z"/>
      <path class="cls-1" d="M51.55,34.54l-.04-.11c0-.15.01-.27.01-.31l.02-.05.02.03v.11c.05.22.24.3.44.3.28,0,.42-.2.42-.39,0-.2-.09-.32-.34-.53l-.13-.11c-.31-.26-.38-.44-.38-.64,0-.32.23-.53.6-.53.11,0,.2.01.27.03h.1s.03.03.03.03c0,.01-.01.11-.01.31l-.02.07-.02-.04-.04-.15s-.1-.16-.36-.16c-.2,0-.36.13-.36.34,0,.17.08.27.36.49l.08.07c.35.27.43.46.43.69,0,.12-.05.34-.25.49-.12.09-.28.12-.44.12-.14,0-.27-.02-.39-.08"/>
      <path class="cls-1" d="M54.22,32.31c.66,0,1.15.42,1.15,1.1s-.46,1.2-1.17,1.2c-.8,0-1.13-.63-1.13-1.16,0-.48.35-1.15,1.15-1.15M54.28,34.5c.26,0,.81-.15.81-1.01,0-.7-.43-1.08-.89-1.08-.49,0-.85.32-.85.97,0,.68.41,1.13.93,1.13"/>
      <path class="cls-1" d="M55.99,33.21c0-.46,0-.54,0-.64,0-.1-.03-.15-.12-.17h-.1s-.02-.03-.02-.03l.05-.02c.13,0,.32,0,.33,0h.34c.18,0,.38,0,.53.12.07.05.2.2.2.4,0,.22-.09.44-.35.68.24.31.44.57.61.75.16.17.28.2.36.21h.11s.02.03.02.03l-.07.02h-.21c-.16,0-.24-.02-.31-.06-.12-.07-.23-.21-.4-.43-.12-.16-.26-.36-.32-.43l-.04-.02h-.36s-.02.02-.02.02v.07c0,.28,0,.52.01.64l.11.16h.13s.02.03.02.03l-.05.02c-.16,0-.34,0-.36,0h-.28s-.05-.01-.05-.01l.02-.02h.09s.09-.17.09-.17c.02-.12.02-.35.02-.64v-.52ZM56.22,33.46l.02.04s.18.05.31.05l.22-.06c.1-.07.18-.23.18-.45,0-.37-.19-.59-.51-.59l-.2.02-.02.04v.96Z"/>
      <path class="cls-1" d="M58.66,33.72c0,.28,0,.52.02.64l.11.16h.13s.02.03.02.03l-.05.02c-.16,0-.34,0-.36,0h-.29s-.05-.01-.05-.01l.02-.02h.09s.08-.17.08-.17c.02-.12.02-.36.02-.64v-1.24h-.43c-.18,0-.25.03-.3.1l-.05.09-.03.03v-.03s.05-.3.05-.3l.03-.06.13.03.23.02h1.1c.09,0,.16,0,.21-.02h.08s.01.02.01.02v.32s-.03.04-.03.04l-.02-.05v-.03c-.01-.09-.08-.16-.36-.16h-.37s0,1.24,0,1.24Z"/>
      <path class="cls-1" d="M59.84,34.54l-.04-.11c0-.15.01-.27.01-.31l.02-.05.02.03v.11c.05.22.24.3.44.3.28,0,.42-.2.42-.39,0-.2-.09-.32-.34-.53l-.13-.11c-.31-.26-.38-.44-.38-.64,0-.32.23-.53.6-.53.11,0,.2.01.27.03h.1s.03.03.03.03c0,.01-.01.11-.01.31l-.02.07-.02-.04-.04-.15s-.1-.16-.36-.16c-.2,0-.36.13-.36.34,0,.17.08.27.36.49l.08.07c.34.27.43.46.43.69,0,.12-.05.34-.25.49-.12.09-.28.12-.44.12-.14,0-.27-.02-.39-.08"/>
    </g>
  </g>
</svg>