<?xml version="1.0" encoding="UTF-8"?>
<svg id="_レイヤー_2" data-name="レイヤー 2" xmlns="http://www.w3.org/2000/svg" viewBox="0 0 61.86 35.55">
  <defs>
    <style>
      .cls-1 {
        fill: #9b8c64;
      }
    </style>
  </defs>
  <g id="_レイヤー_1-2" data-name="レイヤー 1">
    <g>
      <path class="cls-1" d="M5.59,22.83c0,.5.1.81.25.97h-1.72c.13-.17.25-.48.25-.97v-2.09H1.47v2.09c0,.5.1.81.25.97H0c.13-.17.25-.48.25-.97v-4.78c0-.5-.11-.81-.25-.97h1.72c-.14.17-.25.48-.25.97v1.81h2.91v-1.81c0-.5-.11-.81-.25-.97h1.72c-.15.17-.25.48-.25.97v4.78Z"/>
      <path class="cls-1" d="M6.76,20.44c0-2.38,1.45-3.49,3.09-3.49s3.11,1.11,3.11,3.49-1.46,3.49-3.11,3.49-3.09-1.11-3.09-3.49M11.62,20.44c0-1.82-.68-2.65-1.77-2.65s-1.75.83-1.75,2.65.67,2.65,1.75,2.65,1.77-.83,1.77-2.65"/>
      <path class="cls-1" d="M18.87,16.93v1.56c-.19-.3-.54-.61-1.12-.61h-.96v4.95c0,.5.1.81.25.97h-1.72c.13-.16.25-.47.25-.97v-4.95h-.96c-.58,0-.93.31-1.13.61v-1.56c.17.12.78.14,1.13.14h3.15c.35,0,.95-.02,1.12-.14"/>
      <path class="cls-1" d="M24.41,22.31l-.18,1.63c-.16-.12-.69-.14-1.19-.14h-3.41c.13-.16.25-.48.25-.97v-4.78c0-.5-.11-.81-.25-.97h3.41c.35,0,.95-.02,1.12-.14v1.56c-.19-.3-.55-.61-1.12-.61h-1.94v2.08h1.4c.55,0,.78-.07.97-.26v1.47c-.15-.21-.43-.42-1.04-.42h-1.32v2.24h1.94c.57,0,1.14-.34,1.37-.68"/>
      <path class="cls-1" d="M30.03,22.24l-.18,1.71c-.16-.12-.69-.15-1.19-.15h-3.41c.13-.16.25-.47.25-.97v-4.78c0-.5-.11-.81-.25-.97h1.72c-.14.17-.25.48-.25.97v4.95h1.87c.64,0,1.21-.41,1.44-.76"/>
      <path class="cls-1" d="M37.88,16.93v1.56c-.19-.3-.55-.61-1.12-.61h-1.95v2.33h1.4c.55,0,.78-.07.98-.26v1.47c-.2-.21-.42-.42-.98-.42h-1.4v1.83c0,.5.1.81.25.97h-1.72c.13-.16.25-.47.25-.97v-4.78c0-.5-.11-.81-.25-.97h3.41c.35,0,.95-.02,1.12-.14"/>
      <path class="cls-1" d="M43.49,22.24l-.18,1.71c-.16-.12-.69-.15-1.19-.15h-3.41c.13-.16.25-.47.25-.97v-4.78c0-.5-.11-.81-.25-.97h1.72c-.14.17-.25.48-.25.97v4.95h1.87c.64,0,1.21-.41,1.44-.76"/>
      <path class="cls-1" d="M48.65,23.8c.11-.16.06-.42-.04-.73l-.28-.86h-2.42l-.27.85c-.08.27-.11.59,0,.74h-1.74c.2-.16.43-.39.59-.82l2.19-5.91.85-.21,2.39,6.11c.14.39.35.65.55.82h-1.83ZM48.08,21.46l-.96-2.95h-.05l-.93,2.95h1.94Z"/>
      <path class="cls-1" d="M56.21,20.36c-.15.16-.18.47-.18.83v3.14h-.04c-.27-.21-.61-.37-.95-.42v-.52c-.43.36-.99.55-1.58.55-1.42,0-2.95-1.11-2.95-3.49s1.45-3.49,3.09-3.49c1.19,0,1.85.45,2.27.48l-.1,1.69c-.44-.68-1.17-1.32-2.16-1.32-1.08,0-1.75.83-1.75,2.65,0,1.97.83,2.67,1.71,2.67.51,0,1.04-.25,1.41-.6v-1.45h-.54c-.55,0-.78.04-.97.11v-.93c.2.07.57.11.97.11h1.78Z"/>
      <path class="cls-1" d="M56.98,23l.64-1.07c.22.46.8,1.15,1.82,1.15.75,0,1.17-.43,1.17-.9,0-1.5-3.49-1.21-3.49-3.39,0-.94.85-1.84,2.3-1.84,1.25,0,1.85.6,2.2.59l-.13,1.36c-.44-.55-1.07-1.11-2.07-1.11-.68,0-1.06.4-1.06.86,0,1.43,3.51,1.22,3.51,3.42,0,.95-.89,1.85-2.42,1.85-1.05,0-1.97-.39-2.46-.92"/>
      <path class="cls-1" d="M8.54,30.96c0,.25.05.41.13.5h-.88c.07-.08.13-.24.13-.5v-2.44c0-.25-.06-.41-.13-.5h.88c-.07.08-.13.24-.13.5v2.44Z"/>
      <path class="cls-1" d="M9.13,31.05l.33-.54c.11.24.41.59.93.59.38,0,.6-.22.6-.46,0-.77-1.78-.62-1.78-1.73,0-.48.43-.94,1.17-.94.64,0,.95.31,1.12.3l-.07.69c-.23-.28-.54-.57-1.06-.57-.35,0-.54.21-.54.44,0,.73,1.79.62,1.79,1.75,0,.49-.46.95-1.24.95-.54,0-1.01-.2-1.26-.47"/>
      <path class="cls-1" d="M14.2,31.46c.06-.08.03-.22-.02-.38l-.14-.44h-1.24l-.14.43c-.04.14-.06.3,0,.38h-.89c.1-.08.22-.2.3-.42l1.12-3.02.43-.1,1.22,3.12c.08.2.18.33.28.42h-.94ZM13.91,30.27l-.49-1.51h-.03l-.48,1.51h.99Z"/>
      <path class="cls-1" d="M18.38,30.96c0,.25.05.41.13.5h-.88c.07-.08.13-.24.13-.5v-1.07h-1.49v1.07c0,.25.05.41.13.5h-.88c.07-.08.13-.24.13-.5v-2.44c0-.25-.06-.41-.13-.5h.88c-.07.08-.13.24-.13.5v.92h1.49v-.92c0-.25-.06-.41-.13-.5h.88c-.07.08-.13.24-.13.5v2.44Z"/>
      <path class="cls-1" d="M21.31,31.46c.06-.08.03-.22-.02-.38l-.14-.44h-1.24l-.14.43c-.04.14-.06.3,0,.38h-.89c.1-.08.22-.2.3-.42l1.12-3.02.43-.1,1.22,3.12c.07.2.18.33.28.42h-.94ZM21.02,30.27l-.49-1.51h-.03l-.47,1.51h.99Z"/>
      <path class="cls-1" d="M25.13,28.03c-.1.08-.22.23-.33.44l-.99,1.85v.64c0,.25.06.41.13.5h-.88c.07-.08.13-.24.13-.5v-.64l-1.02-1.86c-.12-.22-.21-.36-.31-.44h.94c-.06.08-.04.23.06.44l.67,1.35h.03l.65-1.34c.09-.19.11-.36.05-.44h.88Z"/>
      <path class="cls-1" d="M27.17,31.46c.06-.08.03-.22-.02-.38l-.14-.44h-1.24l-.14.43c-.04.14-.06.3,0,.38h-.89c.1-.08.22-.2.3-.42l1.12-3.02.43-.1,1.22,3.12c.07.2.18.33.28.42h-.93ZM26.88,30.27l-.49-1.51h-.03l-.48,1.51h.99Z"/>
      <path class="cls-1" d="M32.58,30.96c0,.25.05.41.13.5h-.58l-1.78-2.44h-.02c.07.17.1.33.1.59v1.35c0,.25.05.41.13.5h-.84c.07-.08.13-.24.13-.5v-2.44c0-.25-.06-.41-.13-.5h.58l1.78,2.44h0c-.07-.17-.09-.33-.09-.59v-1.35c0-.25-.06-.41-.13-.5h.84c-.07.08-.13.24-.13.5v2.44Z"/>
      <path class="cls-1" d="M35.51,31.46c.06-.08.03-.22-.02-.38l-.14-.44h-1.24l-.14.43c-.04.14-.06.3,0,.38h-.89c.1-.08.22-.2.3-.42l1.12-3.02.43-.1,1.22,3.12c.08.2.18.33.28.42h-.94ZM35.22,30.27l-.49-1.51h-.03l-.48,1.51h.99Z"/>
      <path class="cls-1" d="M39.41,29.7c-.08.08-.09.24-.09.42v1.6h-.02c-.14-.1-.31-.19-.49-.22v-.27c-.22.19-.51.28-.81.28-.72,0-1.51-.57-1.51-1.78s.74-1.78,1.58-1.78c.61,0,.94.23,1.16.24l-.05.86c-.22-.35-.6-.68-1.1-.68-.55,0-.9.42-.9,1.35,0,1,.42,1.36.87,1.36.26,0,.53-.13.72-.31v-.74h-.27c-.28,0-.4.02-.5.06v-.47c.1.04.29.06.5.06h.91Z"/>
      <path class="cls-1" d="M42.14,31.46c.06-.08.03-.22-.02-.38l-.14-.44h-1.24l-.14.43c-.04.14-.06.3,0,.38h-.89c.1-.08.22-.2.3-.42l1.12-3.02.43-.1,1.22,3.12c.07.2.18.33.28.42h-.94ZM41.85,30.27l-.49-1.51h-.03l-.48,1.51h.99Z"/>
      <path class="cls-1" d="M43.3,31.05l.33-.54c.11.24.41.59.93.59.38,0,.6-.22.6-.46,0-.77-1.78-.62-1.78-1.73,0-.48.43-.94,1.17-.94.64,0,.95.31,1.12.3l-.07.69c-.23-.28-.54-.57-1.06-.57-.35,0-.54.21-.54.44,0,.73,1.79.62,1.79,1.75,0,.49-.45.95-1.24.95-.54,0-1.01-.2-1.26-.47"/>
      <path class="cls-1" d="M48.37,31.46c.06-.08.03-.22-.02-.38l-.14-.44h-1.24l-.14.43c-.04.14-.06.3,0,.38h-.89c.1-.08.22-.2.3-.42l1.12-3.02.43-.1,1.22,3.12c.07.2.18.33.28.42h-.94ZM48.08,30.27l-.49-1.51h-.03l-.48,1.51h.99Z"/>
      <path class="cls-1" d="M50.44,30.96c0,.25.05.41.13.5h-.88c.07-.08.12-.24.12-.5v-2.44c0-.25-.06-.41-.12-.5h.88c-.07.08-.13.24-.13.5v2.44ZM51.62,31.46c.04-.08,0-.23-.11-.39l-.95-1.27v-.07l.87-1.34c.13-.2.17-.29.15-.38h.92c-.16.09-.27.2-.39.35l-.92,1.3,1.12,1.42c.15.18.24.26.4.36h-1.08Z"/>
      <path class="cls-1" d="M53.81,30.96c0,.25.05.41.13.5h-.88c.07-.08.13-.24.13-.5v-2.44c0-.25-.06-.41-.13-.5h.88c-.08.08-.13.24-.13.5v2.44Z"/>
      <path class="cls-1" d="M42.21,3.82h0l-3.95-2.98c-.45-.34-.64-.62-.66-.84l-1.56,1.17-3.9,2.94-.39-.3-3.95-2.98c-.45-.34-.64-.62-.66-.84l-1.56,1.17h0l-4.07,3.07c-.45.34-.84.47-1.11.49l1.56,1.18,3.69,2.79.03.03-3.29,2.48c-.45.34-.84.48-1.11.5l1.56,1.17c.02-.21.21-.5.66-.84l8.52-6.42.39.3,3.69,2.79.03.03-3.29,2.48c-.45.34-.83.48-1.11.5l1.56,1.17c.02-.21.21-.5.66-.84l8.69-6.56c.45-.34.83-.48,1.11-.49l-1.56-1.17ZM26.76,7.87l-3.69-2.78-.22-.18,3.93-2.96.14-.1,3.95,2.98-4.07,3.07-.03-.03M37.22,7.87l-3.69-2.78-.22-.18,3.93-2.96.14-.1,3.95,2.98-4.07,3.07-.03-.03"/>
      <path class="cls-1" d="M18.7,34.47c0,.3-.16.61-.48.61-.13,0-.23-.08-.31-.19v.16h-.3s.05-.11.05-.2v-1.17c0-.1-.02-.17-.05-.21l.3-.07v.64c.07-.1.17-.16.31-.16.32,0,.48.3.48.6M18.44,34.47c0-.22-.09-.44-.28-.44-.12,0-.2.08-.24.19v.48c.04.11.12.2.24.2.18,0,.28-.22.28-.43"/>
      <path class="cls-1" d="M18.74,35.39l.11-.24c.03.12.11.19.19.19.07,0,.14-.05.18-.16l.05-.13-.37-.96c-.04-.09-.08-.17-.11-.19h.36l.02.19.22.67h0l.21-.67v-.2h.34l-.12.2-.44,1.17c-.07.2-.23.29-.37.29-.11,0-.21-.05-.28-.16"/>
      <path class="cls-1" d="M22.43,34.28l-.04.18v.7h0l-.21-.1v-.11c-.1.08-.22.12-.35.12-.31,0-.66-.24-.66-.77s.32-.77.69-.77c.26,0,.41.1.5.1l-.02.38c-.1-.15-.26-.3-.48-.3-.24,0-.39.18-.39.59,0,.44.18.6.38.6.11,0,.23-.06.31-.14v-.32h-.12c-.12,0-.17.01-.22.03v-.21s.13.02.22.02h.4Z"/>
      <path class="cls-1" d="M23.35,35.04l-.02-.17c-.07.13-.2.2-.33.2-.2,0-.34-.13-.34-.33s.18-.35.48-.35h.18v-.11c0-.16-.09-.23-.2-.23-.13,0-.27.07-.38.2v-.28c.12,0,.24-.09.44-.09.27,0,.4.14.4.41v.56c0,.09.02.17.05.21h-.28ZM23.32,34.73v-.21h-.18c-.15,0-.23.08-.23.19,0,.11.07.19.19.19.09,0,.18-.06.23-.17"/>
      <path class="cls-1" d="M24.62,33.88l-.04.31-.15-.08c-.09,0-.19.07-.24.18v.56c0,.09.02.16.05.2h-.35s.05-.11.05-.2v-.7c0-.1-.02-.17-.05-.21l.29-.07v.22c.1-.13.22-.22.35-.22h.09"/>
      <path class="cls-1" d="M25.57,35.04v-.16c-.08.11-.19.18-.32.18-.32,0-.48-.3-.48-.6s.16-.6.48-.6c.13,0,.23.06.3.16v-.35c0-.09-.02-.17-.05-.21l.3-.07v1.46c0,.09.02.16.05.2h-.29ZM25.56,34.7v-.48c-.04-.11-.12-.19-.24-.19-.18,0-.28.22-.28.44s.09.43.28.43c.11,0,.2-.08.24-.2"/>
      <path class="cls-1" d="M26.67,34.9c.12,0,.26-.08.36-.22l.04.23c-.09.09-.24.15-.4.15-.32,0-.57-.2-.57-.6s.24-.6.53-.6c.33,0,.49.22.49.54v.14s-.1,0-.1,0h-.66c.02.25.15.37.3.37M26.85,34.39v-.06c0-.15-.05-.3-.23-.3-.15,0-.24.12-.26.36h.49Z"/>
      <path class="cls-1" d="M28.11,34.84v-.55c0-.15-.09-.23-.2-.23-.09,0-.19.06-.25.17v.61c0,.09.02.16.05.2h-.35s.05-.11.05-.2v-.7c0-.1-.02-.17-.05-.21l.29-.07v.21c.11-.14.25-.21.37-.21.19,0,.34.14.34.4v.58c0,.09.02.16.05.2h-.35s.05-.11.05-.2"/>
      <path class="cls-1" d="M30.34,33.52v.35c-.04-.07-.12-.14-.25-.14h-.21v1.1c0,.11.02.18.05.22h-.38s.05-.11.05-.22v-1.1h-.22c-.13,0-.21.07-.25.14v-.35l.25.03h.7l.25-.03"/>
      <path class="cls-1" d="M30.98,34.9c.12,0,.26-.08.36-.22l.04.23c-.09.09-.24.15-.4.15-.32,0-.56-.2-.56-.6s.24-.6.53-.6c.33,0,.49.22.49.54v.14s-.1,0-.1,0h-.65c.02.25.15.37.3.37M31.17,34.39v-.06c0-.15-.05-.3-.23-.3-.15,0-.24.12-.26.36h.49Z"/>
      <path class="cls-1" d="M32.41,33.88l-.04.31-.15-.08c-.09,0-.19.07-.24.18v.56c0,.09.02.16.05.2h-.36s.05-.11.05-.2v-.7c0-.1-.02-.17-.05-.21l.29-.07v.22c.1-.13.22-.22.35-.22h.09"/>
      <path class="cls-1" d="M33.35,33.88l-.04.31-.15-.08c-.09,0-.18.07-.24.18v.56c0,.09.02.16.05.2h-.35s.05-.11.05-.2v-.7c0-.1-.02-.17-.05-.21l.29-.07v.22c.1-.13.22-.22.35-.22h.09"/>
      <path class="cls-1" d="M34.18,35.04l-.02-.17c-.07.13-.2.2-.33.2-.2,0-.34-.13-.34-.33s.18-.35.49-.35h.18v-.11c0-.16-.09-.23-.2-.23-.13,0-.27.07-.38.2v-.28c.12,0,.24-.09.44-.09.27,0,.4.14.4.41v.56c0,.09.02.17.05.21h-.28ZM34.15,34.73v-.21h-.18c-.15,0-.23.08-.23.19,0,.11.07.19.19.19.09,0,.18-.06.23-.17"/>
      <path class="cls-1" d="M34.69,34.47c0-.4.24-.6.53-.6.21,0,.31.1.38.11l-.02.31c-.08-.13-.2-.25-.36-.25s-.26.15-.26.43.1.43.26.43c.15,0,.28-.1.36-.22l.04.23c-.1.09-.24.15-.4.15-.29,0-.53-.2-.53-.6"/>
      <path class="cls-1" d="M36.4,34.9c.12,0,.26-.08.36-.22l.04.23c-.09.09-.24.15-.4.15-.32,0-.57-.2-.57-.6s.24-.6.53-.6c.33,0,.49.22.49.54v.14s-.1,0-.1,0h-.65c.02.25.14.37.3.37M36.59,34.39v-.06c0-.15-.06-.3-.23-.3-.15,0-.24.12-.26.36h.49Z"/>
      <path class="cls-1" d="M38.88,34.83c0,.11.02.18.05.22h-.38s.06-.11.06-.22v-.47h-.65v.47c0,.11.02.18.06.22h-.38s.06-.11.06-.22v-1.06c0-.11-.02-.18-.06-.22h.38s-.06.11-.06.22v.4h.65v-.4c0-.11-.03-.18-.06-.22h.38s-.05.11-.05.22v1.06Z"/>
      <path class="cls-1" d="M39.18,34.47c0-.4.24-.6.54-.6s.54.21.54.6-.24.6-.54.6-.54-.2-.54-.6M39.99,34.47c0-.29-.1-.43-.27-.43s-.27.15-.27.43.1.43.27.43.27-.15.27-.43"/>
      <path class="cls-1" d="M41.18,34.74l.04.22c-.09.08-.19.12-.29.12-.19,0-.35-.14-.35-.39v-.61h-.16s0-.18,0-.18h.16s0-.17,0-.17l.28-.12-.02.19v.12c.14,0,.28,0,.4-.02l-.05.19c-.07,0-.21-.01-.34-.01v.61c0,.12.06.19.15.19l.2-.13"/>
      <path class="cls-1" d="M41.95,34.9c.12,0,.26-.08.36-.22l.04.23c-.09.09-.24.15-.4.15-.32,0-.57-.2-.57-.6s.24-.6.53-.6c.33,0,.49.22.49.54v.14s-.09,0-.09,0h-.66c.02.25.15.37.3.37M42.14,34.39v-.06c0-.15-.05-.3-.23-.3-.15,0-.24.12-.26.36h.49Z"/>
      <path class="cls-1" d="M42.69,34.84v-1.18c0-.09-.02-.17-.05-.21l.3-.07v1.46c0,.09.02.16.05.2h-.35s.05-.11.05-.2"/>
      <path class="cls-1" d="M43.22,34.87l.14-.22c.04.13.15.26.33.26.14,0,.22-.06.22-.15,0-.25-.64-.18-.64-.55,0-.21.18-.36.44-.36.21,0,.3.1.38.1l-.02.29c-.08-.12-.2-.24-.37-.24-.12,0-.19.06-.19.15,0,.22.64.18.64.55,0,.23-.22.35-.47.35-.18,0-.36-.07-.46-.2"/>
    </g>
  </g>
</svg>