<?xml version="1.0" encoding="UTF-8"?>
<svg id="_レイヤー_2" data-name="レイヤー 2" xmlns="http://www.w3.org/2000/svg" viewBox="0 0 92.29 37.18">
  <defs>
    <style>
      .cls-1 {
        fill: #9b8c64;
      }
    </style>
  </defs>
  <g id="_レイヤー_1-2" data-name="レイヤー 1">
    <g>
      <path class="cls-1" d="M32.68,37.07l-.19-.02c-.13-.02-.14-.1-.15-.23-.02-.17-.03-.52-.03-.93v-.76c0-.67,0-.79.01-.93.01-.15.04-.21.14-.24h.11s.04-.05.04-.05l-.07-.03c-.13,0-.4.01-.42.01s-.3-.01-.48-.01l-.07.03.03.04h.14c.14.03.16.1.17.25,0,.14,0,.27,0,.94v.09l-.02.03h-1.78l-.02-.03v-.09c0-.67,0-.8,0-.94.01-.15.03-.21.15-.24h.11s.03-.05.03-.05l-.07-.03c-.13,0-.4.01-.42.01-.02,0-.29-.01-.49-.01l-.07.03.04.04h.15c.14.03.16.1.17.25.01.14.01.26.01.93v.76c0,.42,0,.76-.03.93-.02.13-.03.21-.11.23l-.13.02-.03.03.07.03c.13,0,.4-.01.42-.01.02,0,.29.01.53.01l.07-.03-.04-.03-.2-.02c-.12-.02-.14-.1-.15-.23-.02-.17-.02-.51-.02-.92v-.43l.02-.03h1.78l.02.03v.43c0,.42,0,.74-.02.92-.01.13-.03.21-.11.24l-.13.02-.03.03.07.03c.13,0,.4-.01.42-.01.02,0,.29.01.53.01l.07-.03-.04-.03"/>
      <path class="cls-1" d="M34.49,34.77c-.84,0-1.2.71-1.2,1.2,0,.55.35,1.21,1.18,1.21.73,0,1.22-.57,1.22-1.26s-.52-1.15-1.2-1.15M34.56,37.05c-.55,0-.96-.45-.96-1.16,0-.67.37-1,.87-1s.91.39.91,1.12c0,.89-.55,1.04-.82,1.04"/>
      <path class="cls-1" d="M37.81,34.79h-.09c-.05.02-.12.03-.22.03h-1.14l-.24-.02-.13-.04-.03.06-.07.33.02.03.03-.03.05-.1c.04-.08.12-.09.3-.1h.44s0,1.28,0,1.28c0,.3,0,.54-.01.66,0,.09-.03.15-.09.17h-.09s-.02.04-.02.04l.05.02h.31s.21,0,.38,0l.05-.02-.02-.03-.14-.02c-.09-.01-.11-.07-.12-.16-.01-.12-.01-.37-.01-.66v-1.29h.38c.29.01.35.08.37.18v.03s.02.06.02.06l.03-.04s.01-.26.01-.35l-.02-.04"/>
      <path class="cls-1" d="M39.57,36.72l-.03.05c-.02.12-.06.18-.14.21l-.3.03c-.3,0-.36-.04-.36-.25,0-.06,0-.42,0-.52v-.25l.02-.02h.46c.12.03.14.07.15.11v.1s.04.03.04.03l.03-.06v-.2c.02-.1.04-.15.04-.17l-.02-.03-.05.04-.15.04h-.5s-.02-.02-.02-.02v-.84l.02-.03h.44c.17.03.2.05.22.1l.02.11.03.04.03-.03.02-.2.02-.15-.02-.03h-.04s-.14.03-.14.03h-.72s-.21,0-.35,0l-.05.02.03.03h.1c.1.02.11.07.12.18,0,.1,0,.18,0,.66v.54c0,.3,0,.54-.02.67-.01.09-.02.15-.08.16l-.09.02-.02.02.05.03h.17s.14-.01.14-.01c.04,0,.12,0,.25,0,.12,0,.3.01.53.01.12,0,.15,0,.17-.08l.04-.3-.02-.05"/>
      <path class="cls-1" d="M41.54,36.71l-.03.04-.07.17c-.07.09-.21.1-.37.1-.24,0-.35-.02-.4-.08-.05-.05-.06-.24-.06-.69v-.55c0-.48,0-.56,0-.66,0-.11.03-.15.12-.17h.1s.02-.03.02-.03l-.05-.02c-.1,0-.32,0-.34,0-.01,0-.2,0-.34,0l-.05.02.02.03h.1c.1.02.11.07.12.18,0,.1,0,.18,0,.66v.54c0,.3,0,.54-.02.66-.01.09-.02.15-.08.16l-.1.02-.02.03.05.03h.18s.12-.01.12-.01c.09,0,.2,0,.33,0,.14,0,.31.01.53.01.16,0,.17-.01.2-.08.02-.09.04-.28.04-.31l-.02-.05"/>
      <path class="cls-1" d="M46.99,37.09c-.11,0-.27-.06-.37-.12-.08-.05-.22-.13-.42-.31.13-.17.3-.48.3-.73l-.06-.06c-.17-.02-.3-.02-.37-.02l-.05.02.04.02.15.05.06.15c0,.19-.07.4-.16.51-.1-.08-.48-.44-.58-.55-.32-.35-.49-.55-.49-.79,0-.29.21-.4.39-.4.14,0,.24.06.31.13l.09.26.02.06.03-.05s.02-.26.02-.35l-.04-.08c-.08-.05-.21-.08-.37-.08-.41,0-.66.32-.66.57,0,.14.04.27.15.43-.24.14-.47.38-.47.74,0,.27.21.68.75.68.46,0,.7-.26.77-.33.34.27.41.29.64.29h.3l.05-.02-.04-.02M45.38,37.02c-.34,0-.61-.28-.61-.66,0-.25.12-.41.28-.52.09.13.28.35.36.43.08.09.38.38.55.52-.1.11-.29.23-.58.23"/>
      <path class="cls-1" d="M52.62,36.72l-.03.05c-.02.12-.06.18-.14.22l-.3.03c-.3,0-.36-.04-.37-.25,0-.06,0-.42,0-.52v-.26l.02-.02.46.02c.12.01.14.05.16.09v.1s.03.03.03.03l.03-.06v-.2c.02-.1.04-.15.04-.17l-.02-.03-.05.04-.15.04h-.51s-.02-.02-.02-.02v-.84l.02-.03h.44c.16.03.19.05.21.1l.02.11.02.04.03-.03.02-.2.02-.15v-.03s-.06.01-.06.01l-.14.02h-.72s-.21,0-.35,0l-.05.02.03.03h.1c.1.02.11.07.12.18,0,.1,0,.18,0,.66v.54c0,.3,0,.54-.01.66-.01.09-.02.15-.08.16h-.04s-.29-.02-.29-.02c-.1-.01-.24-.05-.46-.3-.23-.27-.52-.66-.85-1.11.38-.36.5-.67.5-.99,0-.3-.18-.51-.29-.59-.21-.16-.5-.19-.76-.19-.13,0-.47.01-.51.01-.02,0-.3-.01-.48-.01l-.06.03.03.04h.14c.13.03.16.1.17.25.01.14.01.26.01.93v.76c0,.42,0,.76-.03.93-.02.13-.03.21-.11.23l-.13.02-.03.04.06.03c.12,0,.4-.01.4-.01.02,0,.28.01.5.01l.06-.03-.03-.04-.18-.02c-.12-.02-.15-.1-.16-.23-.02-.17-.02-.51-.02-.93v-.1l.03-.03h.52s.06.03.06.03c.09.12.27.4.44.63.23.33.38.53.56.63.1.06.2.09.44.09h.61s.13-.01.13-.01c.05,0,.12,0,.26,0,.12,0,.29.01.53.01.11,0,.15,0,.17-.08l.04-.3-.02-.05M49.66,35.53c-.1.07-.21.08-.31.08-.18,0-.39-.03-.45-.07l-.03-.05v-1.39l.03-.05s.17-.03.29-.03c.43,0,.71.31.71.85,0,.33-.11.56-.24.66"/>
      <path class="cls-1" d="M53.88,35.8l-.08-.06c-.28-.21-.37-.33-.37-.52,0-.21.17-.33.38-.33.26,0,.35.12.37.15l.05.15.02.04.02-.07c0-.21.01-.31.01-.33l-.02-.02h-.11c-.07-.03-.18-.05-.3-.05-.38,0-.64.22-.64.58,0,.21.1.4.41.66l.13.11c.25.21.36.32.36.54s-.15.41-.43.41c-.2,0-.41-.08-.46-.3v-.11s-.04-.04-.04-.04l-.02.05s-.01.17-.01.32l.04.12c.12.06.29.08.42.08.16,0,.34-.02.46-.11.21-.15.27-.34.27-.52,0-.26-.12-.48-.47-.74"/>
      <path class="cls-1" d="M42.66,35.8l-.08-.06c-.29-.21-.37-.33-.37-.52,0-.21.17-.33.38-.33.26,0,.35.12.37.15l.04.15.03.04.02-.07c0-.21.01-.31.01-.33l-.03-.02h-.1c-.07-.03-.18-.05-.3-.05-.38,0-.64.22-.64.58,0,.21.1.4.41.66l.13.11c.25.21.36.32.36.54s-.15.41-.43.41c-.19,0-.41-.08-.45-.3v-.11s-.04-.04-.04-.04l-.02.05s-.02.17-.02.32l.04.12c.12.06.29.08.42.08.15,0,.34-.02.46-.11.21-.15.27-.34.27-.52,0-.26-.12-.48-.47-.74"/>
      <path class="cls-1" d="M56,34.77c-.84,0-1.2.71-1.2,1.2,0,.55.36,1.21,1.19,1.21.73,0,1.22-.57,1.22-1.26s-.52-1.15-1.2-1.15M56.07,37.05c-.55,0-.96-.45-.96-1.16,0-.67.36-1,.87-1,.48,0,.91.39.91,1.12,0,.89-.55,1.04-.82,1.04"/>
      <path class="cls-1" d="M59.8,37.09h-.1c-.07-.02-.17-.05-.33-.23-.17-.19-.37-.47-.61-.79.27-.26.36-.48.36-.7,0-.21-.13-.36-.2-.42-.15-.12-.36-.13-.54-.13h-.36s-.21,0-.34,0l-.05.02.03.03h.1c.1.02.11.07.12.18,0,.1,0,.18,0,.66v.54c0,.3,0,.54-.02.66-.01.09-.02.15-.07.16l-.09.02-.02.02.05.03h.28s.2,0,.36,0l.04-.03-.02-.02-.13-.02c-.09-.01-.11-.07-.12-.16-.01-.12-.01-.36-.01-.66v-.07l.02-.02h.37s.04.02.04.02c.06.08.19.28.31.45.17.23.27.38.4.45.07.04.14.06.31.06h.18l.07-.03-.03-.02M58.68,35.99l-.21.05c-.13,0-.28-.02-.32-.05l-.02-.04v-.99l.02-.04.21-.02c.31,0,.5.22.5.6,0,.24-.08.4-.18.47"/>
      <path class="cls-1" d="M61.48,34.79h-.09s-.12.03-.21.03h-1.15l-.24-.02-.14-.04-.03.06-.07.33.02.03.03-.03.05-.1c.05-.08.12-.09.31-.1h.44s0,1.28,0,1.28c0,.3,0,.54-.02.66,0,.09-.03.15-.09.17h-.09s-.02.04-.02.04l.05.02h.32s.21,0,.37,0l.05-.02-.03-.03-.14-.02c-.09-.01-.11-.07-.12-.16-.01-.12-.01-.37-.01-.66v-1.29h.38c.29.01.35.08.36.18v.03s.03.06.03.06l.03-.04s0-.26,0-.35v-.04"/>
      <path class="cls-1" d="M62.59,35.8l-.09-.06c-.28-.21-.37-.33-.37-.52,0-.21.17-.33.38-.33.26,0,.35.12.37.15l.04.15.03.04.03-.07c0-.21.01-.31.01-.33l-.03-.02h-.1c-.06-.03-.18-.05-.3-.05-.38,0-.64.22-.64.58,0,.21.1.4.41.66l.13.11c.26.21.36.32.36.54s-.15.41-.43.41c-.19,0-.41-.08-.45-.3v-.11s-.04-.04-.04-.04l-.02.05s-.01.17-.01.32l.04.12c.12.06.28.08.42.08.16,0,.34-.02.46-.11.21-.15.27-.34.27-.52,0-.26-.12-.48-.47-.74"/>
      <path class="cls-1" d="M5.36,28.03c-.22,0-.68.02-.71.02-.04,0-.54-.02-.87-.02l-.12.06.06.06.25.02c.3.06.32.15.32.75v1.28c0,.14-.06.18-.15.23-.2.11-.53.14-.79.14-.67,0-1.29-.21-1.87-.78-.26-.25-.77-1-.77-2.05,0-.87.3-1.53.72-1.87.56-.44,1.09-.48,1.53-.48.95,0,1.51.3,1.69.58.12.17.16.39.16.49l.05.11c.05,0,.08-.03.08-.16,0-.74.04-.94.04-1.05l-.09-.07c-.18,0-.44-.04-.59-.08-.14-.03-.66-.12-1.12-.12-.56,0-1.29.05-1.95.47-.65.41-1.23,1.25-1.23,2.44,0,.92.43,1.72.88,2.11.82.73,1.86.8,2.42.8.43,0,1.09-.08,1.56-.33.09-.05.1-.06.1-.4v-.83c0-.31,0-.53,0-.77.02-.26.07-.38.28-.41l.18-.02.06-.06-.12-.06"/>
      <path class="cls-1" d="M14.22,30.73s-.08,0-.18-.02c-.14-.02-.31-.07-.59-.39-.3-.35-.67-.85-1.11-1.44.49-.46.65-.86.65-1.27,0-.39-.23-.66-.37-.76-.28-.21-.65-.24-.98-.24-.16,0-.61.02-.66.02-.03,0-.38-.02-.62-.02l-.08.05.04.05h.18c.17.04.2.13.22.32.01.18.01.34.01,1.2v.98c0,.54,0,.98-.03,1.21-.02.16-.04.27-.14.3l-.16.02-.04.04.08.05c.17,0,.52-.02.52-.02.02,0,.36.02.65.02l.08-.05-.04-.04-.23-.02c-.16-.03-.19-.13-.21-.3-.02-.23-.02-.66-.02-1.2v-.13l.04-.05.67.02.07.03c.11.15.35.51.57.81.3.42.49.69.72.82.13.08.26.11.56.11h.33c.1,0,.12-.01.12-.05l-.05-.04M12.19,28.75c-.12.09-.27.1-.39.1-.24,0-.5-.04-.58-.08l-.04-.07v-1.79l.04-.07c.05-.01.22-.03.38-.03.57,0,.92.4.92,1.1,0,.43-.14.72-.32.85"/>
      <path class="cls-1" d="M15.88,26.6c-.33,0-.68.02-.74.02-.03,0-.39-.02-.64-.02l-.09.05.04.05h.19c.18.04.21.13.23.32.01.18.01.34.01,1.2v.98c0,.54,0,.98-.03,1.21-.03.16-.04.27-.15.3l-.17.03-.04.04.09.05c.09,0,.22,0,.33-.01.11,0,.21,0,.23,0,.02,0,.21,0,.45.03.24.02.53.03.77.03.94,0,1.43-.39,1.67-.64.31-.32.59-.86.59-1.57,0-.66-.26-1.13-.54-1.42-.65-.69-1.66-.64-2.2-.64M17.65,30.15c-.33.33-.78.5-1.29.5-.65,0-.85-.11-.91-.22-.04-.06-.05-.26-.06-.4,0-.1,0-.62,0-1.21v-1.86l.07-.11c.05-.02.23-.04.33-.04.66,0,1.26.07,1.78.62.22.24.52.69.52,1.4,0,.51-.14,1.04-.43,1.32"/>
      <path class="cls-1" d="M21.8,30.07l-.05.08c-.03.22-.1.32-.24.39-.14.06-.39.06-.53.06-.52,0-.62-.07-.63-.45,0-.11,0-.76,0-.95v-.47l.04-.04c.09,0,.65,0,.8.03.2.02.25.09.27.17l.02.18.04.06.05-.1s.01-.25.02-.36c.01-.18.04-.28.04-.31l-.03-.05-.08.07c-.05.06-.13.07-.26.08-.12.01-.82.01-.88.01l-.03-.06v-1.52l.03-.05c.06,0,.67,0,.76.02.29.04.34.08.38.17l.03.2.04.07.05-.06.03-.37c.01-.16.04-.22.04-.26l-.02-.05-.07.03s-.14.03-.24.03c-.12,0-1.23,0-1.26,0-.03,0-.37-.01-.61-.01l-.08.05.04.04h.18c.17.04.2.13.21.32.01.18.01.34.01,1.2v.98c0,.54,0,.98-.03,1.21-.02.16-.03.27-.14.29l-.16.03-.04.04.08.05c.08,0,.2,0,.31-.01.11,0,.21,0,.23,0,.08,0,.22,0,.44,0,.21,0,.52.02.92.02.21,0,.26,0,.29-.14.03-.12.07-.5.07-.54l-.04-.08"/>
      <path class="cls-1" d="M27,26.6c-.23,0-.4.02-.47.02-.06,0-.32-.02-.58-.02l-.1.04.04.05s.17,0,.27.03c.17.03.2.16.21.52l.05,2.8c-.17-.18-.75-.85-1.3-1.44-.85-.92-1.65-1.81-1.74-1.9l-.21-.17s-.08.06-.08.28v3.19c0,.51-.02.65-.15.7l-.23.03-.04.04.09.05c.25,0,.48-.02.53-.02s.27.02.58.02l.1-.05-.04-.04c-.05,0-.17,0-.27-.03-.15-.04-.2-.18-.22-.63l-.06-2.63c.17.2.79.88,1.43,1.58.58.64,1.38,1.46,1.43,1.51.3.29.36.34.41.34.04,0,.05-.03.05-.4v-3.27c.01-.33.02-.45.21-.48h.13s.06-.07.06-.07l-.1-.04"/>
      <path class="cls-1" d="M33.13,25.56c.7.02.86.19.88.41v.08c.02.1.03.13.07.13l.07-.09c0-.09.03-.62.03-.85l-.04-.09s-.1.02-.21.03c-.12.02-.28.03-.52.03h-2.77c-.08,0-.37,0-.57-.03-.2-.03-.28-.09-.33-.09l-.07.14-.16.8.05.06.08-.07c.02-.05.03-.1.12-.23.11-.18.28-.23.74-.24l1.06-.02v3.12c0,.72,0,1.3-.03,1.61-.03.22-.07.36-.22.4l-.21.03-.06.06.12.06c.21,0,.72-.02.76-.02s.51.02.91.02l.12-.06-.06-.06c-.07,0-.23-.02-.33-.04-.23-.03-.26-.17-.29-.39-.03-.31-.03-.89-.03-1.61v-3.12l.92.02Z"/>
      <path class="cls-1" d="M34.97,26.69h.18c.17.04.2.13.22.32.01.18.01.34.01,1.2v.98c0,.54,0,.98-.03,1.21-.02.16-.04.28-.14.29l-.16.03-.05.04.08.05c.09,0,.2,0,.31-.01.11,0,.22,0,.23,0,.08,0,.22,0,.44,0,.22,0,.52.02.92.02.2,0,.26,0,.29-.14.03-.12.07-.5.07-.54l-.04-.08-.05.08c-.03.22-.1.32-.24.39-.14.06-.39.06-.53.06-.52,0-.62-.07-.63-.45,0-.11,0-.76,0-.95v-.47l.04-.04c.09,0,.65,0,.8.03.2.02.25.09.27.17l.02.18.04.05.04-.1s.02-.25.03-.36c.01-.18.04-.28.04-.31l-.03-.05-.08.07c-.05.06-.13.07-.26.08-.12.01-.82.01-.88.01l-.03-.06v-1.52l.03-.05c.06,0,.67,0,.76.02.29.04.35.08.38.17l.03.2.04.07.05-.06.03-.37c.01-.16.05-.22.05-.26l-.02-.05-.07.03s-.14.03-.24.03c-.12,0-1.23,0-1.26,0-.03,0-.37-.01-.61-.01l-.09.05.05.04"/>
      <path class="cls-1" d="M42.32,30.77l-.05-.04s-.08,0-.18-.02c-.13-.02-.31-.07-.59-.39-.31-.35-.68-.85-1.11-1.44.49-.46.65-.86.65-1.27,0-.39-.23-.66-.37-.76-.28-.21-.65-.24-.99-.24-.16,0-.61.02-.66.02-.03,0-.38-.02-.63-.02l-.08.05.04.05h.18c.17.04.2.13.21.32.01.18.01.34.01,1.2v.98c0,.54,0,.98-.03,1.21-.02.16-.03.27-.14.3l-.16.02-.04.04.08.05c.16,0,.51-.02.52-.02.02,0,.36.02.65.02l.08-.05-.04-.04-.23-.02c-.16-.03-.19-.13-.21-.3-.02-.23-.02-.66-.02-1.2v-.13l.04-.05.67.02.07.03c.11.15.35.51.57.81.3.42.49.69.72.82.13.08.27.11.56.11h.33c.1,0,.12-.01.12-.05M40.24,28.75c-.12.09-.27.1-.4.1-.23,0-.5-.04-.58-.08l-.04-.07v-1.79l.04-.07c.05-.01.22-.03.38-.03.56,0,.91.4.91,1.1,0,.43-.14.72-.32.85"/>
      <path class="cls-1" d="M53.97,30.6c.05-.19.13-.67.13-.71l-.05-.08-.06.08c-.02.11-.09.34-.22.47-.22.23-.49.26-.9.26-1.18,0-1.98-.95-1.98-2.02,0-.57.08-1.06.49-1.46.19-.19.53-.39,1.24-.39.49,0,.89.14,1.08.31.15.12.23.35.23.56l.04.12.06-.12c0-.08,0-.39.01-.57.01-.2.02-.27.02-.31l-.07-.06c-.18,0-.36-.05-.56-.09-.27-.05-.58-.07-.8-.07-.84,0-1.34.26-1.67.59-.49.5-.62,1.15-.62,1.52,0,.53.13,1.17.66,1.65.43.39.99.59,1.82.59.35,0,.77-.03.99-.12.09-.04.11-.06.14-.16"/>
      <path class="cls-1" d="M57.35,30.07l-.05.08c-.03.22-.1.32-.24.39-.14.06-.39.06-.53.06-.53,0-.62-.07-.63-.45,0-.11,0-.76,0-.95v-.47l.04-.04c.09,0,.65,0,.8.03.2.02.25.09.27.17l.02.18.04.06.05-.1s.01-.25.02-.36c.01-.18.04-.28.04-.31l-.03-.05-.08.07c-.05.06-.13.07-.26.08-.12.01-.81.01-.88.01l-.03-.06v-1.52l.03-.05c.06,0,.67,0,.76.02.28.04.34.08.38.17l.03.2.04.07.05-.06.03-.37c.01-.16.04-.22.04-.26l-.02-.05-.07.03s-.14.03-.24.03c-.12,0-1.22,0-1.26,0-.03,0-.37-.01-.61-.01l-.09.05.04.04h.18c.17.04.2.13.21.32.01.18.01.34.01,1.2v.98c0,.54,0,.98-.03,1.21-.02.16-.03.27-.13.29l-.17.03-.04.04.08.05c.08,0,.2,0,.3-.01.11,0,.22,0,.23,0,.08,0,.21,0,.44,0,.21,0,.52.02.92.02.2,0,.26,0,.29-.14.03-.12.07-.5.07-.54l-.04-.08"/>
      <path class="cls-1" d="M65.88,25.2c-.3,0-.54.02-.63.02s-.43-.02-.77-.02l-.14.05.06.07c.05,0,.22.01.36.03.22.04.27.21.28.69l.07,3.73c-.23-.25-1.01-1.13-1.74-1.92-1.13-1.22-2.2-2.41-2.32-2.53l-.29-.23c-.06,0-.1.08-.1.38v4.26c0,.67-.02.87-.21.93-.11.04-.24.04-.3.04l-.06.06.12.06c.33,0,.64-.02.71-.02s.36.02.77.02l.14-.06-.06-.06c-.07,0-.23,0-.37-.04-.2-.05-.27-.23-.28-.85l-.08-3.51c.23.26,1.05,1.17,1.9,2.11.78.85,1.84,1.94,1.91,2.01.41.39.49.45.56.45.05,0,.06-.04.06-.53l.02-4.35c0-.45.02-.6.26-.65l.17-.02.08-.07-.13-.05"/>
      <path class="cls-1" d="M74.84,28.73c-.17,0-.51.02-.53.02-.04,0-.4-.02-.66-.02l-.09.05.05.04h.18c.23.06.24.12.24.58v.96c0,.11-.04.13-.11.17-.14.08-.4.1-.6.1-.51,0-.96-.16-1.4-.58-.19-.19-.58-.76-.58-1.54,0-.65.22-1.15.54-1.4.42-.33.82-.36,1.15-.36.71,0,1.13.22,1.27.44.08.13.11.29.12.37l.04.09s.06-.03.06-.12c0-.56.04-.71.04-.78l-.07-.05c-.14,0-.33-.04-.44-.06-.11-.02-.49-.09-.85-.09-.42,0-.97.04-1.46.36-.49.31-.92.94-.92,1.83,0,.7.32,1.29.65,1.59.62.54,1.4.59,1.82.59.32,0,.82-.06,1.17-.25.07-.04.07-.04.07-.3v-.62c0-.24,0-.4,0-.58.02-.2.06-.28.21-.31h.14s.05-.06.05-.06l-.09-.05"/>
      <path class="cls-1" d="M80.98,28.4l-.15-.11c-.51-.39-.68-.59-.68-.94,0-.39.32-.61.7-.61.47,0,.64.21.68.28l.08.28.05.07.04-.12c0-.38.03-.56.03-.59l-.05-.04s-.08,0-.19-.03c-.12-.03-.33-.07-.54-.07-.69,0-1.15.4-1.15,1.05,0,.39.18.73.75,1.2l.24.19c.46.38.66.57.66.97s-.27.74-.79.74c-.35,0-.74-.15-.83-.55l-.02-.2-.05-.07-.04.09c0,.09-.03.31-.03.59,0,.15,0,.17.08.21.21.11.52.15.76.15.28,0,.61-.04.83-.2.38-.27.49-.62.49-.95,0-.48-.22-.86-.86-1.34"/>
      <path class="cls-1" d="M90.67,30.73s-.19-.02-.34-.08c-.26-.11-.32-.19-.79-.62-.22-.22-1.37-1.42-1.51-1.58.12-.14,1.05-1.08,1.2-1.21.24-.24.35-.37.57-.47.11-.05.23-.08.3-.08l.06-.05-.08-.04c-.14,0-.5.02-.53.02-.13,0-.3-.02-.41-.02l-.06.04.05.05.07.11c0,.09-.14.24-.3.4-.21.22-1.19,1.24-1.28,1.34h-.02v-.33c0-.86,0-1.02.01-1.2.01-.2.05-.28.19-.31h.14s.04-.06.04-.06l-.09-.05c-.16,0-.5.02-.54.02-.03,0-.37-.02-.62-.02l-.09.05.05.04h.19c.18.04.21.13.23.32.01.18.01.34.01,1.2v.98c0,.54,0,.98-.03,1.21-.03.16-.04.27-.15.29l-.17.03-.04.04.08.05c.17,0,.5-.02.55-.02.04,0,.37.02.64.02l.09-.05-.04-.04-.21-.03c-.17-.03-.19-.13-.21-.29-.02-.23-.02-.67-.02-1.21v-.54h.02c.27.33,1.42,1.61,1.67,1.81.23.19.38.32.67.34.12.01.22.01.38.01h.28c.1,0,.12-.02.12-.05l-.07-.04"/>
      <path class="cls-1" d="M92.25,30.73l-.25-.03c-.16-.03-.18-.13-.2-.29-.03-.23-.03-.67-.03-1.21v-.98c0-.86,0-1.02,0-1.2.01-.2.04-.28.19-.31h.14s.05-.06.05-.06l-.09-.05c-.17,0-.52.02-.55.02-.03,0-.37-.02-.56-.02l-.08.05.04.04.17.02c.12.02.16.11.17.3.01.18.01.34.01,1.2v.98c0,.54,0,.98-.03,1.21-.02.16-.03.27-.14.29l-.17.03-.04.04.09.05c.17,0,.51-.02.54-.02.02,0,.38.02.69.02l.09-.05-.04-.04"/>
      <path class="cls-1" d="M86.26,30.73l-.21-.03c-.11-.04-.26-.11-.45-.61-.33-.85-1.18-3.15-1.28-3.39-.05-.12-.07-.2-.13-.2-.04,0-.06.03-.13.22l-1.25,3.49c-.1.28-.21.48-.45.51l-.16.02-.05.04.1.05c.22,0,.49-.02.54-.02.06,0,.35.02.48.02l.08-.05-.05-.04h-.05c-.09,0-.18-.04-.18-.15,0-.1.03-.23.07-.37l.33-.98.05-.05h1.17l.04.03.51,1.37c.03.09-.02.14-.05.15l-.04.04s.08.03.19.04c.37.01.76.01.84.01l.12-.05-.07-.04M84.63,28.95h-1.02l-.02-.04.47-1.44h.09l.5,1.44-.02.04"/>
      <path class="cls-1" d="M79.19,30.73l-.21-.03c-.11-.04-.26-.11-.45-.61-.32-.85-1.18-3.15-1.27-3.39-.06-.12-.08-.2-.13-.2-.04,0-.06.03-.13.22l-1.26,3.49c-.1.28-.2.48-.45.51l-.16.02-.05.04.1.05c.22,0,.49-.02.54-.02.06,0,.35.02.48.02l.08-.05-.06-.04h-.05c-.09,0-.18-.04-.18-.15,0-.1.03-.23.08-.37l.33-.98.06-.05h1.17l.05.03.51,1.37c.03.09-.02.14-.05.15l-.04.04s.09.03.19.04c.37.01.76.01.84.01l.12-.05-.07-.04M77.55,28.95h-1.02l-.02-.04.47-1.44h.09l.5,1.44-.02.04"/>
      <path class="cls-1" d="M70.56,30.73l-.21-.03c-.12-.04-.26-.11-.46-.61-.33-.85-1.18-3.15-1.28-3.39-.06-.12-.07-.2-.13-.2-.03,0-.06.03-.13.22l-1.26,3.49c-.1.28-.2.48-.44.51l-.16.02-.05.04.1.05c.22,0,.49-.02.54-.02.06,0,.35.02.48.02l.08-.05-.05-.04h-.05c-.09,0-.19-.04-.19-.15,0-.1.03-.23.08-.37l.33-.98.06-.05h1.17l.05.03.51,1.37c.04.09-.02.14-.05.15l-.04.04s.08.03.19.04c.37.01.77.01.84.01l.12-.05-.07-.04M68.92,28.95h-1.02l-.02-.04.47-1.44h.09l.5,1.44-.02.04"/>
      <path class="cls-1" d="M48.6,29.21l.51,1.37c.04.09-.02.14-.05.15l-.03.04s.08.03.18.04c.37.01.77.01.85.01l.12-.05-.07-.04-.21-.03c-.12-.04-.26-.11-.46-.61-.33-.85-1.18-3.15-1.28-3.39-.05-.12-.07-.2-.13-.2-.04,0-.06.03-.12.22l-1.26,3.49c-.1.27-.2.46-.41.51-.13-.02-.31-.08-.59-.39-.3-.35-.67-.85-1.1-1.44.49-.46.65-.86.65-1.27,0-.39-.23-.66-.37-.76-.28-.21-.65-.24-.98-.24-.16,0-.61.02-.66.02-.03,0-.38-.02-.62-.02l-.08.05.04.05h.18c.17.04.2.13.21.32.01.17.01.34.01,1.2v.98c0,.54,0,.98-.03,1.21-.02.16-.04.27-.14.3l-.16.03-.04.04.09.05c.16,0,.51-.02.52-.02.02,0,.36.02.65.02l.08-.05-.04-.04-.24-.03c-.16-.03-.19-.13-.21-.3-.02-.23-.02-.66-.02-1.2v-.13l.04-.04h.67s.07.04.07.04c.11.15.35.51.57.82.3.42.49.69.72.82.13.08.26.11.56.11h.43s.18-.02.18-.02c.06,0,.35.02.48.02l.08-.05-.05-.04h-.05c-.09,0-.18-.04-.18-.15,0-.1.03-.23.08-.37l.33-.98.05-.05h1.17l.05.03M44.4,28.75c-.12.09-.27.1-.39.1-.24,0-.51-.04-.58-.08l-.04-.07v-1.8l.05-.06c.05-.01.22-.03.38-.03.56,0,.91.4.91,1.1,0,.43-.14.72-.32.85M48.47,28.95h-1.02l-.02-.04.47-1.44h.09l.5,1.44-.02.04"/>
      <path class="cls-1" d="M9.86,30.73l-.21-.03c-.11-.04-.26-.11-.45-.61-.33-.85-1.18-3.15-1.28-3.39-.05-.12-.07-.2-.13-.2-.04,0-.06.03-.12.22l-1.26,3.49c-.1.28-.21.48-.45.51l-.16.02-.05.04.1.05c.22,0,.48-.02.54-.02s.35.02.48.02l.08-.05-.06-.04h-.05c-.09,0-.18-.04-.18-.15,0-.1.03-.23.08-.37l.33-.98.06-.05h1.17l.05.03.51,1.37c.04.09-.02.14-.05.15l-.04.04s.08.03.19.04c.37.01.76.01.84.01l.12-.05-.07-.04M8.23,28.95h-1.02l-.02-.04.47-1.44h.09l.5,1.44-.02.04"/>
      <path class="cls-1" d="M54,10.62c.49-1.83.24-3.74-.7-5.38-.3-.52-.66-1-1.07-1.42-.09-.1-.24-.12-.36-.05-.12.07-.17.21-.14.34.49,1.79.19,3.65-.73,5.16.22-.7.34-1.43.34-2.18,0-1.89-.73-3.67-2.06-5.01-1.33-1.34-3.1-2.07-4.97-2.07-.6,0-1.19.08-1.76.22-.13.03-.22.15-.22.29s.09.25.22.29c2.85.74,4.83,3.32,4.83,6.29,0,2.1-1,4.01-2.6,5.21-.62-.08-1.24-.24-1.82-.49-.25-.58-.41-1.2-.49-1.83.86-1.16,2.09-2.04,3.56-2.42.13-.04.22-.15.22-.29s-.09-.25-.22-.29c-.57-.15-1.16-.23-1.76-.23-1.88,0-3.64.74-4.97,2.07-1.33,1.34-2.07,3.12-2.07,5.01s.73,3.67,2.07,5.01c1.33,1.34,3.09,2.07,4.97,2.07.6,0,1.19-.08,1.76-.22.13-.03.22-.15.22-.29s-.09-.25-.22-.29c-1.79-.46-3.24-1.66-4.07-3.22.49.54,1.06,1.01,1.7,1.39,1.63.95,3.52,1.2,5.34.71,1.81-.49,3.33-1.66,4.27-3.3.3-.52.53-1.07.69-1.65.03-.13-.02-.27-.14-.34-.12-.07-.27-.05-.36.05-1.29,1.33-3.05,2-4.8,1.94.71-.15,1.39-.42,2.04-.79,1.63-.95,2.79-2.47,3.28-4.3M47.97,7.08c0-2.83-1.66-5.35-4.16-6.47.16-.02.33-.02.5-.02,1.72,0,3.34.68,4.56,1.9,1.22,1.23,1.89,2.86,1.89,4.59s-.67,3.37-1.89,4.59c-1.22,1.23-2.84,1.9-4.56,1.9-.17,0-.34,0-.5-.02,2.5-1.12,4.16-3.64,4.16-6.47M44.05,12.77c-.44.25-.92.44-1.42.57-.39-.39-.72-.83-1.01-1.32-.08-.15-.16-.3-.23-.45.8.59,1.71.99,2.66,1.19M42.67,7.57c.53-.14,1.08-.21,1.63-.21.17,0,.33,0,.5.02-.9.41-1.7,1-2.35,1.72,0-.51.08-1.02.21-1.53M41.9,8.49c-.1.99.01,1.98.31,2.91-.43-.26-.84-.58-1.21-.96.15-.53.36-1.04.64-1.53.08-.15.17-.28.27-.42M44.79,20.32c-.16.01-.33.02-.5.02-1.72,0-3.34-.68-4.56-1.9-1.22-1.23-1.89-2.86-1.89-4.59s.67-3.36,1.89-4.59c.53-.54,1.14-.97,1.8-1.28-.15.21-.3.42-.42.65-.94,1.64-1.19,3.55-.7,5.38.08.3.18.59.29.87.35,2.41,1.9,4.47,4.09,5.45M53.01,14.97c-.07.15-.15.3-.23.44-.86,1.5-2.25,2.58-3.92,3.02-1.66.45-3.4.22-4.89-.65-1.49-.87-2.56-2.27-3-3.94-.2-.73-.26-1.48-.2-2.21.1.24.22.47.34.69.94,1.64,2.46,2.81,4.27,3.3.3.08.59.14.89.18,2.24.9,4.78.58,6.73-.84M45.54,15.06c-.72-.2-1.39-.52-1.99-.93.25.03.5.04.75.04,1.88,0,3.65-.74,4.97-2.08.22-.22.41-.45.6-.69,1.9-1.5,2.89-3.89,2.64-6.29.1.14.19.28.27.43.86,1.5,1.09,3.25.64,4.93-.44,1.68-1.51,3.08-3,3.94-1.49.87-3.23,1.1-4.89.65"/>
    </g>
  </g>
</svg>