<svg xmlns="http://www.w3.org/2000/svg" viewBox="0 0 86.81 50"><defs><style>.cls-1{fill:#fff;}</style></defs><title>Asset 1</title><g id="Layer_2" data-name="Layer 2"><g id="レイヤー_2" data-name="レイヤー 2"><path class="cls-1" d="M23.25,41.31h0V35.12H24v7.27h-.92l-4.23-6.25h0v6.25h-.74V35.12H19Z"/><path class="cls-1" d="M25.88,42.39h-.81l3.14-7.27h.72l3.12,7.27h-.82l-.8-1.91H26.67ZM27,39.8h3.2L28.55,36Z"/><path class="cls-1" d="M38.13,36.44a2.46,2.46,0,0,0-.9-.62,3.34,3.34,0,0,0-2.46,0,2.87,2.87,0,0,0-1,.69,3.11,3.11,0,0,0-.6,1A3.54,3.54,0,0,0,33,38.76,3.5,3.5,0,0,0,33.22,40a3,3,0,0,0,.6,1,2.87,2.87,0,0,0,1,.69,3,3,0,0,0,1.26.26,4.43,4.43,0,0,0,1.13-.14,2.8,2.8,0,0,0,.83-.34v-2.2H36.3v-.66h2.43v3.28a5,5,0,0,1-1.28.54,6.15,6.15,0,0,1-1.43.17,4,4,0,0,1-1.52-.28,3.82,3.82,0,0,1-1.2-.8,3.55,3.55,0,0,1-.78-1.21,4.15,4.15,0,0,1,0-3.05,3.6,3.6,0,0,1,.8-1.21,3.44,3.44,0,0,1,1.2-.79,3.89,3.89,0,0,1,1.5-.29,4.13,4.13,0,0,1,1.52.26,3.38,3.38,0,0,1,1.11.72Z"/><path class="cls-1" d="M40.56,42.39h-.81l3.14-7.27h.72l3.12,7.27h-.82l-.8-1.91H41.35Zm1.07-2.59h3.2L43.23,36Z"/><path class="cls-1" d="M51.32,36.29a1.71,1.71,0,0,0-.61-.52,1.75,1.75,0,0,0-.89-.2,1.68,1.68,0,0,0-.54.08,1.52,1.52,0,0,0-.51.25,1.22,1.22,0,0,0-.36.42,1.34,1.34,0,0,0-.14.61,1.09,1.09,0,0,0,.13.57,1.33,1.33,0,0,0,.36.39,1.82,1.82,0,0,0,.5.26l.59.21.76.26a2.89,2.89,0,0,1,.69.38A1.69,1.69,0,0,1,52,40.48a2.1,2.1,0,0,1-.2.94,2,2,0,0,1-.54.65,2.26,2.26,0,0,1-.76.38,3.13,3.13,0,0,1-.86.12,3.66,3.66,0,0,1-.65-.06,4.21,4.21,0,0,1-.63-.2A2.81,2.81,0,0,1,47.8,42a2.85,2.85,0,0,1-.45-.47L48,41a2,2,0,0,0,.66.65,1.85,1.85,0,0,0,1,.27,1.88,1.88,0,0,0,.57-.09,1.72,1.72,0,0,0,.52-.27,1.48,1.48,0,0,0,.38-.44,1.2,1.2,0,0,0,.15-.61,1.18,1.18,0,0,0-.55-1.05,2.26,2.26,0,0,0-.56-.28L49.48,39c-.24-.07-.48-.16-.71-.25a2.58,2.58,0,0,1-.62-.38,1.59,1.59,0,0,1-.45-.57,1.86,1.86,0,0,1-.17-.83,1.81,1.81,0,0,1,.21-.9,1.86,1.86,0,0,1,.55-.63,2.6,2.6,0,0,1,.75-.36,3.22,3.22,0,0,1,.81-.11,2.86,2.86,0,0,1,1.26.26,2.23,2.23,0,0,1,.79.62Z"/><path class="cls-1" d="M53.53,42.39h-.81l3.14-7.27h.72l3.12,7.27h-.82l-.8-1.91H54.32ZM54.6,39.8h3.2L56.2,36Z"/><path class="cls-1" d="M61.5,38.39h0L65,35.12H66l-3.66,3.3,3.86,4H65.15l-3.63-3.87h0v3.87h-.73V35.12h.73Z"/><path class="cls-1" d="M68,42.39h-.74V35.12H68Z"/><path class="cls-1" d="M11.58,20.85A3.49,3.49,0,0,0,10,19.67a5.1,5.1,0,0,0-1.87-.37A5.26,5.26,0,0,0,6,19.72a5.07,5.07,0,0,0-1.64,1.17,5.34,5.34,0,0,0-1.07,1.74A6.38,6.38,0,0,0,3,24.8a6.72,6.72,0,0,0,.36,2.25,5.07,5.07,0,0,0,1,1.75A4.63,4.63,0,0,0,6,29.94a5.21,5.21,0,0,0,2.1.4,4.79,4.79,0,0,0,2.15-.47,4.26,4.26,0,0,0,1.51-1.27l2.14,1.51a6.78,6.78,0,0,1-2.44,1.94A7.79,7.79,0,0,1,8,32.74a8.69,8.69,0,0,1-3.24-.58A7.38,7.38,0,0,1,.59,28,8.58,8.58,0,0,1,0,24.8a8.14,8.14,0,0,1,.63-3.26,7.17,7.17,0,0,1,1.72-2.48,7.67,7.67,0,0,1,2.58-1.57,9.17,9.17,0,0,1,3.23-.55,9,9,0,0,1,1.51.14,7.57,7.57,0,0,1,1.5.42,7,7,0,0,1,1.36.71,4.62,4.62,0,0,1,1.09,1Z"/><path class="cls-1" d="M14.66,17.32h2.68V23.4h7V17.32H27v15H24.37V25.69h-7v6.67H14.66Z"/><path class="cls-1" d="M29,17.32H39v2.34H31.69v3.82H38.6v2.25H31.69V30h7.67v2.38H29Z"/><path class="cls-1" d="M48.79,20.47a3.21,3.21,0,0,0-1.2-.93A3.5,3.5,0,0,0,46,19.17a3.71,3.71,0,0,0-.93.12,2.48,2.48,0,0,0-.85.36,1.9,1.9,0,0,0-.63.63,1.81,1.81,0,0,0-.24.95,1.7,1.7,0,0,0,.21.87,2,2,0,0,0,.58.62,3.67,3.67,0,0,0,.91.44c.35.13.74.26,1.16.39s1,.33,1.5.53a6.18,6.18,0,0,1,1.43.78,4,4,0,0,1,1.06,1.24,3.79,3.79,0,0,1,.41,1.84,4.83,4.83,0,0,1-.44,2.12A4.39,4.39,0,0,1,49,31.55a5.1,5.1,0,0,1-1.75.9,7.2,7.2,0,0,1-2.1.29,7.94,7.94,0,0,1-2.87-.54A5.49,5.49,0,0,1,40,30.6l1.91-1.79A3.88,3.88,0,0,0,43.39,30a4.22,4.22,0,0,0,1.81.44,4,4,0,0,0,1-.12A2.26,2.26,0,0,0,47,30a2.12,2.12,0,0,0,.64-.69,2,2,0,0,0,.24-1,1.72,1.72,0,0,0-.27-1,2.6,2.6,0,0,0-.75-.68,5.94,5.94,0,0,0-1.1-.5l-1.34-.44a12.53,12.53,0,0,1-1.36-.51,4.49,4.49,0,0,1-1.22-.79,3.59,3.59,0,0,1-.88-1.2,4,4,0,0,1-.34-1.77,3.87,3.87,0,0,1,.48-2A4.1,4.1,0,0,1,42.39,18a5.67,5.67,0,0,1,1.76-.81,8,8,0,0,1,2-.26,7.18,7.18,0,0,1,2.33.4,5.86,5.86,0,0,1,2,1.21Z"/><path class="cls-1" d="M55.51,19.66H50.9V17.32H62.79v2.34H58.18v12.7H55.51Z"/><path class="cls-1" d="M63.69,17.32h10v2.34H66.36v3.82h6.91v2.25H66.36V30H74v2.38H63.69Z"/><path class="cls-1" d="M75.47,17.32h5.22a9.93,9.93,0,0,1,2.06.22,5.36,5.36,0,0,1,1.78.74,3.81,3.81,0,0,1,1.24,1.34,4,4,0,0,1,.47,2,3.84,3.84,0,0,1-.93,2.67,4.59,4.59,0,0,1-2.51,1.39l4,6.67H83.58L80.1,26h-2v6.37H75.47Zm4.86,6.48a8.89,8.89,0,0,0,1.15-.08,3.65,3.65,0,0,0,1-.32,2.09,2.09,0,0,0,.75-.67,1.92,1.92,0,0,0,.3-1.12,1.7,1.7,0,0,0-.28-1,1.91,1.91,0,0,0-.7-.62,2.86,2.86,0,0,0-1-.32,6.38,6.38,0,0,0-1.05-.09H78.14V23.8Z"/><path class="cls-1" d="M20.15,47.06a1,1,0,0,1,.46-.47,1.37,1.37,0,0,1,.69-.18,1.19,1.19,0,0,1,1,.39,1.5,1.5,0,0,1,.32,1v2.09H22.1V48a2.46,2.46,0,0,0-.05-.49.87.87,0,0,0-.14-.37.78.78,0,0,0-.29-.25,1.17,1.17,0,0,0-.45-.08.84.84,0,0,0-.38.08.85.85,0,0,0-.33.24,1.22,1.22,0,0,0-.24.42,2,2,0,0,0-.08.59v1.75h-.5V44.4h.5v2.66Z"/><path class="cls-1" d="M27.27,48.21a1.87,1.87,0,0,1-.13.71,1.73,1.73,0,0,1-.38.57,1.67,1.67,0,0,1-.58.38,2.11,2.11,0,0,1-1.46,0,1.67,1.67,0,0,1-.58-.38,1.7,1.7,0,0,1-.37-.57,1.9,1.9,0,0,1,0-1.43,1.7,1.7,0,0,1,.37-.57,1.65,1.65,0,0,1,.58-.37,2,2,0,0,1,1.46,0,1.65,1.65,0,0,1,.58.37,1.73,1.73,0,0,1,.38.57A1.88,1.88,0,0,1,27.27,48.21Zm-.52,0a1.4,1.4,0,0,0-.1-.54,1.36,1.36,0,0,0-.25-.44,1.33,1.33,0,0,0-.41-.29,1.28,1.28,0,0,0-1.48.29,1.22,1.22,0,0,0-.26.44,1.64,1.64,0,0,0,0,1.07,1.14,1.14,0,0,0,.26.44,1.18,1.18,0,0,0,.4.29,1.31,1.31,0,0,0,1.49-.29,1.26,1.26,0,0,0,.25-.44A1.39,1.39,0,0,0,26.75,48.21Z"/><path class="cls-1" d="M29.88,46.91h-1v2a1.3,1.3,0,0,0,0,.31.36.36,0,0,0,.11.19.34.34,0,0,0,.16.1l.2,0,.22,0a.76.76,0,0,0,.21-.08l0,.43a1.29,1.29,0,0,1-.28.08,1.48,1.48,0,0,1-.31,0,1.55,1.55,0,0,1-.29,0,.62.62,0,0,1-.28-.14.78.78,0,0,1-.22-.28,1,1,0,0,1-.08-.46V46.91h-.71V46.5h.71v-1h.49v1h1Z"/><path class="cls-1" d="M33.76,48.1v.11s0,.08,0,.13H30.92a1.29,1.29,0,0,0,.1.48,1.16,1.16,0,0,0,.26.39,1.56,1.56,0,0,0,.4.27,1.3,1.3,0,0,0,.49.1,1.19,1.19,0,0,0,.66-.18,1.42,1.42,0,0,0,.43-.41l.37.29a1.79,1.79,0,0,1-.67.55,1.93,1.93,0,0,1-.79.17,1.83,1.83,0,0,1-.71-.13,1.79,1.79,0,0,1-.56-.38,1.85,1.85,0,0,1-.36-.57,1.87,1.87,0,0,1-.14-.71,2.09,2.09,0,0,1,.13-.72,1.7,1.7,0,0,1,.37-.57,1.68,1.68,0,0,1,.54-.37,1.79,1.79,0,0,1,1.39,0,1.38,1.38,0,0,1,.51.36,1.44,1.44,0,0,1,.31.54A2,2,0,0,1,33.76,48.1Zm-.51-.16a1.19,1.19,0,0,0-.31-.8,1,1,0,0,0-.82-.31,1.18,1.18,0,0,0-.46.09,1.15,1.15,0,0,0-.37.25,1.07,1.07,0,0,0-.25.35,1.09,1.09,0,0,0-.11.42Z"/><path class="cls-1" d="M35.33,49.91h-.49V44.4h.49Z"/><path class="cls-1" d="M41.69,48.72l1.16,1.19h-.73l-.73-.76a2.4,2.4,0,0,1-.69.64,1.81,1.81,0,0,1-.9.21,2.18,2.18,0,0,1-.63-.09,1.8,1.8,0,0,1-.51-.28,1.36,1.36,0,0,1-.35-.44,1.64,1.64,0,0,1,0-1.15,1.33,1.33,0,0,1,.25-.41,1.78,1.78,0,0,1,.38-.34,3,3,0,0,1,.47-.25,3,3,0,0,1-.23-.26,3,3,0,0,1-.2-.29,1.73,1.73,0,0,1-.14-.31,1,1,0,0,1-.05-.35,1.19,1.19,0,0,1,.1-.51,1.36,1.36,0,0,1,.27-.39,1.27,1.27,0,0,1,.41-.23,1.38,1.38,0,0,1,.5-.08,1.51,1.51,0,0,1,.48.07,1.23,1.23,0,0,1,.4.23,1.22,1.22,0,0,1,.27.36,1.31,1.31,0,0,1,.1.5,1.15,1.15,0,0,1-.1.46,1.5,1.5,0,0,1-.26.36,2.28,2.28,0,0,1-.38.3l-.42.23,1.2,1.24.72-1.25h.59Zm-2-1.35a1.94,1.94,0,0,0-.7.5,1.09,1.09,0,0,0-.24.71.9.9,0,0,0,.08.4,1,1,0,0,0,.23.31,1.33,1.33,0,0,0,.35.2,1.16,1.16,0,0,0,.42.07,1.2,1.2,0,0,0,.7-.19A1.84,1.84,0,0,0,41,48.8Zm1.11-1.59a.71.71,0,0,0-.21-.53.69.69,0,0,0-.52-.2.8.8,0,0,0-.57.21.79.79,0,0,0-.21.58.77.77,0,0,0,0,.29,1.51,1.51,0,0,0,.15.28,1.55,1.55,0,0,0,.19.24l.17.17a2.79,2.79,0,0,0,.34-.18,2.32,2.32,0,0,0,.3-.22.89.89,0,0,0,.22-.29A.68.68,0,0,0,40.78,45.78Z"/><path class="cls-1" d="M45.44,46.89c0-.14,0-.28,0-.39h.47a2.66,2.66,0,0,1,0,.3c0,.12,0,.21,0,.28h0a1.2,1.2,0,0,1,.44-.48,1.18,1.18,0,0,1,.66-.19h.17l.16,0-.07.47-.14,0h-.21a1,1,0,0,0-.38.07.9.9,0,0,0-.32.23,1.08,1.08,0,0,0-.21.4,1.7,1.7,0,0,0-.09.59v1.74h-.49V47.25C45.45,47.16,45.44,47,45.44,46.89Z"/><path class="cls-1" d="M51.18,48.1v.11a.62.62,0,0,1,0,.13H48.34a1.52,1.52,0,0,0,.1.48,1.19,1.19,0,0,0,.27.39,1.36,1.36,0,0,0,.39.27,1.3,1.3,0,0,0,.49.1,1.22,1.22,0,0,0,.67-.18,1.37,1.37,0,0,0,.42-.41l.38.29a1.82,1.82,0,0,1-.68.55,1.9,1.9,0,0,1-.79.17,1.78,1.78,0,0,1-.7-.13,1.59,1.59,0,0,1-.56-.38,1.7,1.7,0,0,1-.37-.57,1.87,1.87,0,0,1-.14-.71,2.09,2.09,0,0,1,.13-.72,1.7,1.7,0,0,1,.37-.57,1.72,1.72,0,0,1,.55-.37,1.69,1.69,0,0,1,.68-.14,1.71,1.71,0,0,1,.7.14,1.38,1.38,0,0,1,.51.36,1.44,1.44,0,0,1,.31.54A2,2,0,0,1,51.18,48.1Zm-.5-.16a1.3,1.3,0,0,0-.31-.8,1.07,1.07,0,0,0-.82-.31,1.14,1.14,0,0,0-.46.09,1.09,1.09,0,0,0-.38.25,1.24,1.24,0,0,0-.25.35,1.31,1.31,0,0,0-.11.42Z"/><path class="cls-1" d="M53.78,46.91h-1v2a.93.93,0,0,0,0,.31.43.43,0,0,0,.1.19.37.37,0,0,0,.17.1l.2,0,.22,0a.9.9,0,0,0,.21-.08l0,.43a1.07,1.07,0,0,1-.27.08,1.48,1.48,0,0,1-.31,0,1.55,1.55,0,0,1-.29,0,.71.71,0,0,1-.29-.14.76.76,0,0,1-.21-.28,1,1,0,0,1-.08-.46V46.91h-.71V46.5h.71v-1h.49v1h1Z"/><path class="cls-1" d="M54.55,46.89c0-.14,0-.28,0-.39H55a2.66,2.66,0,0,1,0,.3c0,.12,0,.21,0,.28h0a1.11,1.11,0,0,1,.43-.48,1.18,1.18,0,0,1,.66-.19h.17a.45.45,0,0,1,.16,0l-.07.47-.14,0h-.21a1,1,0,0,0-.38.07.87.87,0,0,0-.31.23,1.09,1.09,0,0,0-.22.4,1.7,1.7,0,0,0-.09.59v1.74h-.49V47.25C54.56,47.16,54.55,47,54.55,46.89Z"/><path class="cls-1" d="M60.29,48.1v.11a.62.62,0,0,1,0,.13H57.45a1.3,1.3,0,0,0,.11.48,1.16,1.16,0,0,0,.26.39,1.36,1.36,0,0,0,.39.27,1.34,1.34,0,0,0,.49.1,1.22,1.22,0,0,0,.67-.18A1.42,1.42,0,0,0,59.8,49l.37.29a1.82,1.82,0,0,1-.68.55,1.9,1.9,0,0,1-.79.17,1.78,1.78,0,0,1-.7-.13,1.59,1.59,0,0,1-.56-.38,1.7,1.7,0,0,1-.37-.57,2,2,0,0,1,0-1.43,1.68,1.68,0,0,1,.36-.57,1.72,1.72,0,0,1,.55-.37,1.69,1.69,0,0,1,.68-.14,1.8,1.8,0,0,1,.71.14,1.57,1.57,0,0,1,.51.36,1.59,1.59,0,0,1,.31.54A2,2,0,0,1,60.29,48.1Zm-.5-.16a1.3,1.3,0,0,0-.31-.8,1.06,1.06,0,0,0-.82-.31,1.14,1.14,0,0,0-.46.09,1.05,1.05,0,0,0-.37.25,1.1,1.1,0,0,0-.26.35,1.31,1.31,0,0,0-.11.42Z"/><path class="cls-1" d="M63.51,47.7a.9.9,0,0,0-.23-.66,1,1,0,0,0-.68-.21,1.32,1.32,0,0,0-.57.11,1.29,1.29,0,0,0-.45.29l-.27-.33a1.58,1.58,0,0,1,.55-.35,2.22,2.22,0,0,1,.79-.14,1.77,1.77,0,0,1,.52.08,1.08,1.08,0,0,1,.42.23,1,1,0,0,1,.28.38,1.35,1.35,0,0,1,.11.55v1.5c0,.13,0,.26,0,.4s0,.27,0,.36h-.44c0-.08,0-.17,0-.27a2.62,2.62,0,0,1,0-.28h0a1.41,1.41,0,0,1-.52.49,1.59,1.59,0,0,1-.72.15,1.9,1.9,0,0,1-.4,0,1.21,1.21,0,0,1-.38-.18,1.17,1.17,0,0,1-.29-.33A1,1,0,0,1,61.1,49a1,1,0,0,1,.2-.63,1.28,1.28,0,0,1,.54-.34,3.29,3.29,0,0,1,.77-.15q.44,0,.9,0Zm-.15.51c-.2,0-.41,0-.61,0a2.81,2.81,0,0,0-.56.1,1.06,1.06,0,0,0-.42.23.5.5,0,0,0-.16.38.71.71,0,0,0,.07.31.61.61,0,0,0,.19.2.76.76,0,0,0,.26.11,1.33,1.33,0,0,0,.28,0,1.13,1.13,0,0,0,.47-.09.86.86,0,0,0,.34-.25,1,1,0,0,0,.22-.36,1.55,1.55,0,0,0,.07-.43v-.25Z"/><path class="cls-1" d="M66.79,46.91h-1v2a.93.93,0,0,0,0,.31.43.43,0,0,0,.1.19.37.37,0,0,0,.17.1l.2,0,.22,0a.9.9,0,0,0,.21-.08l0,.43a1.38,1.38,0,0,1-.27.08,1.3,1.3,0,0,1-.6,0,.65.65,0,0,1-.29-.14.67.67,0,0,1-.21-.28,1,1,0,0,1-.09-.46V46.91h-.7V46.5h.7v-1h.5v1h1Z"/><path class="cls-1" d="M13.46.38h5.22a9.29,9.29,0,0,1,2.06.23,5.14,5.14,0,0,1,1.78.73,3.72,3.72,0,0,1,1.24,1.34,4,4,0,0,1,.47,2,3.83,3.83,0,0,1-.93,2.67,4.59,4.59,0,0,1-2.51,1.39l4,6.67H21.57L18.09,9.05h-2v6.37H13.46Zm4.86,6.48a8.77,8.77,0,0,0,1.15-.08,3.55,3.55,0,0,0,1-.32,2,2,0,0,0,.75-.67,1.92,1.92,0,0,0,.3-1.12,1.77,1.77,0,0,0-.27-1A2,2,0,0,0,20.57,3a2.86,2.86,0,0,0-1-.32,6.38,6.38,0,0,0-1.05-.09H16.13V6.86Z"/><path class="cls-1" d="M25.08,7.86a8.49,8.49,0,0,1,.61-3.26,7.07,7.07,0,0,1,1.68-2.48A7.35,7.35,0,0,1,29.92.55,9,9,0,0,1,33.14,0a9.28,9.28,0,0,1,3.25.55A7.63,7.63,0,0,1,39,2.12,7.23,7.23,0,0,1,40.65,4.6a8.49,8.49,0,0,1,.6,3.26,8.36,8.36,0,0,1-.6,3.22A7.66,7.66,0,0,1,39,13.59a7.77,7.77,0,0,1-2.57,1.63,8.86,8.86,0,0,1-3.25.59,8.62,8.62,0,0,1-3.22-.59,7.39,7.39,0,0,1-4.23-4.14A8.36,8.36,0,0,1,25.08,7.86Zm2.92,0a6.31,6.31,0,0,0,.37,2.22,5,5,0,0,0,1.06,1.75A4.85,4.85,0,0,0,31.06,13a5.11,5.11,0,0,0,2.1.41,5.18,5.18,0,0,0,2.1-.41,4.84,4.84,0,0,0,1.65-1.16A5.16,5.16,0,0,0,38,10.08a6.31,6.31,0,0,0,.37-2.22A6.14,6.14,0,0,0,38,5.69a5.47,5.47,0,0,0-1-1.74,5.11,5.11,0,0,0-1.64-1.17,5.56,5.56,0,0,0-4.24,0A5,5,0,0,0,29.42,4a5.29,5.29,0,0,0-1.05,1.74A6.14,6.14,0,0,0,28,7.86Z"/><path class="cls-1" d="M45.81,8.9,40.16.38h3.27l3.78,6.33L51,.38h3.1L48.48,8.9v6.52H45.81Z"/><path class="cls-1" d="M57.12.38h2.32l6.48,15H62.86L61.46,12H54.94l-1.36,3.44h-3Zm3.4,9.31L58.21,3.57,55.85,9.69Z"/><path class="cls-1" d="M67.05.38h2.67V13h6.4v2.38H67.05Z"/></g></g></svg>