<?xml version="1.0" encoding="UTF-8"?>
<svg id="_レイヤー_2" data-name="レイヤー 2" xmlns="http://www.w3.org/2000/svg" viewBox="0 0 54.61 31.45">
  <defs>
    <style>
      .cls-1 {
        fill: #9b8c64;
      }
    </style>
  </defs>
  <g id="_レイヤー_1-2" data-name="レイヤー 1">
    <g>
      <polygon class="cls-1" points="14.62 25.98 14.63 25.98 14.63 22.09 15.1 22.09 15.1 26.66 14.52 26.66 11.86 22.73 11.85 22.73 11.85 26.66 11.38 26.66 11.38 22.09 11.96 22.09 14.62 25.98"/>
      <path class="cls-1" d="M16.28,26.66h-.51l1.97-4.57h.45l1.96,4.57h-.52l-.5-1.2h-2.36l-.5,1.2ZM16.95,25.04h2.01l-1.01-2.43-1.01,2.43Z"/>
      <path class="cls-1" d="M23.99,22.92c-.16-.17-.35-.3-.57-.39-.22-.09-.47-.14-.76-.14s-.56.05-.79.16c-.23.11-.43.25-.6.43-.16.18-.29.39-.38.63-.09.24-.13.49-.13.76s.04.52.13.76c.09.24.21.45.38.63.16.18.36.32.6.43.24.11.5.16.79.16.26,0,.49-.03.71-.09.22-.06.39-.13.52-.21v-1.39h-1.07v-.41h1.53v2.06c-.25.15-.52.26-.81.34-.29.07-.59.11-.9.11-.34,0-.66-.06-.95-.18-.29-.12-.55-.29-.76-.5-.21-.21-.38-.46-.49-.76-.12-.29-.18-.61-.18-.96s.06-.67.18-.96.29-.54.5-.76c.21-.21.47-.38.76-.5.29-.12.61-.18.95-.18.37,0,.68.06.96.16.27.11.5.26.7.46l-.32.32Z"/>
      <path class="cls-1" d="M25.52,26.66h-.51l1.97-4.57h.45l1.96,4.57h-.52l-.5-1.2h-2.36l-.5,1.2ZM26.19,25.04h2.01l-1.01-2.43-1.01,2.43Z"/>
      <path class="cls-1" d="M32.28,22.83c-.1-.14-.23-.25-.38-.33-.15-.08-.34-.12-.56-.12-.11,0-.23.02-.34.05-.12.03-.22.09-.32.16-.09.07-.17.16-.23.27-.06.11-.09.23-.09.38s.03.27.08.36c.06.1.13.17.22.24.09.07.2.12.32.16.12.04.24.09.37.13.16.05.32.11.48.17.16.06.31.14.43.24.13.1.23.22.32.37.08.15.12.34.12.57s-.04.42-.13.59c-.09.16-.2.3-.34.41-.14.11-.3.19-.47.24-.18.05-.36.08-.54.08-.14,0-.28-.01-.41-.04-.14-.03-.27-.07-.39-.12s-.24-.13-.35-.21c-.11-.09-.2-.18-.28-.3l.4-.3c.1.16.24.3.42.41.18.11.39.17.63.17.12,0,.23-.02.35-.05.12-.04.23-.09.32-.17.1-.07.18-.17.24-.28.06-.11.09-.24.09-.38,0-.16-.03-.29-.09-.4-.06-.11-.15-.2-.25-.27-.1-.07-.22-.13-.35-.18-.13-.05-.27-.09-.42-.14-.15-.05-.3-.1-.45-.16-.15-.06-.28-.14-.39-.24-.12-.1-.21-.22-.28-.36-.07-.14-.11-.32-.11-.52,0-.22.04-.41.13-.57.09-.16.2-.29.34-.39.14-.1.3-.18.47-.23.17-.05.34-.07.51-.07.31,0,.58.05.79.16.22.11.38.24.5.39l-.37.3Z"/>
      <path class="cls-1" d="M33.67,26.66h-.51l1.97-4.57h.45l1.96,4.57h-.52l-.5-1.2h-2.36l-.5,1.2ZM34.34,25.04h2.01l-1.01-2.43-1.01,2.43Z"/>
      <polygon class="cls-1" points="38.69 24.15 38.69 24.15 40.87 22.09 41.53 22.09 39.23 24.17 41.66 26.66 40.98 26.66 38.69 24.23 38.69 24.23 38.69 26.66 38.22 26.66 38.22 22.09 38.69 22.09 38.69 24.15"/>
      <rect class="cls-1" x="42.28" y="22.09" width=".47" height="4.57"/>
      <path class="cls-1" d="M7.28,13.11c-.25-.34-.57-.59-.97-.74-.4-.16-.79-.23-1.18-.23-.49,0-.93.09-1.34.27-.4.18-.75.42-1.03.73-.29.31-.51.68-.67,1.1-.16.42-.23.87-.23,1.36,0,.52.07.99.23,1.42.15.43.37.79.65,1.1.28.31.62.54,1.01.71.39.17.83.26,1.32.26s.96-.1,1.35-.3c.39-.2.71-.47.95-.8l1.35.95c-.42.53-.93.93-1.54,1.22-.61.29-1.31.43-2.12.43-.74,0-1.42-.12-2.04-.37-.62-.24-1.15-.59-1.6-1.03-.45-.44-.79-.97-1.04-1.58-.25-.61-.38-1.28-.38-2.02s.13-1.44.39-2.05c.26-.61.62-1.13,1.08-1.56.46-.43,1-.76,1.62-.99.62-.23,1.3-.35,2.03-.35.3,0,.62.03.95.09.33.06.65.15.95.27.3.12.59.27.86.45.27.18.49.39.68.64l-1.28,1.02Z"/>
      <polygon class="cls-1" points="9.22 10.9 10.9 10.9 10.9 14.72 15.33 14.72 15.33 10.9 17.01 10.9 17.01 20.36 15.33 20.36 15.33 16.16 10.9 16.16 10.9 20.36 9.22 20.36 9.22 10.9"/>
      <polygon class="cls-1" points="18.25 10.9 24.52 10.9 24.52 12.37 19.94 12.37 19.94 14.77 24.28 14.77 24.28 16.19 19.94 16.19 19.94 18.86 24.76 18.86 24.76 20.36 18.25 20.36 18.25 10.9"/>
      <path class="cls-1" d="M30.69,12.87c-.18-.23-.43-.42-.76-.58-.33-.16-.65-.23-.98-.23-.2,0-.39.02-.59.07-.2.05-.37.12-.53.23-.16.1-.29.24-.39.4-.1.16-.15.36-.15.59,0,.21.04.4.13.55.09.15.21.28.37.39.15.11.34.2.57.28.22.08.47.16.73.24.3.1.62.21.94.33.32.13.62.29.9.49.27.21.49.46.67.78.17.31.26.7.26,1.16,0,.51-.09.95-.28,1.33-.19.38-.44.69-.75.94-.31.25-.68.44-1.1.56-.42.13-.86.19-1.32.19-.61,0-1.22-.11-1.8-.34-.59-.23-1.07-.56-1.44-1.01l1.2-1.12c.23.32.54.57.93.76.39.19.77.28,1.14.28.2,0,.4-.02.6-.07.21-.05.39-.13.55-.25.17-.12.3-.26.4-.43.1-.17.15-.39.15-.65s-.06-.46-.17-.62c-.12-.17-.27-.31-.47-.43-.2-.12-.43-.22-.7-.31-.27-.09-.55-.18-.84-.28-.28-.09-.57-.2-.85-.32-.29-.12-.54-.29-.77-.49-.23-.2-.41-.46-.55-.76-.14-.3-.21-.67-.21-1.12,0-.48.1-.9.3-1.24.2-.35.46-.63.79-.86.33-.23.7-.4,1.11-.51.41-.11.84-.17,1.26-.17.48,0,.97.09,1.46.25.49.17.92.42,1.29.76l-1.1,1.2Z"/>
      <polygon class="cls-1" points="34.92 12.37 32.02 12.37 32.02 10.9 39.5 10.9 39.5 12.37 36.6 12.37 36.6 20.36 34.92 20.36 34.92 12.37"/>
      <polygon class="cls-1" points="40.06 10.9 46.33 10.9 46.33 12.37 41.74 12.37 41.74 14.77 46.09 14.77 46.09 16.19 41.74 16.19 41.74 18.86 46.57 18.86 46.57 20.36 40.06 20.36 40.06 10.9"/>
      <path class="cls-1" d="M47.47,10.89h3.29c.45,0,.88.05,1.3.14.42.09.79.25,1.11.46.33.21.59.49.78.84.2.35.29.77.29,1.27,0,.69-.19,1.25-.58,1.68-.39.43-.92.72-1.58.88l2.53,4.2h-2.03l-2.19-4.01h-1.23v4.01h-1.68v-9.46ZM50.53,14.97c.24,0,.48-.02.72-.05.24-.03.46-.1.65-.2.19-.1.35-.24.48-.42.12-.18.19-.42.19-.7,0-.26-.06-.47-.17-.63-.12-.17-.26-.3-.44-.39-.18-.1-.38-.16-.61-.2-.23-.03-.45-.05-.66-.05h-1.52v2.66h1.38Z"/>
      <path class="cls-1" d="M12.68,29.6c.06-.12.15-.22.29-.3.14-.07.28-.11.43-.11.27,0,.48.08.61.24.14.16.2.38.2.64v1.32h-.31v-1.19c0-.11,0-.22-.03-.31-.02-.09-.05-.17-.09-.24l-.18-.15c-.07-.04-.17-.05-.28-.05l-.24.05-.21.16c-.06.07-.11.16-.15.26-.04.11-.06.23-.06.37v1.1h-.31v-3.47h.31v1.67h0Z"/>
      <path class="cls-1" d="M17.16,30.32c0,.16-.03.31-.09.45-.06.14-.14.26-.24.36-.1.1-.22.18-.36.24-.14.06-.3.08-.46.08s-.32-.03-.46-.08c-.14-.06-.26-.14-.36-.24-.1-.1-.18-.22-.24-.36-.06-.14-.08-.29-.08-.45s.03-.31.08-.45c.06-.14.14-.26.24-.36.1-.1.22-.18.36-.24.14-.06.29-.09.46-.09s.32.03.46.09c.14.06.26.14.36.24.1.1.18.22.24.36.06.14.09.29.09.45M16.82,30.32c0-.12-.02-.23-.06-.34-.04-.11-.09-.2-.16-.27-.07-.08-.16-.14-.26-.19-.1-.04-.21-.07-.34-.07s-.24.02-.34.07c-.1.05-.18.11-.26.19-.07.08-.12.17-.16.27-.04.11-.06.22-.06.34s.02.23.06.34c.04.11.09.2.16.28.07.08.16.14.26.18.1.04.21.07.34.07s.24-.02.34-.07c.1-.04.19-.11.26-.18.07-.08.12-.17.16-.28.04-.1.06-.22.06-.34"/>
      <path class="cls-1" d="M18.79,29.51h-.61v1.25l.02.2.07.12.1.06.13.02.13-.02.14-.05v.27s-.16.05-.16.05l-.2.02-.18-.02-.18-.09-.14-.17c-.03-.07-.05-.17-.05-.29v-1.34h-.44v-.26h.44v-.61h.31v.61h.61v.26Z"/>
      <path class="cls-1" d="M21.23,30.26v.15h-1.79c0,.11.03.21.06.3.04.1.1.18.17.25s.15.12.25.17c.09.04.2.06.31.06.16,0,.3-.04.42-.11.12-.08.21-.16.27-.26l.23.18c-.13.16-.27.28-.43.35-.15.07-.32.11-.5.11-.16,0-.31-.03-.44-.08-.14-.06-.25-.14-.35-.24-.1-.1-.17-.22-.23-.36-.06-.14-.09-.29-.09-.45s.03-.31.08-.45c.05-.14.13-.26.23-.36.1-.1.21-.18.35-.24s.27-.08.43-.08c.17,0,.32.03.45.08.13.06.23.13.32.23.09.1.15.21.2.34.04.13.07.27.07.41M20.92,30.16c0-.2-.07-.37-.2-.5-.12-.13-.29-.2-.52-.2-.1,0-.2.02-.29.06l-.23.16-.16.22c-.04.09-.06.17-.07.26h1.46Z"/>
      <rect class="cls-1" x="21.91" y="27.93" width=".31" height="3.47"/>
      <path class="cls-1" d="M26.22,30.64l.73.75h-.46l-.46-.48c-.13.18-.28.32-.44.41-.16.09-.34.13-.56.13-.14,0-.27-.02-.39-.06-.12-.04-.23-.1-.32-.17-.09-.08-.17-.17-.22-.28-.05-.11-.08-.24-.08-.39,0-.12.02-.23.06-.33.04-.1.09-.19.16-.26.07-.08.15-.15.24-.21.09-.06.19-.11.3-.16l-.14-.16-.13-.18-.09-.2-.03-.22c0-.12.02-.23.06-.33.04-.1.1-.17.17-.24.07-.07.16-.12.26-.15.1-.03.2-.05.31-.05s.21.02.3.05c.09.03.18.08.25.14.07.06.13.14.17.23.04.09.06.19.06.31,0,.11-.02.2-.06.29l-.16.23-.23.18c-.09.05-.18.1-.27.15l.76.78.45-.79h.37l-.6,1.01ZM24.96,29.8c-.2.09-.34.19-.45.31-.1.12-.15.27-.15.44,0,.09.02.18.05.25l.15.19.22.13c.08.03.17.05.26.05.18,0,.32-.04.44-.12.12-.08.23-.2.33-.36l-.86-.9ZM25.65,28.79c0-.14-.04-.24-.13-.33-.09-.09-.2-.13-.33-.13-.14,0-.26.05-.35.14-.09.09-.14.21-.14.36l.04.18.09.18.12.15.11.11.22-.11.19-.14.14-.18.05-.22"/>
      <path class="cls-1" d="M28.58,29.5c0-.09,0-.17-.01-.25h.3v.19s.02.17.02.17h0c.06-.13.15-.23.27-.3.12-.08.26-.12.41-.12h.11s.1.02.1.02l-.04.3-.09-.02h-.13s-.24.04-.24.04l-.2.15c-.06.07-.1.15-.14.25-.04.1-.05.23-.05.37v1.1h-.31v-1.67c0-.06,0-.13,0-.22"/>
      <path class="cls-1" d="M32.19,30.26v.15h-1.79c0,.11.02.21.06.3.04.1.09.18.17.25s.15.12.25.17c.09.04.2.06.31.06.16,0,.3-.04.42-.11.12-.08.21-.16.27-.26l.23.18c-.13.16-.27.28-.42.35-.15.07-.32.11-.5.11-.16,0-.31-.03-.44-.08-.14-.06-.25-.14-.35-.24-.1-.1-.18-.22-.23-.36-.06-.14-.08-.29-.08-.45s.03-.31.08-.45c.06-.14.13-.26.23-.36.1-.1.21-.18.34-.24s.27-.08.43-.08c.17,0,.32.03.45.08s.23.13.32.23c.09.1.15.21.2.34.04.13.07.27.07.41M31.88,30.16c0-.2-.07-.37-.2-.5-.12-.13-.29-.2-.52-.2-.1,0-.2.02-.29.06l-.23.16-.16.22c-.04.09-.06.17-.07.26h1.46Z"/>
      <path class="cls-1" d="M33.83,29.51h-.61v1.25l.02.2.07.12.1.06.13.02.13-.02.14-.05v.27s-.16.05-.16.05l-.2.02-.18-.02-.18-.09-.14-.17c-.04-.07-.05-.17-.05-.29v-1.34h-.45v-.26h.45v-.61h.31v.61h.61v.26Z"/>
      <path class="cls-1" d="M34.31,29.5c0-.09,0-.17-.01-.25h.3v.19s.02.17.02.17h0c.06-.13.15-.23.28-.3.12-.08.26-.12.41-.12h.11s.1.02.1.02l-.04.3-.09-.02h-.13s-.24.04-.24.04l-.2.15c-.06.07-.1.15-.14.25-.04.1-.05.23-.05.37v1.1h-.31v-1.67c0-.06,0-.13,0-.22"/>
      <path class="cls-1" d="M37.93,30.26v.15h-1.79c0,.11.02.21.06.3.04.1.09.18.17.25s.15.12.25.17c.09.04.2.06.31.06.16,0,.3-.04.42-.11.12-.08.21-.16.27-.26l.23.18c-.13.16-.27.28-.42.35-.15.07-.32.11-.5.11-.16,0-.31-.03-.44-.08-.14-.06-.25-.14-.35-.24-.1-.1-.18-.22-.23-.36-.06-.14-.08-.29-.08-.45s.03-.31.08-.45c.06-.14.13-.26.23-.36.1-.1.21-.18.34-.24s.27-.08.43-.08c.17,0,.32.03.45.08.13.06.23.13.32.23.09.1.15.21.2.34.04.13.07.27.07.41M37.61,30.16c0-.2-.07-.37-.2-.5-.12-.13-.29-.2-.52-.2-.1,0-.2.02-.29.06l-.23.16-.16.22c-.04.09-.06.17-.07.26h1.46Z"/>
      <path class="cls-1" d="M39.95,30.01c0-.19-.05-.32-.15-.41-.1-.09-.24-.14-.43-.14-.13,0-.25.02-.36.07-.11.05-.2.11-.28.18l-.17-.21c.09-.09.21-.16.35-.22.15-.06.31-.09.49-.09.12,0,.23.02.33.05.1.03.19.08.27.14.08.06.14.15.18.24.04.1.06.21.06.34v1.2s.04.22.04.22h-.28l-.02-.17v-.18h-.02c-.1.14-.21.25-.33.31-.12.06-.27.09-.45.09l-.26-.03-.24-.11-.18-.2c-.05-.08-.07-.18-.07-.3,0-.17.04-.3.12-.39.08-.1.2-.17.34-.22s.3-.08.48-.09c.18-.01.37-.02.57-.02v-.07ZM39.86,30.32c-.13,0-.26,0-.39.02-.13.01-.25.03-.35.06-.11.03-.19.08-.26.14-.07.06-.1.14-.1.24l.04.19.12.13.16.07.18.02c.11,0,.21-.02.29-.06l.22-.16.13-.23c.03-.09.05-.17.05-.27v-.16h-.09Z"/>
      <path class="cls-1" d="M42.01,29.51h-.61v1.25l.02.2.07.12.1.06.13.02.13-.02.14-.05v.27s-.16.05-.16.05l-.2.02-.18-.02-.18-.09-.14-.17c-.04-.07-.05-.17-.05-.29v-1.34h-.45v-.26h.45v-.61h.31v.61h.61v.26Z"/>
      <path class="cls-1" d="M8.47.24h3.29c.45,0,.88.05,1.3.14.42.09.79.25,1.11.46.32.21.59.49.78.84.2.35.29.77.29,1.27,0,.69-.19,1.24-.58,1.68-.39.43-.92.72-1.58.88l2.53,4.2h-2.03l-2.19-4.01h-1.23v4.01h-1.68V.24ZM11.53,4.32c.24,0,.48-.02.72-.05.24-.04.46-.1.65-.2.19-.1.35-.24.47-.42.12-.18.19-.42.19-.7,0-.26-.06-.47-.17-.63-.12-.17-.26-.3-.44-.39-.18-.1-.38-.16-.61-.2-.23-.04-.45-.05-.66-.05h-1.52v2.66h1.38Z"/>
      <path class="cls-1" d="M15.78,4.94c0-.76.13-1.44.38-2.05.25-.61.61-1.13,1.06-1.56.45-.43.98-.76,1.6-.99.62-.23,1.29-.35,2.02-.35s1.42.12,2.04.35c.62.23,1.16.56,1.62.99.45.43.81.95,1.06,1.56.25.61.38,1.29.38,2.05s-.13,1.41-.38,2.02c-.26.61-.61,1.14-1.06,1.58-.45.44-.99.78-1.62,1.03s-1.3.37-2.04.37-1.41-.12-2.02-.37c-.62-.24-1.15-.59-1.6-1.03-.45-.44-.8-.97-1.06-1.58-.25-.61-.38-1.28-.38-2.02M17.61,4.94c0,.51.08.97.23,1.4.15.42.38.79.67,1.1.29.31.63.55,1.03.73.4.17.84.26,1.32.26s.92-.09,1.32-.26c.4-.17.75-.42,1.04-.73.29-.31.51-.68.67-1.1.16-.42.23-.89.23-1.4s-.08-.94-.23-1.36c-.16-.42-.38-.78-.66-1.1-.28-.31-.63-.56-1.03-.73-.4-.18-.85-.27-1.34-.27s-.93.09-1.33.27c-.4.18-.74.42-1.02.73-.29.31-.51.68-.66,1.1-.16.42-.23.87-.23,1.36"/>
      <polygon class="cls-1" points="28.81 5.6 25.26 .24 27.32 .24 29.7 4.22 32.1 .24 34.05 .24 30.5 5.6 30.5 9.7 28.81 9.7 28.81 5.6"/>
      <path class="cls-1" d="M35.93.24h1.46l4.08,9.46h-1.92l-.88-2.17h-4.1l-.86,2.17h-1.88L35.93.24ZM38.07,6.09l-1.46-3.85-1.48,3.85h2.94Z"/>
      <polygon class="cls-1" points="42.17 .24 43.86 .24 43.86 8.2 47.88 8.2 47.88 9.7 42.17 9.7 42.17 .24"/>
    </g>
  </g>
</svg>