<?xml version="1.0" encoding="UTF-8"?>
<svg id="_レイヤー_2" data-name="レイヤー 2" xmlns="http://www.w3.org/2000/svg" viewBox="0 0 81.68 37.18">
  <defs>
    <style>
      .cls-1 {
        fill: #9b8c64;
      }
    </style>
  </defs>
  <g id="_レイヤー_1-2" data-name="レイヤー 1">
    <g>
      <path class="cls-1" d="M49.33,10.92c.5-1.88.24-3.85-.73-5.54-.31-.54-.68-1.03-1.11-1.47-.1-.1-.26-.12-.38-.05-.1.06-.16.16-.16.28v.09c.17.59.25,1.18.25,1.77,0,1.18-.32,2.34-.9,3.35.19-.65.29-1.33.29-2.04,0-4.02-3.25-7.3-7.25-7.3-.61,0-1.23.08-1.82.23-.14.04-.24.16-.24.31s.1.27.24.31c2.92.76,4.95,3.41,4.95,6.45,0,2.14-1.01,4.08-2.62,5.31-.63-.07-1.25-.23-1.83-.48-.26-.58-.43-1.21-.51-1.84.88-1.2,2.15-2.11,3.66-2.5.14-.04.24-.16.24-.31s-.1-.27-.24-.31c-.6-.15-1.21-.23-1.83-.23-4,0-7.25,3.27-7.25,7.3s3.25,7.3,7.25,7.3c.62,0,1.23-.08,1.83-.23.14-.04.24-.16.24-.31s-.1-.27-.24-.31c-1.77-.46-3.21-1.62-4.07-3.13.46.49,1,.92,1.6,1.27,1.68.98,3.63,1.23,5.5.73,1.87-.51,3.43-1.71,4.4-3.4.31-.53.55-1.11.71-1.71.04-.14-.02-.29-.14-.36-.12-.07-.28-.05-.38.05-1.28,1.31-2.99,1.99-4.72,1.98.65-.16,1.29-.42,1.89-.77,1.68-.98,2.88-2.55,3.38-4.43M43.11,7.3c0-2.89-1.69-5.46-4.23-6.63.16-.01.31-.03.47-.03,3.65,0,6.62,2.99,6.62,6.66,0,3.67-2.97,6.66-6.62,6.67-.16,0-.31-.02-.47-.03,2.54-1.17,4.23-3.74,4.23-6.64M37.63,13.72c-.39-.4-.74-.85-1.03-1.35-.08-.14-.14-.28-.21-.42.82.58,1.73.98,2.69,1.18-.45.25-.94.45-1.45.6M35.95,10.75c.14-.54.36-1.07.65-1.58.08-.14.18-.27.27-.41-.02.23-.05.47-.05.7,0,.77.12,1.52.36,2.24-.44-.26-.85-.58-1.23-.96M39.82,7.6c-.91.42-1.7,1.02-2.36,1.75,0-.52.08-1.04.21-1.56.54-.14,1.1-.22,1.68-.22.16,0,.31.02.47.03M39.82,20.87c-.16.01-.31.03-.47.03-3.65,0-6.62-2.99-6.62-6.67,0-2.62,1.51-4.89,3.71-5.98-.14.19-.27.39-.39.6-1.19,2.08-1.25,4.51-.37,6.56.39,2.4,1.94,4.45,4.13,5.46M48.06,15.84c-.88,1.54-2.31,2.64-4.02,3.1-1.71.46-3.49.22-5.02-.67-2.12-1.23-3.31-3.48-3.31-5.78,0-.15,0-.29.02-.44.09.21.2.42.32.63.97,1.69,2.53,2.9,4.4,3.4.35.09.71.16,1.06.2,2.26.86,4.79.52,6.75-.88-.07.14-.13.29-.21.43M40.62,15.47c-.72-.19-1.38-.5-1.98-.91.24.02.47.04.71.04,2.38,0,4.5-1.16,5.82-2.96,1.7-1.39,2.67-3.48,2.67-5.66,0-.23-.02-.46-.05-.69.09.13.19.26.27.41.59,1.03.89,2.17.89,3.32,0,.58-.07,1.16-.23,1.73-.46,1.72-1.55,3.16-3.08,4.05-1.53.89-3.32,1.13-5.02.67"/>
      <path class="cls-1" d="M4.65,29.12c0-.64-.04-.73-.35-.82l-.27-.02-.06-.05.13-.06c.35,0,.85.02.89.02s.54-.02.77-.02l.13.06-.06.05c-.06,0-.1,0-.2.02-.21.04-.27.17-.29.45-.02.26-.02.49-.02.83v.89c0,.36,0,.37-.1.43-.51.27-1.22.36-1.67.36-.6,0-1.72-.08-2.6-.85-.48-.42-.94-1.27-.94-2.26,0-1.27.61-2.17,1.32-2.62.71-.45,1.49-.5,2.1-.5.5,0,1.06.1,1.21.14.17.04.44.07.64.08l.1.07c0,.11-.05.33-.05,1.13,0,.13-.02.17-.07.17l-.05-.12c0-.11-.05-.33-.17-.52-.2-.3-.84-.64-1.85-.64-.5,0-1.09.05-1.69.52-.46.37-.78,1.09-.78,2.02,0,1.12.56,1.93.84,2.2.62.61,1.34.85,2.07.85.28,0,.69-.05.9-.17.1-.06.16-.14.16-.28v-1.35Z"/>
      <path class="cls-1" d="M8.16,26.73c.08-.2.1-.23.15-.23.06,0,.08.08.15.22.11.26,1.1,2.73,1.48,3.65.22.54.39.61.53.66.09.03.18.04.25.04l.08.05-.14.05c-.09,0-.55,0-.97-.01-.12,0-.22,0-.22-.04l.04-.04s.1-.06.06-.16l-.55-1.38-.06-.04h-1.42l-.06.05-.35.96c-.06.15-.09.3-.09.4,0,.12.11.16.21.16h.06l.06.05-.09.05c-.15,0-.48-.02-.55-.02-.06,0-.37.02-.62.02l-.12-.05.06-.05h.18c.28-.05.4-.26.52-.56l1.45-3.76ZM8.85,29.23l.02-.04-.61-1.64c-.03-.09-.07-.09-.11,0l-.57,1.64.02.04h1.25Z"/>
      <path class="cls-1" d="M11.46,28.34c0-.93,0-1.1-.01-1.29-.01-.21-.05-.3-.25-.33h-.21s-.05-.06-.05-.06l.1-.05c.28,0,.69.01.73.01.06,0,.58-.01.77-.01.39,0,.83.04,1.15.26.16.11.43.4.43.82,0,.45-.18.88-.76,1.37.5.64.93,1.18,1.29,1.55.33.34.53.4.69.42.12.02.18.02.22.02l.05.05s-.03.05-.15.05h-.39c-.35,0-.51-.04-.66-.12-.27-.14-.49-.43-.84-.88-.26-.32-.53-.71-.67-.88l-.08-.03h-.78s-.04.03-.04.03v.14c0,.58,0,1.04.03,1.29.02.18.06.29.24.32l.27.03.05.05-.1.05c-.34,0-.73-.02-.76-.02,0,0-.42.02-.61.02l-.1-.05.05-.05.19-.03c.12-.03.13-.14.16-.32.03-.25.03-.72.03-1.3v-1.06ZM11.99,28.85l.04.08c.09.05.41.09.68.09.15,0,.32,0,.46-.11.21-.14.37-.46.37-.92,0-.75-.41-1.18-1.07-1.18-.18,0-.38.02-.44.03l-.05.07v1.93Z"/>
      <path class="cls-1" d="M16.03,28.34c0-.93,0-1.1-.01-1.29-.01-.2-.05-.3-.25-.33h-.21s-.05-.06-.05-.06l.1-.05c.28,0,.68.01.72.01.07,0,.46-.01.83-.01.62,0,1.75-.06,2.48.69.31.31.6.81.6,1.53,0,.76-.32,1.34-.67,1.69-.27.28-.82.69-1.87.69-.27,0-.6-.02-.86-.04-.27-.02-.48-.03-.51-.03-.02,0-.13,0-.25,0-.13,0-.27.01-.37.01l-.1-.05.05-.05.19-.03c.12-.03.13-.14.16-.32.03-.25.03-.72.03-1.3v-1.06ZM16.59,28.99c0,.64,0,1.19,0,1.31,0,.15.02.37.07.43.08.11.3.24,1.02.24.57,0,1.07-.19,1.44-.54.32-.3.48-.88.48-1.43,0-.76-.33-1.25-.58-1.51-.58-.59-1.26-.67-2-.67-.12,0-.32.02-.37.04l-.08.12v2.01Z"/>
      <path class="cls-1" d="M20.94,28.34c0-.93,0-1.1-.01-1.29-.01-.21-.05-.3-.25-.33l-.21-.02-.05-.05.1-.05c.28,0,.68.01.72.01.04,0,1.33,0,1.47,0,.12,0,.23-.03.28-.04l.09-.03.03.06s-.04.11-.05.28l-.03.4-.06.07-.05-.08-.03-.21c-.04-.1-.1-.14-.44-.18-.1-.01-.82-.02-.89-.02l-.04.06v1.63l.04.06c.08,0,.89,0,1.03-.02.15-.01.24-.02.3-.08l.09-.08.04.05s-.04.13-.05.33c-.01.12-.03.35-.03.39l-.06.11-.04-.06-.03-.2c-.02-.08-.08-.16-.32-.18-.17-.02-.83-.03-.93-.03l-.04.04v.5c0,.2,0,.9,0,1.02.01.4.13.48.74.48.16,0,.46,0,.62-.06.16-.07.24-.18.28-.42l.06-.09.04.09s-.05.45-.08.58c-.04.16-.1.16-.34.16-.46,0-.82-.02-1.07-.02-.26-.01-.42-.01-.51-.01-.01,0-.13,0-.27,0-.12,0-.26.01-.36.01l-.1-.05.05-.05.19-.03c.12-.02.13-.14.16-.32.03-.25.03-.72.03-1.3v-1.06Z"/>
      <path class="cls-1" d="M24.5,30.33c.01.49.07.64.24.68.11.03.25.04.31.04l.05.05-.11.05c-.35,0-.6-.02-.65-.02s-.32.02-.6.02l-.1-.05.05-.05s.16,0,.25-.04c.15-.04.17-.2.17-.75v-3.44c0-.24.03-.3.08-.3l.24.18c.1.1,1,1.06,1.95,2.05.61.64,1.27,1.35,1.46,1.55l-.06-3.01c0-.39-.04-.52-.23-.56-.11-.02-.25-.03-.3-.03l-.05-.06.12-.04c.28,0,.58.01.65.01s.27-.01.52-.01l.11.04-.07.06h-.15c-.2.06-.22.18-.22.54v3.52c-.01.4-.02.43-.06.43-.06,0-.13-.05-.47-.37-.06-.06-.95-.94-1.61-1.62-.71-.76-1.41-1.49-1.6-1.7l.07,2.83Z"/>
      <path class="cls-1" d="M34.5,28.84c0,.76,0,1.39.04,1.72.02.23.07.4.31.44.11.02.28.03.35.03l.06.05-.13.06c-.43,0-.93-.02-.97-.02s-.54.02-.77.02l-.13-.06.06-.05.24-.03c.16-.03.2-.21.23-.44.04-.33.04-.96.04-1.72v-3.36l-1.17.02c-.49,0-.68.06-.81.25-.09.14-.11.19-.13.25l-.08.08-.04-.07.17-.83.08-.15c.06,0,.13.08.35.1.23.02.53.04.62.04h2.96c.25,0,.43-.02.56-.04.12-.02.19-.04.22-.04l.04.09c0,.24-.02.79-.02.87l-.05.1s-.06-.02-.06-.13v-.09c-.03-.24-.22-.42-.98-.44l-.99-.02v3.36Z"/>
      <path class="cls-1" d="M37.8,28.34c0-.93,0-1.1-.01-1.29-.01-.21-.05-.3-.25-.33l-.21-.02-.05-.05.1-.05c.28,0,.68.01.72.01.04,0,1.33,0,1.47,0,.12,0,.23-.03.28-.04l.09-.03.03.06s-.03.11-.05.28l-.04.4-.06.07-.05-.08-.04-.21c-.04-.1-.1-.14-.44-.18-.1-.01-.82-.02-.89-.02l-.03.06v1.63l.03.06c.08,0,.89,0,1.03-.02.15-.01.24-.02.3-.08l.09-.08.03.05s-.03.13-.05.33c-.01.12-.03.35-.03.39l-.06.11-.04-.06-.03-.2c-.02-.08-.08-.16-.31-.18-.17-.02-.83-.03-.93-.03l-.04.04v.5c0,.2,0,.9,0,1.02.01.4.13.48.74.48.16,0,.46,0,.62-.06.16-.07.24-.18.28-.42l.06-.09.04.09s-.05.45-.08.58c-.04.16-.11.16-.34.16-.46,0-.82-.02-1.07-.02-.26-.01-.42-.01-.51-.01-.01,0-.13,0-.27,0-.12,0-.26.01-.36.01l-.1-.05.05-.05.19-.03c.12-.02.13-.14.16-.32.04-.25.04-.72.04-1.3v-1.06Z"/>
      <path class="cls-1" d="M41.38,28.34c0-.93,0-1.1-.01-1.29-.01-.21-.05-.3-.25-.33h-.21s-.05-.06-.05-.06l.1-.05c.28,0,.69.01.73.01.06,0,.58-.01.77-.01.39,0,.83.04,1.15.26.15.11.43.4.43.82,0,.45-.18.88-.76,1.37.5.64.93,1.18,1.29,1.55.33.34.53.4.69.42.12.02.18.02.22.02l.05.05s-.03.05-.15.05h-.39c-.35,0-.51-.04-.66-.12-.27-.14-.49-.43-.84-.88-.26-.32-.53-.71-.67-.88l-.08-.03h-.79s-.04.03-.04.03v.14c0,.58,0,1.04.03,1.29.02.18.06.29.25.32l.27.03.05.05-.1.05c-.34,0-.73-.02-.76-.02,0,0-.42.02-.61.02l-.1-.05.05-.05.19-.03c.12-.03.13-.14.16-.32.04-.25.04-.72.04-1.3v-1.06ZM41.92,28.85l.04.08c.09.05.41.09.68.09.15,0,.32,0,.46-.11.21-.14.37-.46.37-.92,0-.75-.41-1.18-1.07-1.18-.18,0-.38.02-.44.03l-.05.07v1.93Z"/>
      <path class="cls-1" d="M45.81,28.34c0-.93,0-1.1-.01-1.29-.01-.21-.05-.3-.25-.33h-.21s-.05-.06-.05-.06l.1-.05c.28,0,.69.01.73.01.06,0,.58-.01.77-.01.39,0,.83.04,1.15.26.15.11.43.4.43.82,0,.45-.18.88-.76,1.37.5.64.93,1.18,1.29,1.55.33.34.53.4.69.42.12.02.18.02.22.02l.05.05s-.03.05-.15.05h-.39c-.35,0-.51-.04-.66-.12-.27-.14-.49-.43-.84-.88-.26-.32-.53-.71-.67-.88l-.08-.03h-.79s-.04.03-.04.03v.14c0,.58,0,1.04.03,1.29.02.18.06.29.25.32l.27.03.05.05-.1.05c-.34,0-.73-.02-.76-.02,0,0-.42.02-.61.02l-.1-.05.05-.05.19-.03c.12-.03.13-.14.16-.32.04-.25.04-.72.04-1.3v-1.06ZM46.35,28.85l.04.08c.09.05.41.09.68.09.15,0,.32,0,.46-.11.21-.14.37-.46.37-.92,0-.75-.41-1.18-1.07-1.18-.18,0-.38.02-.44.03l-.05.07v1.93Z"/>
      <path class="cls-1" d="M51.22,26.73c.08-.2.11-.23.15-.23.06,0,.08.08.15.22.11.26,1.1,2.73,1.48,3.65.23.54.39.61.53.66.09.03.18.04.25.04l.08.05-.14.05c-.09,0-.55,0-.97-.01-.12,0-.22,0-.22-.04l.04-.04s.1-.06.06-.16l-.55-1.38-.06-.04h-1.42l-.06.05-.35.96c-.06.15-.09.3-.09.4,0,.12.1.16.21.16h.06l.06.05-.09.05c-.15,0-.48-.02-.55-.02-.06,0-.37.02-.62.02l-.12-.05.06-.05h.18c.28-.05.4-.26.52-.56l1.45-3.76ZM51.91,29.23l.02-.04-.61-1.64c-.03-.09-.07-.09-.11,0l-.57,1.64.02.04h1.25Z"/>
      <path class="cls-1" d="M54.15,30.58c-.6-.52-.75-1.21-.75-1.78,0-.4.15-1.1.69-1.64.37-.36.93-.64,1.88-.64.24,0,.6.02.9.07.23.04.43.09.63.09l.08.06s-.01.12-.03.34c0,.2,0,.53-.01.61,0,.09-.03.13-.07.13l-.05-.13c0-.23-.1-.47-.26-.6-.22-.18-.67-.33-1.21-.33-.79,0-1.17.21-1.39.42-.46.42-.55.96-.55,1.57,0,1.15.9,2.18,2.22,2.18.46,0,.77-.04,1.02-.28.13-.13.22-.39.24-.5l.06-.09.06.09s-.08.56-.15.77c-.03.11-.05.13-.15.18-.25.1-.72.14-1.11.14-.93,0-1.55-.22-2.03-.64"/>
      <path class="cls-1" d="M58.64,28.34c0-.93,0-1.1-.01-1.29-.01-.21-.05-.3-.25-.33l-.21-.02-.05-.05.1-.05c.28,0,.68.01.72.01.04,0,1.33,0,1.47,0,.12,0,.23-.03.28-.04l.08-.03.03.06s-.04.11-.05.28l-.03.4-.06.07-.05-.08-.03-.21c-.04-.1-.1-.14-.44-.18-.11-.01-.82-.02-.89-.02l-.04.06v1.63l.04.06c.08,0,.89,0,1.03-.02.15-.01.24-.02.3-.08l.09-.08.04.05s-.04.13-.05.33c-.01.12-.03.35-.03.39l-.06.11-.04-.06-.03-.2c-.02-.08-.08-.16-.32-.18-.17-.02-.83-.03-.93-.03l-.04.04v.5c0,.2,0,.9,0,1.02.02.4.13.48.74.48.16,0,.46,0,.62-.06.16-.07.24-.18.28-.42l.06-.09.04.09s-.05.45-.08.58c-.04.16-.11.16-.34.16-.46,0-.82-.02-1.07-.02-.26-.01-.42-.01-.51-.01-.01,0-.13,0-.27,0-.12,0-.26.01-.36.01l-.1-.05.05-.05.19-.03c.12-.02.13-.14.16-.32.03-.25.03-.72.03-1.3v-1.06Z"/>
      <path class="cls-1" d="M64.74,31.05c-.11-.06-.12-.09-.12-.3,0-.4.03-.71.04-.84l.06-.13.06.09c0,.07,0,.18.02.29.12.59.64.81,1.17.81.76,0,1.13-.55,1.13-1.06,0-.55-.23-.87-.91-1.43l-.36-.29c-.84-.69-1.03-1.18-1.03-1.72,0-.85.63-1.43,1.63-1.43.31,0,.54.03.73.08.15.03.21.04.28.04l.08.05s-.03.3-.03.84c0,.13-.02.18-.06.18l-.06-.1c0-.1-.06-.31-.1-.4-.05-.09-.26-.42-.99-.42-.54,0-.97.34-.97.92,0,.45.2.74.96,1.33l.22.18c.93.74,1.15,1.23,1.15,1.87,0,.33-.13.93-.67,1.32-.34.24-.76.33-1.19.33-.37,0-.73-.06-1.06-.22"/>
      <path class="cls-1" d="M70.2,26.73c.08-.2.1-.23.15-.23.06,0,.08.08.15.22.11.26,1.1,2.73,1.48,3.65.22.54.39.61.53.66.09.03.18.04.25.04l.08.05-.14.05c-.09,0-.55,0-.98-.01-.12,0-.22,0-.22-.04l.04-.04s.1-.06.05-.16l-.55-1.38-.06-.04h-1.42l-.06.05-.35.96c-.06.15-.09.3-.09.4,0,.12.11.16.21.16h.06l.06.05-.09.05c-.15,0-.48-.02-.55-.02-.06,0-.37.02-.62.02l-.12-.05.06-.05h.18c.28-.05.4-.26.52-.56l1.45-3.76ZM70.89,29.23l.02-.04-.61-1.64c-.04-.09-.07-.09-.11,0l-.57,1.64.02.04h1.25Z"/>
      <path class="cls-1" d="M76.12,29.61c0-.49-.01-.56-.27-.61h-.21s-.05-.06-.05-.06l.1-.05c.28,0,.7.02.73.02.03,0,.41-.02.6-.02l.1.05-.05.05h-.15c-.17.04-.22.13-.23.34,0,.19,0,.37,0,.62v.67c0,.28,0,.28-.08.33-.39.2-.95.27-1.31.27-.47,0-1.35-.06-2.03-.64-.38-.32-.74-.96-.74-1.71,0-.96.48-1.64,1.03-1.97.55-.34,1.17-.38,1.64-.38.39,0,.83.07.95.1.13.03.34.06.5.06l.08.06c0,.08-.03.25-.03.85,0,.1-.03.13-.07.13l-.04-.09c0-.08-.04-.25-.14-.4-.15-.23-.62-.47-1.42-.47-.37,0-.82.03-1.29.39-.36.27-.61.81-.61,1.51,0,.85.43,1.46.65,1.66.49.46,1.01.63,1.58.63.22,0,.5-.02.67-.11.08-.04.13-.07.13-.18v-1.04Z"/>
      <path class="cls-1" d="M79.06,26.73c.08-.2.1-.23.15-.23.06,0,.08.08.15.22.11.26,1.1,2.73,1.48,3.65.23.54.39.61.53.66.09.03.18.04.25.04l.08.05-.14.05c-.09,0-.55,0-.98-.01-.12,0-.22,0-.22-.04l.04-.04s.1-.06.05-.16l-.55-1.38-.06-.04h-1.42l-.06.05-.35.96c-.06.15-.09.3-.09.4,0,.12.1.16.21.16h.06l.06.05-.09.05c-.15,0-.48-.02-.55-.02-.06,0-.37.02-.62.02l-.12-.05.06-.05h.18c.28-.05.4-.26.52-.56l1.45-3.76ZM79.75,29.23l.02-.04-.61-1.64c-.04-.09-.07-.09-.11,0l-.57,1.64.02.04h1.25Z"/>
      <path class="cls-1" d="M26.6,35.85c0,.43,0,.78.02.96.01.13.04.23.17.24l.2.02.04.03-.07.04c-.24,0-.52-.01-.54-.01s-.3.01-.43.01l-.07-.04.03-.03.13-.02c.09-.02.11-.12.13-.24.02-.18.02-.54.02-.96v-.47l-.03-.03h-1.87l-.03.03v.47c0,.43,0,.78.02.96.01.13.04.23.17.24l.2.02.03.03-.07.04c-.24,0-.52-.01-.54-.01s-.3.01-.43.01l-.07-.04.04-.03.13-.02c.09-.02.11-.12.13-.24.02-.18.02-.54.02-.96v-.78c0-.69,0-.82,0-.96-.01-.15-.04-.22-.19-.25h-.15s-.03-.04-.03-.04l.07-.04c.2,0,.48.01.5.01s.3-.01.43-.01l.07.04-.03.03h-.11c-.12.04-.15.11-.16.27,0,.14,0,.27,0,.96v.09l.03.03h1.87l.03-.03v-.09c0-.69,0-.82,0-.96,0-.15-.04-.22-.19-.25h-.15s-.03-.04-.03-.04l.07-.04c.2,0,.48.01.5.01s.3-.01.43-.01l.07.04-.03.03h-.11c-.12.04-.15.11-.16.27,0,.14,0,.27,0,.96v.78Z"/>
      <path class="cls-1" d="M28.82,34.69c.71,0,1.24.45,1.24,1.19s-.5,1.3-1.26,1.3c-.86,0-1.22-.68-1.22-1.25,0-.51.37-1.24,1.24-1.24M28.89,37.06c.28,0,.87-.16.87-1.09,0-.76-.46-1.17-.96-1.17-.53,0-.92.35-.92,1.04,0,.74.44,1.22,1.01,1.22"/>
      <path class="cls-1" d="M31.41,36.22c0,.31,0,.56.02.69,0,.09.03.16.12.18h.14s.03.03.03.03l-.05.03c-.17,0-.37-.01-.39-.01-.02,0-.21.01-.31.01l-.05-.03.03-.02h.09c.06-.03.08-.1.09-.19.01-.13.01-.38.01-.69v-1.34h-.47c-.19,0-.27.03-.32.11l-.05.1-.03.03-.02-.03.07-.33.03-.06.14.04c.09,0,.21.02.25.02h1.18c.1,0,.17,0,.22-.02l.09-.02.02.04c0,.1,0,.31,0,.35l-.02.04-.02-.05v-.04c-.01-.09-.09-.17-.39-.17h-.4s0,1.33,0,1.33Z"/>
      <path class="cls-1" d="M32.92,35.66c0-.49,0-.58,0-.69,0-.11-.03-.16-.14-.18h-.11s-.03-.03-.03-.03l.05-.03h.23s.13.01.13.01h.72s.14-.02.14-.02l.04-.02v.03s-.01.15-.01.15v.21s-.04.03-.04.03l-.03-.04-.02-.11c-.02-.05-.05-.09-.22-.11h-.43s-.02.02-.02.02v.88l.02.03h.5s.15-.05.15-.05l.05-.04v.03s0,.07-.01.18v.2s-.04.06-.04.06l-.02-.03v-.1s-.05-.1-.18-.11l-.45-.02-.02.02v.28c0,.11,0,.48,0,.54,0,.22.06.26.36.26l.3-.03c.08-.04.12-.1.14-.23l.03-.05.02.05-.04.31c-.02.08-.05.08-.17.08-.24,0-.41,0-.53,0-.12,0-.2,0-.25,0h-.13s-.18,0-.18,0l-.05-.03.03-.02h.09c.06-.03.08-.09.09-.19.02-.13.02-.38.02-.69v-.56Z"/>
      <path class="cls-1" d="M35.1,36.22c0,.47.01.67.07.73.05.05.13.07.38.07.17,0,.31,0,.38-.09l.08-.19.03-.04.02.05s-.02.23-.05.32c-.02.07-.03.09-.2.09-.23,0-.39,0-.52-.01-.13,0-.23,0-.32,0h-.13s-.18,0-.18,0l-.05-.03.03-.02h.09c.06-.03.08-.1.09-.19.02-.13.02-.38.02-.69v-.56c0-.49,0-.58,0-.68,0-.11-.03-.16-.14-.18h-.11s-.03-.03-.03-.03l.05-.03c.14,0,.34,0,.36,0s.24,0,.34,0l.05.03-.02.02h-.1c-.09.03-.12.08-.12.19,0,.1,0,.19,0,.68v.57Z"/>
      <path class="cls-1" d="M36.5,37.09l-.05-.12c0-.16.01-.28.02-.34l.02-.05.02.03v.12c.06.23.26.32.48.32.3,0,.45-.22.45-.42,0-.22-.09-.35-.36-.57l-.14-.12c-.33-.28-.41-.47-.41-.69,0-.34.25-.57.65-.57.12,0,.21.01.29.03l.11.02.03.02s-.01.12-.01.34l-.02.07-.03-.04-.04-.16s-.11-.17-.39-.17c-.22,0-.39.14-.39.37,0,.18.08.29.38.53l.09.07c.37.29.46.49.46.74,0,.13-.05.37-.27.53-.14.09-.31.13-.48.13-.15,0-.29-.02-.42-.09"/>
      <path class="cls-1" d="M39.12,36.48c0-.37.24-.62.48-.77-.12-.17-.15-.3-.15-.44,0-.25.26-.58.68-.58.16,0,.3.03.38.08l.04.08c0,.1-.01.32-.02.36l-.03.05-.02-.06-.1-.27c-.07-.07-.18-.14-.32-.14-.19,0-.4.12-.4.41,0,.25.17.45.5.81.11.12.49.48.6.57.09-.12.16-.33.16-.53l-.06-.16-.16-.05-.04-.02.05-.02c.08,0,.2,0,.38.02l.06.06c0,.26-.17.58-.31.75.21.18.35.26.43.31.1.06.26.12.38.12l.04.02-.05.02h-.31c-.23,0-.31-.02-.66-.3-.07.07-.32.34-.79.34-.55,0-.77-.42-.77-.7M40.59,36.78c-.18-.15-.49-.45-.57-.54-.08-.09-.28-.31-.37-.44-.16.11-.28.28-.28.53,0,.4.28.68.63.68.29,0,.49-.12.6-.23"/>
      <path class="cls-1" d="M43.21,35.07c0-.69,0-.82-.01-.96,0-.15-.04-.22-.19-.25h-.15s-.04-.04-.04-.04l.07-.04c.2,0,.48.01.5.01.05,0,.38-.01.52-.01.28,0,.57.03.81.2.11.08.3.3.3.6,0,.33-.14.66-.53,1.03.36.47.66.86.92,1.14.24.25.43.3.54.32h.17s.04.04.04.04l-.11.04h-.31c-.25,0-.36-.02-.47-.08-.19-.1-.34-.32-.59-.65-.19-.24-.39-.54-.48-.66l-.06-.03h-.54s-.03.03-.03.03v.11c0,.43,0,.78.02.96.01.13.04.23.17.24l.2.02.03.03-.07.04c-.24,0-.52-.01-.54-.01,0,0-.28.01-.42.01l-.07-.04.04-.03.13-.02c.09-.02.11-.12.13-.24.02-.19.02-.54.02-.96v-.78ZM43.56,35.46l.03.05c.07.04.27.07.46.07.11,0,.23-.01.33-.09.15-.11.27-.35.27-.68,0-.56-.29-.89-.76-.89-.13,0-.25.01-.29.03l-.04.05v1.45Z"/>
      <path class="cls-1" d="M46.31,35.66c0-.49,0-.58,0-.69,0-.11-.03-.16-.14-.18h-.11s-.03-.03-.03-.03l.05-.03h.23s.13.01.13.01h.72s.14-.02.14-.02l.04-.02v.03s-.01.15-.01.15v.21s-.04.03-.04.03l-.03-.04-.02-.11c-.02-.05-.05-.09-.22-.11h-.43s-.02.02-.02.02v.88l.02.03h.5s.15-.05.15-.05l.05-.04.02.03s-.02.07-.03.18v.2s-.04.06-.04.06l-.02-.03v-.1s-.05-.1-.18-.11l-.45-.02-.02.02v.28c0,.11,0,.48,0,.54,0,.22.06.26.36.26l.3-.03c.08-.04.12-.1.14-.23l.03-.05.02.05-.04.31c-.02.08-.05.08-.17.08-.24,0-.41,0-.53,0-.12,0-.2,0-.25,0h-.13s-.18,0-.18,0l-.05-.03.03-.02h.09c.06-.03.08-.09.09-.19.02-.13.02-.38.02-.69v-.56Z"/>
      <path class="cls-1" d="M48.03,37.09l-.05-.12c0-.16.01-.28.02-.34l.03-.05.02.03v.12c.06.23.26.32.48.32.3,0,.45-.22.45-.42,0-.22-.09-.35-.36-.57l-.14-.12c-.33-.28-.41-.47-.41-.69,0-.34.25-.57.65-.57.12,0,.21.01.29.03l.11.02.03.02s-.01.12-.01.34l-.02.07-.02-.04-.04-.16s-.1-.17-.39-.17c-.22,0-.39.14-.39.37,0,.18.08.29.38.53l.09.07c.37.29.46.49.46.74,0,.13-.05.37-.27.53-.14.09-.31.13-.48.13-.15,0-.29-.02-.42-.09"/>
      <path class="cls-1" d="M50.91,34.69c.71,0,1.24.45,1.24,1.19s-.5,1.3-1.26,1.3c-.86,0-1.22-.68-1.22-1.25,0-.51.37-1.24,1.24-1.24M50.97,37.06c.28,0,.87-.16.87-1.09,0-.76-.46-1.17-.96-1.17-.53,0-.92.35-.92,1.04,0,.74.44,1.22,1.01,1.22"/>
      <path class="cls-1" d="M52.81,35.66c0-.49,0-.58,0-.68,0-.11-.03-.16-.14-.18h-.11s-.03-.03-.03-.03l.05-.03c.14,0,.34.01.36.01.04,0,.27-.01.37-.01.2,0,.41.02.58.14.08.06.22.21.22.43,0,.23-.1.47-.38.73.26.33.47.62.66.81.17.18.3.22.38.23h.12s.03.03.03.03l-.08.02h-.22c-.18,0-.26-.02-.34-.06-.14-.07-.25-.23-.43-.47-.13-.17-.28-.39-.34-.47l-.04-.02h-.39s-.02.02-.02.02v.08c0,.3,0,.55.02.69,0,.09.03.16.12.17h.14s.03.03.03.03l-.05.02c-.17,0-.37,0-.39,0,0,0-.2,0-.3,0l-.05-.02.03-.02h.09c.06-.03.08-.1.09-.19.02-.13.02-.38.02-.69v-.56ZM53.07,35.93l.02.04s.19.05.33.05l.24-.06c.11-.08.19-.25.19-.49,0-.4-.21-.63-.54-.63-.09,0-.18,0-.21.02l-.03.04v1.04Z"/>
      <path class="cls-1" d="M55.7,36.22c0,.31,0,.56.02.69,0,.09.03.16.12.18h.14s.02.03.02.03l-.05.03c-.17,0-.37-.01-.39-.01-.02,0-.22.01-.31.01l-.05-.03.02-.02h.1c.06-.03.08-.1.09-.19.02-.13.02-.38.02-.69v-1.34h-.47c-.2,0-.27.03-.32.11l-.05.1-.03.03-.02-.03.07-.33.03-.06.14.04c.09,0,.21.02.25.02h1.18c.1,0,.17,0,.22-.02l.09-.02.02.04c0,.1,0,.31,0,.35l-.02.04-.03-.05v-.04c-.01-.09-.09-.17-.39-.17h-.4s0,1.33,0,1.33Z"/>
      <path class="cls-1" d="M56.97,37.09l-.05-.12c0-.16.01-.28.02-.34l.02-.05.02.03v.12c.06.23.26.32.48.32.3,0,.45-.22.45-.42,0-.22-.09-.35-.36-.57l-.14-.12c-.33-.28-.41-.47-.41-.69,0-.34.25-.57.65-.57.12,0,.21.01.29.03l.11.02.03.02s-.01.12-.01.34l-.02.07-.03-.04-.04-.16s-.11-.17-.39-.17c-.22,0-.39.14-.39.37,0,.18.08.29.38.53l.09.07c.37.29.46.49.46.74,0,.13-.05.37-.27.53-.14.09-.31.13-.48.13-.15,0-.29-.02-.42-.09"/>
    </g>
  </g>
</svg>