<?xml version="1.0" encoding="UTF-8"?>
<svg id="_レイヤー_2" data-name="レイヤー 2" xmlns="http://www.w3.org/2000/svg" viewBox="0 0 61.86 35.55">
  <defs>
    <style>
      .cls-1 {
        fill: #9b8c64;
      }
    </style>
  </defs>
  <g id="_レイヤー_1-2" data-name="レイヤー 1">
    <g>
      <path class="cls-1" d="M41.05,3.82h0l-3.95-2.98c-.45-.34-.64-.62-.66-.84l-1.56,1.17-3.9,2.94-.39-.3h0l-3.95-2.98c-.45-.34-.64-.62-.66-.84l-1.56,1.17-4.07,3.07c-.45.34-.83.47-1.11.5l1.56,1.17,3.69,2.79.03.03-3.29,2.48c-.45.34-.84.48-1.11.5l1.56,1.17c.02-.21.2-.5.66-.83l8.52-6.42.39.3,3.69,2.79.03.03-3.29,2.48c-.45.34-.84.48-1.11.5l1.56,1.17c.02-.21.21-.5.66-.83l8.69-6.56c.45-.34.83-.48,1.11-.5l-1.56-1.17ZM25.61,7.87l-3.69-2.79-.21-.18,3.93-2.96.14-.1,3.95,2.98-4.07,3.07-.03-.03M36.06,7.87l-3.69-2.79-.22-.18,3.93-2.96.14-.1,3.95,2.98-4.07,3.07-.04-.03"/>
      <path class="cls-1" d="M5.6,22.83c0,.5.1.81.25.97h-1.72c.13-.17.25-.48.25-.97v-2.09H1.47v2.09c0,.5.1.81.25.97H0c.13-.17.25-.48.25-.97v-4.78c0-.5-.11-.81-.25-.97h1.72c-.14.17-.25.48-.25.97v1.81h2.91v-1.81c0-.5-.11-.81-.25-.97h1.72c-.14.17-.25.48-.25.97v4.78Z"/>
      <path class="cls-1" d="M6.76,20.44c0-2.38,1.45-3.49,3.09-3.49s3.11,1.11,3.11,3.49-1.46,3.49-3.11,3.49-3.09-1.11-3.09-3.49M11.62,20.44c0-1.82-.68-2.65-1.77-2.65s-1.75.83-1.75,2.65.67,2.65,1.75,2.65,1.77-.83,1.77-2.65"/>
      <path class="cls-1" d="M18.87,16.93v1.56c-.19-.3-.54-.61-1.12-.61h-.96v4.95c0,.5.1.81.25.97h-1.72c.13-.16.25-.47.25-.97v-4.95h-.96c-.58,0-.93.31-1.13.61v-1.56c.17.12.78.15,1.13.15h3.14c.35,0,.95-.02,1.12-.15"/>
      <path class="cls-1" d="M24.41,22.31l-.18,1.63c-.17-.12-.69-.14-1.19-.14h-3.41c.13-.17.25-.48.25-.97v-4.78c0-.5-.11-.81-.25-.97h3.41c.35,0,.95-.02,1.12-.15v1.56c-.19-.3-.55-.61-1.12-.61h-1.94v2.08h1.4c.55,0,.77-.07.97-.26v1.47c-.15-.21-.42-.42-1.04-.42h-1.32v2.24h1.94c.57,0,1.14-.34,1.37-.68"/>
      <path class="cls-1" d="M30.03,22.24l-.18,1.71c-.16-.12-.69-.15-1.19-.15h-3.41c.13-.16.25-.48.25-.97v-4.78c0-.5-.11-.81-.25-.97h1.72c-.15.17-.25.48-.25.97v4.95h1.87c.64,0,1.21-.41,1.44-.76"/>
      <path class="cls-1" d="M37.88,16.93v1.56c-.19-.3-.55-.61-1.12-.61h-1.95v2.33h1.4c.55,0,.78-.07.97-.26v1.47c-.2-.21-.42-.42-.97-.42h-1.4v1.83c0,.5.1.81.25.97h-1.72c.14-.16.25-.47.25-.97v-4.78c0-.5-.11-.81-.25-.97h3.41c.35,0,.95-.02,1.12-.15"/>
      <path class="cls-1" d="M43.49,22.24l-.18,1.71c-.16-.12-.69-.15-1.19-.15h-3.41c.13-.16.25-.48.25-.97v-4.78c0-.5-.11-.81-.25-.97h1.72c-.15.17-.25.48-.25.97v4.95h1.87c.64,0,1.21-.41,1.44-.76"/>
      <path class="cls-1" d="M48.65,23.8c.11-.16.06-.42-.04-.73l-.28-.86h-2.42l-.27.85c-.08.27-.11.59.01.74h-1.74c.2-.16.44-.39.59-.82l2.19-5.91.85-.21,2.39,6.11c.15.39.35.65.55.82h-1.83ZM48.08,21.46l-.96-2.95h-.05l-.93,2.95h1.94Z"/>
      <path class="cls-1" d="M56.21,20.35c-.15.17-.18.48-.18.83v3.13h-.04c-.27-.21-.61-.37-.95-.42v-.52c-.43.36-.99.55-1.58.55-1.42,0-2.95-1.11-2.95-3.49s1.45-3.49,3.09-3.49c1.19,0,1.85.45,2.27.48l-.1,1.69c-.43-.68-1.17-1.32-2.16-1.32-1.08,0-1.75.83-1.75,2.65,0,1.97.83,2.67,1.71,2.67.51,0,1.04-.25,1.41-.6v-1.45h-.54c-.55,0-.78.04-.97.11v-.93c.2.07.57.11.97.11h1.78Z"/>
      <path class="cls-1" d="M56.98,23l.64-1.07c.22.47.8,1.15,1.82,1.15.74,0,1.17-.42,1.17-.9,0-1.5-3.49-1.21-3.49-3.39,0-.94.85-1.84,2.3-1.84,1.25,0,1.85.6,2.2.59l-.14,1.35c-.45-.55-1.07-1.11-2.07-1.11-.68,0-1.07.4-1.07.86,0,1.43,3.51,1.22,3.51,3.42,0,.95-.89,1.85-2.42,1.85-1.06,0-1.98-.39-2.46-.92"/>
      <path class="cls-1" d="M18.09,29.74c0-1.22.74-1.78,1.58-1.78s1.59.57,1.59,1.78-.74,1.78-1.59,1.78-1.58-.57-1.58-1.78M20.58,29.74c0-.93-.35-1.35-.9-1.35s-.89.42-.89,1.35.34,1.36.89,1.36.9-.42.9-1.36"/>
      <path class="cls-1" d="M14.52,30.7l-.09.84c-.09-.06-.35-.07-.61-.07h-1.75c.07-.08.13-.24.13-.5v-2.44c0-.25-.06-.41-.13-.5h1.75c.18,0,.49-.01.57-.07v.8c-.1-.15-.28-.31-.57-.31h-.99v1.06h.71c.28,0,.4-.04.5-.13v.75c-.08-.1-.22-.22-.53-.22h-.68v1.15h.99c.29,0,.58-.17.7-.35"/>
      <path class="cls-1" d="M50.92,30.96c0,.25.05.41.13.5h-.88c.07-.09.13-.24.13-.5v-2.44c0-.25-.06-.41-.13-.5h.88c-.07.09-.13.24-.13.5v2.44Z"/>
      <path class="cls-1" d="M43.49,31.05l.33-.54c.11.24.41.59.93.59.38,0,.6-.22.6-.46,0-.77-1.78-.62-1.78-1.73,0-.48.43-.94,1.17-.94.64,0,.95.31,1.12.3l-.07.69c-.23-.28-.54-.57-1.06-.57-.35,0-.54.21-.54.44,0,.73,1.79.62,1.79,1.75,0,.49-.46.95-1.24.95-.54,0-1.01-.2-1.26-.47"/>
      <path class="cls-1" d="M2.86,31.05l.33-.54c.11.24.41.59.93.59.38,0,.6-.22.6-.46,0-.77-1.78-.62-1.78-1.73,0-.48.43-.94,1.17-.94.64,0,.95.31,1.12.3l-.07.69c-.23-.28-.54-.57-1.06-.57-.35,0-.54.21-.54.44,0,.73,1.79.62,1.79,1.75,0,.49-.46.95-1.24.95-.54,0-1.01-.2-1.26-.47"/>
      <path class="cls-1" d="M9.06,31.05l.33-.54c.11.24.41.59.93.59.38,0,.6-.22.6-.46,0-.77-1.78-.62-1.78-1.73,0-.48.43-.94,1.17-.94.64,0,.95.31,1.12.3l-.07.69c-.23-.28-.54-.57-1.06-.57-.35,0-.54.21-.54.44,0,.73,1.79.62,1.79,1.75,0,.49-.46.95-1.24.95-.54,0-1.01-.2-1.26-.47"/>
      <path class="cls-1" d="M49.35,30.96c0,.25.05.41.13.5h-.88c.07-.09.13-.24.13-.5v-1.07h-1.49v1.07c0,.25.05.41.13.5h-.88c.07-.09.13-.24.13-.5v-2.44c0-.25-.06-.41-.13-.5h.88c-.07.09-.13.24-.13.5v.92h1.49v-.92c0-.25-.06-.41-.13-.5h.88c-.07.09-.13.24-.13.5v2.44Z"/>
      <path class="cls-1" d="M58.06,31.46c.06-.08.03-.22-.02-.38l-.14-.44h-1.24l-.14.43c-.04.14-.06.3,0,.38h-.89c.1-.08.22-.2.3-.42l1.12-3.02.43-.1,1.22,3.12c.08.2.18.33.28.42h-.94ZM57.77,30.27l-.49-1.51h-.03l-.48,1.51h.99Z"/>
      <path class="cls-1" d="M7.97,31.46c.06-.08.03-.22-.02-.38l-.14-.44h-1.24l-.14.43c-.04.14-.06.3,0,.38h-.89c.1-.08.22-.2.3-.42l1.12-3.02.43-.1,1.22,3.12c.07.2.18.33.28.42h-.94ZM7.68,30.27l-.49-1.51h-.03l-.48,1.51h.99Z"/>
      <path class="cls-1" d="M25.35,30.96c0,.25.05.41.13.5h-.88c.07-.09.13-.24.13-.5v-2.44c0-.25-.06-.41-.13-.5h.88c-.07.08-.13.24-.13.5v2.44ZM26.54,31.46c.04-.09,0-.23-.12-.39l-.95-1.27v-.07l.87-1.34c.13-.19.17-.29.15-.38h.92c-.16.09-.27.2-.39.35l-.92,1.3,1.13,1.42c.15.18.24.26.4.36h-1.08Z"/>
      <path class="cls-1" d="M17.09,31.4c-.24.09-.46.09-.89.09h-.68c-.29,0-.41,0-.41,0l.04-.08c.1-.18.12-.22.12-1.7s-.02-1.45-.12-1.65l-.04-.08s.14,0,.36,0h.66c.73,0,1.41.08,1.41.84,0,.55-.39.79-.76.86.38,0,.89.19.89.85,0,.51-.3.77-.56.87M16.18,28.35h-.36v1.16h.39l.29-.02c.24-.04.45-.22.45-.6,0-.49-.37-.54-.76-.54M16.22,29.87h-.4v1.24h.43c.23,0,.4-.02.48-.06.13-.06.33-.19.33-.55,0-.53-.37-.62-.84-.62"/>
      <path class="cls-1" d="M53.57,31.46l-1.21-2.44h-.02c.07.17.1.33.1.59v1.35c0,.25.05.41.13.5h-.84c.07-.09.13-.24.13-.5v-2.44c0-.25-.06-.41-.13-.5h.73l1.17,2.44"/>
      <path class="cls-1" d="M53.62,30.47h0l1.12-2.44h.68c-.07.08-.13.24-.13.5v2.44c0,.25.06.41.13.5h-.84c.07-.09.13-.24.13-.5v-1.35c0-.27.03-.42.1-.59h-.02l-1.22,2.44"/>
      <path class="cls-1" d="M29.8,28.01l.04.08c.09.17.12.22.12,1.42v.63c0,.15,0,.33-.04.45-.07.29-.29.51-.67.51s-.6-.23-.67-.51c-.03-.11-.04-.3-.04-.45v-.63c0-1.2.03-1.25.12-1.42l.04-.08h-.89l.04.08c.1.19.12.26.12,1.55v.38c0,.59.05.84.23,1.07.23.3.54.44,1.04.44s.81-.14,1.04-.44c.18-.23.23-.48.23-1.07v-.38c0-1.3.02-1.36.12-1.55l.04-.08h-.89Z"/>
      <path class="cls-1" d="M37.8,30.96c0,.25.05.41.13.5h-.88c.07-.09.13-.24.13-.5v-2.44c0-.25-.06-.41-.13-.5h.88c-.07.08-.13.24-.13.5v2.44ZM38.99,31.46c.04-.09,0-.23-.12-.39l-.95-1.27v-.07l.87-1.34c.13-.19.17-.29.15-.38h.92c-.16.09-.27.2-.39.35l-.92,1.3,1.13,1.42c.15.18.24.26.4.36h-1.08Z"/>
      <path class="cls-1" d="M42.18,28.01l.04.08c.09.17.12.22.12,1.42v.63c0,.15-.01.33-.04.45-.07.29-.29.51-.67.51s-.59-.23-.67-.51c-.03-.11-.04-.3-.04-.45v-.63c0-1.2.03-1.25.12-1.42l.04-.08h-.89l.04.08c.1.19.12.26.12,1.55v.38c0,.59.05.84.23,1.07.23.3.54.44,1.04.44s.81-.14,1.04-.44c.18-.23.23-.48.23-1.07v-.38c0-1.3.02-1.36.12-1.55l.04-.08h-.89Z"/>
      <path class="cls-1" d="M35.63,28.01l.04.08c.09.17.12.22.12,1.42v.63c0,.15,0,.33-.04.45-.07.29-.29.51-.67.51s-.6-.23-.67-.51c-.03-.11-.04-.3-.04-.45v-.63c0-1.2.03-1.25.12-1.42l.04-.08h-.89l.04.08c.1.19.12.26.12,1.55v.38c0,.59.05.84.23,1.07.23.3.54.44,1.04.44s.81-.14,1.04-.44c.18-.23.23-.48.23-1.07v-.38c0-1.3.02-1.36.12-1.55l.04-.08h-.89Z"/>
      <path class="cls-1" d="M33.06,28.08l.07-.07h-1.39c-.15,0-.42,0-.49-.06v.68c.09-.13.24-.23.49-.23h.63v1.92c0,.16-.01.37-.04.5-.08.32-.52.37-.75.21,0,0-.2-.14-.31-.35l-.17.62s.2.12.46.2c.27.08.9.08,1.17-.24.2-.25.26-.51.26-1.17v-.87c0-.99.02-1.06.06-1.12"/>
      <path class="cls-1" d="M18.75,34.47c0,.3-.16.6-.48.6-.13,0-.24-.08-.31-.19v.16h-.3s.05-.11.05-.2v-1.18c0-.09-.02-.17-.05-.21l.3-.07v.64c.07-.1.17-.16.31-.16.32,0,.48.3.48.6M18.48,34.47c0-.22-.09-.44-.28-.44-.12,0-.2.08-.24.19v.48c.04.11.12.2.24.2.18,0,.28-.22.28-.43"/>
      <path class="cls-1" d="M18.78,35.39l.12-.24c.04.12.11.19.19.19.07,0,.14-.05.18-.16l.05-.13-.38-.96c-.04-.09-.08-.16-.11-.19h.36l.03.19.22.67h0l.21-.67v-.2h.34l-.11.2-.44,1.17c-.07.2-.23.29-.38.29-.11,0-.21-.05-.28-.16"/>
      <path class="cls-1" d="M22.48,34.28l-.04.18v.7h0l-.21-.09v-.11c-.1.08-.22.12-.35.12-.31,0-.65-.25-.65-.78s.32-.78.69-.78c.27,0,.41.1.5.11l-.02.38c-.1-.15-.26-.29-.48-.29-.24,0-.39.18-.39.59,0,.44.18.59.38.59.11,0,.23-.05.31-.13v-.32h-.12c-.12,0-.17,0-.22.03v-.21s.13.03.22.03h.4Z"/>
      <path class="cls-1" d="M23.4,35.04l-.02-.17c-.07.13-.2.2-.33.2-.2,0-.34-.13-.34-.33s.17-.35.48-.35h.18v-.11c0-.16-.09-.23-.2-.23-.13,0-.27.07-.38.2v-.28c.12,0,.24-.1.44-.1.27,0,.4.15.4.41v.56c0,.09.02.17.05.21h-.28ZM23.37,34.73v-.21h-.18c-.15,0-.23.09-.23.19,0,.12.07.19.19.19.09,0,.18-.06.23-.17"/>
      <path class="cls-1" d="M24.67,33.88l-.04.31-.15-.08c-.09,0-.19.07-.24.18v.56c0,.09.02.16.05.2h-.35s.05-.11.05-.2v-.7c0-.09-.02-.17-.05-.21l.29-.07v.23c.1-.13.22-.23.35-.23h.09"/>
      <path class="cls-1" d="M25.62,35.04v-.16c-.08.11-.19.19-.32.19-.32,0-.48-.3-.48-.6s.16-.6.48-.6c.13,0,.23.06.3.16v-.35c0-.1-.02-.17-.05-.21l.3-.07v1.46c0,.09.02.16.05.2h-.29ZM25.6,34.7v-.48c-.04-.11-.12-.19-.24-.19-.18,0-.28.22-.28.44s.09.43.28.43c.11,0,.19-.09.24-.2"/>
      <path class="cls-1" d="M26.71,34.9c.12,0,.26-.08.36-.22l.04.24c-.09.09-.24.15-.4.15-.32,0-.57-.2-.57-.6s.24-.6.53-.6c.33,0,.49.22.49.54v.14s-.1,0-.1,0h-.65c.02.25.14.37.3.37M26.9,34.39v-.06c0-.15-.05-.3-.23-.3-.15,0-.24.12-.26.36h.49Z"/>
      <path class="cls-1" d="M28.16,34.84v-.55c0-.15-.09-.23-.19-.23-.09,0-.19.06-.26.17v.61c0,.1.02.16.05.2h-.35s.05-.11.05-.2v-.7c0-.09-.02-.17-.05-.21l.29-.07v.21c.11-.14.25-.21.37-.21.19,0,.34.14.34.4v.58c0,.1.02.16.05.2h-.36s.05-.11.05-.2"/>
      <path class="cls-1" d="M30.39,33.52v.35c-.04-.07-.12-.14-.25-.14h-.21v1.1c0,.11.02.18.06.22h-.38s.05-.11.05-.22v-1.1h-.21c-.13,0-.21.07-.25.14v-.35l.25.03h.7l.25-.03"/>
      <path class="cls-1" d="M31.03,34.9c.12,0,.26-.08.36-.22l.04.24c-.09.09-.24.15-.4.15-.32,0-.57-.2-.57-.6s.24-.6.53-.6c.33,0,.49.22.49.54v.14s-.1,0-.1,0h-.65c.02.25.15.37.3.37M31.22,34.39v-.06c0-.15-.05-.3-.23-.3-.14,0-.24.12-.26.36h.49Z"/>
      <path class="cls-1" d="M32.46,33.88l-.04.31-.15-.08c-.09,0-.19.07-.24.18v.56c0,.09.02.16.05.2h-.35s.05-.11.05-.2v-.7c0-.09-.02-.17-.05-.21l.29-.07v.23c.1-.13.22-.23.35-.23h.09"/>
      <path class="cls-1" d="M33.39,33.88l-.04.31-.15-.08c-.09,0-.19.07-.24.18v.56c0,.09.02.16.05.2h-.35s.05-.11.05-.2v-.7c0-.09-.02-.17-.05-.21l.29-.07v.23c.1-.13.22-.23.35-.23h.09"/>
      <path class="cls-1" d="M34.23,35.04l-.02-.17c-.07.13-.2.2-.33.2-.2,0-.34-.13-.34-.33s.17-.35.48-.35h.18v-.11c0-.16-.09-.23-.2-.23-.13,0-.27.07-.38.2v-.28c.12,0,.25-.1.44-.1.27,0,.4.15.4.41v.56c0,.09.02.17.05.21h-.28ZM34.2,34.73v-.21h-.18c-.15,0-.23.09-.23.19,0,.12.07.19.19.19.09,0,.18-.06.23-.17"/>
      <path class="cls-1" d="M34.74,34.47c0-.4.24-.6.53-.6.21,0,.31.1.38.11l-.02.31c-.08-.13-.2-.25-.36-.25s-.27.15-.27.43.1.43.27.43c.15,0,.28-.1.36-.22l.04.23c-.1.09-.24.15-.4.15-.29,0-.53-.2-.53-.6"/>
      <path class="cls-1" d="M36.44,34.9c.12,0,.26-.08.36-.22l.04.24c-.09.09-.24.15-.4.15-.32,0-.57-.2-.57-.6s.24-.6.53-.6c.33,0,.49.22.49.54v.14s-.1,0-.1,0h-.65c.02.25.15.37.3.37M36.63,34.39v-.06c0-.15-.05-.3-.23-.3-.14,0-.24.12-.26.36h.49Z"/>
      <path class="cls-1" d="M38.93,34.83c0,.11.02.18.05.22h-.38s.06-.1.06-.22v-.46h-.65v.46c0,.11.02.18.05.22h-.38s.05-.1.05-.22v-1.06c0-.11-.02-.18-.05-.22h.38s-.05.11-.05.22v.4h.65v-.4c0-.11-.03-.18-.06-.22h.38s-.05.11-.05.22v1.06Z"/>
      <path class="cls-1" d="M39.23,34.47c0-.4.24-.6.54-.6s.54.2.54.6-.24.6-.54.6-.54-.2-.54-.6M40.04,34.47c0-.28-.1-.43-.27-.43s-.27.15-.27.43.1.43.27.43.27-.15.27-.43"/>
      <path class="cls-1" d="M41.22,34.74l.04.21c-.09.08-.19.12-.29.12-.19,0-.35-.14-.35-.39v-.61h-.16s0-.18,0-.18h.16s0-.17,0-.17l.28-.12-.03.19v.12c.14,0,.28,0,.4-.02l-.05.19c-.06-.01-.21-.01-.34-.01v.61c0,.12.06.19.15.19l.2-.13"/>
      <path class="cls-1" d="M42,34.9c.12,0,.26-.08.36-.22l.04.24c-.09.09-.24.15-.4.15-.32,0-.57-.2-.57-.6s.24-.6.53-.6c.33,0,.49.22.49.54v.14s-.1,0-.1,0h-.65c.02.25.15.37.3.37M42.19,34.39v-.06c0-.15-.05-.3-.23-.3-.14,0-.24.12-.26.36h.49Z"/>
      <path class="cls-1" d="M42.74,34.84v-1.18c0-.09-.02-.17-.05-.21l.3-.07v1.46c0,.1.02.16.05.2h-.35s.05-.11.05-.2"/>
      <path class="cls-1" d="M43.27,34.87l.13-.22c.03.13.15.27.33.27.14,0,.22-.07.22-.15,0-.25-.64-.18-.64-.55,0-.21.18-.35.44-.35.21,0,.3.1.38.1l-.02.3c-.08-.12-.2-.24-.36-.24-.12,0-.19.06-.19.14,0,.22.64.18.64.56,0,.22-.22.35-.47.35-.18,0-.35-.06-.46-.2"/>
    </g>
  </g>
</svg>