<?xml version="1.0" encoding="UTF-8"?>
<svg id="_レイヤー_2" data-name="レイヤー 2" xmlns="http://www.w3.org/2000/svg" viewBox="0 0 55.63 49.65">
  <defs>
    <style>
      .cls-1 {
        fill: #9b8c64;
      }
    </style>
  </defs>
  <g id="_レイヤー_1-2" data-name="レイヤー 1">
    <g>
      <path class="cls-1" d="M30.33,42.02c0,.33,0,.67,0,.98.51-.15,1.01-.31,1.4-.46h.03s.11.15.11.15l-.04.08c-.98.42-2.47.86-3.24,1.06l-.17.13c-.14,0-.35-.41-.35-.47l.05-.03c.22,0,.44-.04.57-.06l.43-.1c0-.16,0-.39,0-.63s0-.85-.06-1.09v-.09s.07-.05.07-.05c.08,0,.54.04.54.18,0,.06-.07.12-.17.16l-.07.18c-.02.33-.02.48-.02,1.27l.58-.15c0-.21,0-.59,0-.97,0-.59-.01-.98-.06-1.18v-.08s0-.05.1-.05c.02,0,.52.04.52.16,0,.05-.07.1-.18.14-.08.03-.08.26-.08.65h.29c.1,0,.13,0,.18-.06.18-.23.22-.25.27-.25.13,0,.45.31.45.48,0,.05-.04.09-.14.09h-1.07ZM33.85,42.31c-.07.36-.17.81-.22,1.08v.12c-.01.11.02.18.06.22l.08.2c0,.11-.08.2-.22.2-.07,0-.16-.03-.26-.08-1.04-.59-1.57-1.74-1.77-3.4h-.9c-.48,0-1.45.03-1.87.08-.14.02-.4-.3-.4-.4l.03-.03h0c.54.07,1.72.09,2.29.09h.81c-.02-.24-.04-.49-.04-.76-.01-.31-.02-.61-.07-.91h0s.07-.05.07-.05c.12,0,.58.09.58.22,0,.05-.07.1-.18.15-.09.04-.09.16-.09.57,0,.27.01.53.03.78h.63l.19-.09c.14-.21.21-.29.29-.29.16,0,.55.37.55.53,0,.07-.04.1-.16.1h-1.47c.26,2.23,1.25,2.87,1.37,2.87.04,0,.17-.04.42-1.24l.08-.05.16.09h0ZM30.21,39.79c-.21,0-.67.05-.89.07-.11.01-.31-.25-.31-.34l.03-.03h0c.23.03.72.08,1.02.08h.23c.1,0,.14-.03.19-.1l.2-.21.08-.04c.12,0,.48.31.48.47,0,.05-.05.09-.16.09h-.88ZM32.56,39.72c-.13-.19-.38-.38-.6-.46l-.03-.04.11-.13s.84.16.84.55c0,.11-.07.2-.15.2-.05,0-.12-.03-.18-.12"/>
      <path class="cls-1" d="M36.46,40.43c-.43,2.69-1.42,3.62-1.51,3.62l-.16-.13.02-.04c.71-.76,1.12-2.24,1.32-3.45-.29,0-.46.03-.66.06-.11.01-.3-.25-.3-.34l.04-.03h0c.21.03.66.07.96.07.03-.2.1-.79.1-1.17v-.23s-.02-.05-.02-.05l.07-.05c.14,0,.55.05.55.2,0,.05-.05.1-.17.15-.07.03-.1.05-.11.18-.02.29-.04.62-.1.97h.41c.11,0,.14-.03.19-.09l.18-.22.08-.04c.15,0,.44.34.44.49,0,.06-.04.1-.16.1h-1.18ZM36.05,43.38l-.11.14-.27-.4.03-.02c.11,0,.32-.03.56-.08.07-.27.32-1.51.32-1.88l.04-.09c.07,0,.53.08.53.23l-.14.12c-.06.01-.1.03-.13.14-.1.38-.25.97-.38,1.41.23-.06.48-.13.7-.2-.09-.18-.21-.33-.32-.45v-.04s.12-.12.12-.12c.09,0,.66.56.66.89,0,.16-.08.27-.17.27-.07,0-.14-.07-.18-.23l-.04-.13c-.32.14-.95.34-1.24.44M38.27,43.53c0,.15,0,.28,0,.4,0,.11-.1.19-.21.19-.09,0-.16-.05-.16-.15v-.03c.06-.59.08-1.8.08-2.62,0-.23,0-.43,0-.58-.17.27-.69,1.03-.85,1.03l-.12-.11.03-.05c.64-.64,1.44-2.33,1.52-2.84l.05-.07s.52.14.52.32c0,.07-.07.11-.18.11h-.05c-.06,0-.1.07-.15.18-.1.2-.24.49-.42.82l.07.06h.57c.44-.89.54-1.19.55-1.33l.03-.05s.52.2.52.33c0,.06-.06.1-.18.1h-.01l-.14.07c-.06.1-.36.62-.53.89h.4c.11,0,.14-.03.2-.1l.18-.2.09-.04c.12,0,.46.32.46.49,0,.07-.05.1-.16.1h-1.17c.11.03.18.07.18.11l-.07.09s-.08.05-.08.18c0,.11,0,.24,0,.39h.25c.1,0,.12-.03.18-.1.07-.11.19-.23.23-.23.14,0,.43.35.43.49,0,.06-.04.1-.14.1h-.94v.73h.25c.1,0,.12-.03.18-.1.14-.22.2-.24.24-.24.11,0,.42.33.42.5,0,.06-.04.1-.14.1h-.94c0,.33,0,.64,0,.88h.55c.11,0,.16-.04.22-.11.2-.22.24-.26.29-.26.18,0,.49.4.49.51,0,.06-.05.1-.16.1h-2.37ZM38.98,41.43h-.71c0,.23,0,.48,0,.73h.72v-.73ZM38.98,43.28c0-.21,0-.53,0-.88h-.72c0,.3,0,.61,0,.88h.71ZM38.98,41.18c0-.16,0-.29,0-.39,0-.14,0-.27-.01-.37h-.6v.02s-.08.12-.08.12c0,.15-.01.36-.01.62h.71Z"/>
      <path class="cls-1" d="M3.96,23.88c.29-.2.38,1.15.14,2.01-.24.86-2.25,4.75-2.4,5.66-.14.91-.38,2.4.14,2.54.53.14,3.16-.62,5.32-.62s4.7,1.73,4.94,3.26c.24,1.53-.1,1.82-1.15,2.59-.5.36-1.99,1.27-2.91,1.53-1.03.29-1.48-.08-1.89.15-.77.43,3.51-1.91,3.46-3.26-.05-1.34-.6-3.15-2.3-3.12-1.7.03-2.54.29-4.51.67-1.97.38-2.35,1.44-2.68-.05-.33-1.49.09-3.1.52-3.44.43-.34.59-1.68.73-2.6.14-.91,1.72-4.75,2.59-5.33"/>
      <path class="cls-1" d="M11.9,0s.81.65,1.34.72c.53.06,1.71.06,2.27.75.56.68.25,1.12-.03,1.49-.28.37-.9.37-1.24.62-.34.25-.56.44-.56.44,0,0,.37-.56.34-.96-.03-.4-.59-.5-1.15-.59-.47-.08-.9-.78-1-1.24-.09-.47.03-1.21.03-1.21"/>
      <path class="cls-1" d="M7.09,7.87s-.31,1.23.15,1.16c.46-.08,3.58-1.46,4.82-1.43,1.23.04,3.93,1.08,4.47,3.39.54,2.31-.23,6.74-2.62,9.4l-2.39,2.66s2.65-4.56,3.27-7.59c.7-3.42.03-6.77-1.74-6.81-1.77-.04-3.11.98-4.11,1.75-1,.77-.66,1.15-1.7,1.15s-2.12.19-1.97-1.19c.06-.51.68-1.19.93-1.73.44-.96,1.12-1.58,1.12-1.58l-.23.81Z"/>
      <path class="cls-1" d="M4.89,19.06c.56.42,1.45,1.4,2.06,1.4s.89.84.84,1.45c-.05.61-.14,1.45-.61,1.45s-1.78.28-1.87.37c-.09.09,1.12-.94,1.12-1.54s-1.31-.56-1.45-1.08c-.14-.51-.09-2.06-.09-2.06"/>
      <path class="cls-1" d="M16.89,26.61s.19,1.83-.23,2.57c-.42.75-1.78,3.13-1.68,4.12.09.98.65,2.39.89,2.39s.63-.99,1.12-1.92c.5-.93,1.22-1.5,1.92-1.54.7-.05,3.01,3.59,3.06,7.05.05,3.46-2.31,7.31-3.01,8.95-.7,1.64-.55,1.42-.55,1.42,0,0,1.91-1.98,3.22-5.21,1.31-3.23,1.87-5.1,1.59-7.63-.28-2.53-2.25-5.75-2.99-5.99-.75-.23-1.5.47-2.25,1.12-.75.66-.98,1.08-1.26,1.08s-.6-.69.19-1.45c1.22-1.17.7-2.55.51-3.84-.09-.63.07-1.09-.51-1.12"/>
      <path class="cls-1" d="M28.28,16.26v.57h-.03c0-.14-.05-.25-.15-.34-.1-.09-.22-.13-.35-.13h-.15v-.09h.68ZM28.86,16.26v4.17c0,.34.05.66.15.94.1.28.23.53.41.73.17.2.38.36.63.47.25.11.52.17.83.17s.6-.05.86-.16c.26-.1.48-.25.67-.44.19-.19.33-.42.43-.69.1-.27.15-.57.15-.9v-4.3h.45v4.29c0,.37-.06.71-.18,1.01s-.3.56-.52.78c-.22.22-.49.38-.8.5-.31.12-.66.18-1.05.18s-.75-.06-1.07-.17c-.32-.12-.6-.28-.83-.5-.23-.22-.41-.48-.54-.78-.13-.3-.19-.64-.19-1.01v-4.3h.62ZM29.52,16.26v.09h-.15c-.14,0-.26.04-.36.13-.1.09-.15.2-.15.34h-.02v-.57h.67ZM33.01,16.26v.57h-.03c0-.14-.05-.25-.15-.34-.1-.09-.21-.13-.35-.13h-.15v-.09h.68ZM34.08,16.26v.09h-.15c-.14,0-.26.04-.36.13-.1.09-.15.2-.15.34h-.02v-.57h.67Z"/>
      <path class="cls-1" d="M35.5,16.96h-.03c0-.16-.07-.3-.18-.42-.12-.12-.26-.18-.42-.18h-.12v-.09h.76v.69ZM35.5,22.2v.69h-.76v-.09h.12c.16,0,.31-.06.42-.17.12-.12.18-.26.18-.42h.03ZM36.09,22.89h-.61v-6.63h.61v6.63ZM37.3,16.26c.57,0,1.03.16,1.35.47.33.32.49.75.49,1.31,0,.23-.04.45-.12.67-.08.22-.2.41-.34.58-.15.17-.32.31-.51.41-.2.1-.41.15-.64.15.11.05.22.14.35.27.13.13.24.26.33.39.16.22.31.43.46.64.13.17.26.34.39.52.13.17.24.31.34.41.19.21.38.38.58.52.2.14.43.2.71.2v.09h-.52c-.22,0-.42-.03-.59-.08-.17-.05-.32-.12-.46-.2-.13-.08-.25-.17-.35-.27-.1-.1-.19-.19-.27-.28-.02-.02-.06-.07-.12-.17-.06-.09-.14-.2-.23-.33-.09-.13-.18-.26-.28-.4-.1-.14-.19-.28-.28-.4-.09-.13-.16-.23-.22-.32l-.11-.16c-.13-.16-.26-.3-.4-.43-.14-.13-.3-.2-.47-.2v-.1h.3s.2,0,.2,0c.12,0,.25-.01.4-.04.14-.02.28-.07.42-.14.14-.07.26-.17.38-.29.12-.13.21-.3.28-.51.02-.07.03-.15.05-.26.01-.1.02-.2,0-.31-.01-.43-.12-.77-.33-1.03-.2-.26-.49-.39-.85-.41-.13,0-.27-.01-.41-.01h-.79l-.02-.05-.03-.1-.05-.14h1.34ZM36.06,22.2h.03c0,.16.06.3.18.42.12.12.26.17.43.17h.11v.09h-.75v-.69Z"/>
      <path class="cls-1" d="M41.76,22.2c-.03.09-.04.18-.03.25l.07.19.15.12.17.04h.09v.09h-1.9v-.09h.09c.15,0,.3-.05.45-.14.15-.09.28-.24.38-.46h.54ZM43.8,16.13l.09.66-2.38,6.07h-.57l2.42-5.76c.06-.15.12-.28.17-.41.04-.11.09-.22.12-.33.04-.11.06-.19.06-.24h.09ZM45.13,20.59h-2.97v-.28h2.97v.28ZM43.8,16.13l2.8,6.71h-.8l-2.19-5.81.19-.9ZM46.34,22.2c.09.21.22.37.38.46.16.09.31.14.45.14h.08v.09h-2.13v-.09h.08c.12,0,.23-.05.32-.16.09-.1.1-.25.04-.44h.78Z"/>
      <path class="cls-1" d="M48.47,16.96h-.03c0-.16-.07-.3-.18-.42s-.26-.18-.42-.18h-.12v-.09h.76v.69ZM48.47,22.2v.69h-.76v-.09h.12c.16,0,.3-.06.42-.17.12-.12.18-.26.18-.42h.03ZM49.06,22.89h-.61v-6.63h.61v6.63ZM50.27,16.26c.57,0,1.03.16,1.35.47.33.32.49.75.49,1.31,0,.23-.04.45-.12.67-.08.22-.2.41-.34.58-.15.17-.32.31-.51.41-.2.1-.41.15-.64.15.11.05.22.14.35.27.13.13.24.26.33.39.16.22.31.43.46.64.13.17.26.34.39.52.13.17.24.31.34.41.19.21.38.38.58.52.19.14.43.2.71.2v.09h-.52c-.22,0-.42-.03-.59-.08-.17-.05-.32-.12-.45-.2-.13-.08-.25-.17-.35-.27-.1-.1-.19-.19-.27-.28-.02-.02-.06-.07-.12-.17-.06-.09-.14-.2-.23-.33-.09-.13-.18-.26-.28-.4-.1-.14-.19-.28-.28-.4-.09-.13-.16-.23-.22-.32l-.11-.16c-.13-.16-.26-.3-.4-.43-.14-.13-.3-.2-.47-.2v-.1h.3s.2,0,.2,0c.12,0,.25-.01.4-.04.14-.02.29-.07.42-.14.14-.07.26-.17.38-.29.12-.13.21-.3.28-.51.02-.07.03-.15.05-.26.01-.1.02-.2,0-.31-.01-.43-.12-.77-.33-1.03-.21-.26-.49-.39-.85-.41-.13,0-.27-.01-.41-.01h-.79v-.05s-.05-.1-.05-.1l-.05-.14h1.34ZM49.03,22.2h.03c0,.16.06.3.18.42.12.12.26.17.43.17h.11v.09h-.75v-.69Z"/>
      <path class="cls-1" d="M54.31,16.96h-.03c0-.16-.07-.3-.18-.42s-.26-.18-.42-.18h-.12v-.09h.76v.69ZM54.31,22.2v.69h-.76v-.09h.12c.16,0,.3-.06.42-.17.12-.12.18-.26.18-.42h.03ZM54.9,22.89h-.61v-6.63h.61v6.63ZM54.87,16.96v-.69h.76v.09h-.12c-.17,0-.31.06-.42.18-.12.12-.18.26-.18.42h-.03ZM54.87,22.2h.03c0,.16.07.3.18.42.12.12.26.17.42.17h.12v.09h-.76v-.69Z"/>
      <path class="cls-1" d="M28.65,25.16l.09.03.14.03.16.02h.15s-.54.05-.54.05v-.13ZM31.21,25.37h-2.56v-.13h2.56v.13ZM28.96,25.36h0s-.19.09-.19.09l-.08.19v.08h-.04s0-.35,0-.35h.3ZM29.8,28.02v.32h-.35v-.04h.06l.2-.08.09-.2h.01ZM30.08,28.34h-.29v-3.09h.29v3.09ZM30.06,28.02h.01l.09.2.2.08h.06v.04h-.35v-.32ZM31.21,25.29l-.54-.05h.15s.16-.03.16-.03l.14-.03.09-.03v.13ZM31.21,25.36v.36h-.04v-.08l-.08-.19-.18-.08h0s.31-.01.31-.01Z"/>
      <path class="cls-1" d="M30.46,28.38h-1.05v-.13h.1l.17-.07.08-.17v-2.6h-.79l-.16.07-.06.16v.11h-.13s0-.65,0-.65l.06.02.08.03.12.02h.02s.15.02.15.02h.15s1.48,0,1.48,0h.15s.15-.03.15-.03h.02s.12-.03.12-.03l.09-.03.06-.02v.66h-.13v-.13l-.06-.16-.15-.07h-.79v2.6l.07.17.17.07h.1v.13ZM30.12,28.3h.09l-.07-.05v-.02s-.01.07-.01.07ZM29.84,28.3h.18v-.32h.01v-2.57h-.21v2.57h.01v.32ZM29.66,28.3h.09v-.07l-.02.02-.07.05M31.11,25.41h0s.05.08.05.08v-.08h-.06ZM28.69,25.41v.07l.05-.06h0s-.06-.01-.06-.01ZM30.12,25.33h.75s.21-.01.21-.01l-.4-.04h-.55v.05ZM29.83,25.33h.21v-.03h-.21v.03ZM29,25.33h.75v-.05h-.55l-.41.04h.21Z"/>
      <path class="cls-1" d="M31.94,28.02l-.02.12.03.09.07.05.08.02h.04v.04h-.89v-.04h.04l.21-.06c.07-.04.13-.11.18-.21h.25ZM32.89,25.18l.04.31-1.11,2.84h-.26l1.13-2.69.08-.19.06-.15.03-.11h.04ZM33.51,27.26h-1.38v-.13h1.38v.13ZM32.89,25.18l1.31,3.14h-.38l-1.02-2.71.09-.42ZM34.07,28.02c.04.1.1.17.18.21l.21.06h.04v.04h-1v-.04h.04l.15-.07.02-.21h.36Z"/>
      <path class="cls-1" d="M34.54,28.38h-1.08v-.13h.08l.12-.06.02-.15-.28-.74h-1.14l-.29.74v.08s.02.07.02.07l.05.04.07.02h.08v.13h-.97v-.13h.08l.19-.06.15-.17,1.01-2.41.08-.19.06-.15.02-.1v-.04h.05l.02-.1.04.1h0v.03s1.19,2.84,1.19,2.84l.16.19.19.06h.08v.13ZM34.24,28.3h.05l-.06-.03h0s.01.03.01.03ZM33.67,28.3h.1l-.03-.08-.02.03-.05.05M31.87,28.3h.1l-.05-.05-.02-.03-.03.08ZM31.47,28.3h.05l.02-.03h0s-.06.03-.06.03M31.61,28.28h.17l.09-.23h-.17s-.09.23-.09.23ZM33.85,28.27h.28l-.09-.21h-.28l.08.21ZM33.74,27.98h.27l-1.04-2.5v.02s-.08.22-.08.22l.52,1.38h.15v.22h-.07l.25.67ZM31.74,27.98h.17l.26-.67h-.09v-.14l-.34.81ZM33.45,27.22h.02v-.05h-.03l.02.05ZM32.29,27.22h1.07l-.02-.05h-1.03l-.02.05ZM32.17,27.22h.04l.02-.05h-.06v.05ZM32.35,27.09h.97l-.48-1.26-.49,1.26ZM32.12,27.09h.14l.54-1.38-.04-.11v-.06s-.03.11-.03.11l-.6,1.44ZM32.88,25.43l-.03.16.04-.1v-.06Z"/>
      <path class="cls-1" d="M35.42,25.56h-.01l-.09-.2-.2-.08h-.06v-.05h.35v.32ZM35.42,28.02v.32h-.35v-.04h.06l.2-.08.09-.2h.01ZM35.7,28.34h-.29v-3.1h.29v3.1ZM35.69,25.56v-.32h.35v.05h-.06l-.2.08-.09.2h-.01ZM35.69,28.02h.01l.09.2.2.08h.06v.04h-.35v-.32ZM37.36,25.27l-1.32,1.53h-.2l1.22-1.53h.3ZM36.08,26.64l1.26,1.48.19.13c.06.03.14.05.23.05v.04h-.32s-.17-.04-.17-.04l-.19-.08-.17-.14-1.07-1.29.24-.16ZM37.67,25.24v.04h-.02c-.1,0-.19.02-.27.06l-.21.16h-.28s.02-.15.02-.15l-.13-.07h-.04v-.04h.93Z"/>
      <path class="cls-1" d="M37.8,28.38h-.37s-.18-.04-.18-.04l-.2-.08-.18-.15-1.06-1.27h-.07l.03-.04h0s.03-.03.03-.03l1.04-1.31.02-.09-.09-.05h-.09v-.12h1.02v.12h-.06c-.09,0-.18.02-.26.05l-.16.1-1.05,1.21,1.18,1.39.17.12.22.05h.04v.13ZM35.93,26.84l1.01,1.22.16.13.18.07.16.03h.1s-.03,0-.03,0l-.2-.14-1.18-1.39-.07.09h-.13ZM35.98,26.76h.04l.06-.07h0s-.1.07-.1.07ZM36.09,26.58l.04.05.95-1.09h-.18s-.86,1.08-.86,1.08l.05-.03ZM36.97,25.45h.18s.03-.03.03-.03l.1-.11h-.2l-.11.14ZM36.91,25.28l.03.04h0s.05-.04.05-.04h-.09ZM36.08,28.38h-1.05v-.13h.1l.17-.07.07-.17v-2.45l-.07-.17-.17-.07h-.1v-.13h1.05v.13h-.1l-.17.07-.08.17v2.45l.07.17.17.07h.1v.13ZM35.74,28.3h.09l-.07-.06-.02-.02v.07ZM35.47,28.3h.18v-.32h.01v-2.37h-.01v-.32h-.18v.32h-.01v2.37h.01v.32ZM35.28,28.3h.09v-.07l-.02.02-.07.06M35.74,25.28v.07l.02-.02.07-.05h-.09ZM35.28,25.28l.07.05.02.02v-.07h-.09Z"/>
      <path class="cls-1" d="M38.69,25.56h-.01l-.08-.2-.2-.08h-.05v-.05s.35,0,.35,0v.32ZM38.69,28.02v.32h-.35v-.04h.06l.2-.08.09-.2h.01ZM38.96,28.34h-.29v-3.1h.29v3.1ZM40.16,25.37h-1.21v-.13h1.21v.13ZM39.97,26.88h-1.02v-.13h1.02v.13ZM40.16,28.34h-1.21v-.13h1.21v.13ZM40.43,27.62l-.26.72h-.73l.16-.13c.12,0,.22-.02.3-.04l.22-.12.15-.19.12-.24h.04ZM40.16,25.29l-.54-.05h.15s.16-.03.16-.03l.14-.03.09-.03v.13ZM39.97,26.46v.29h-.26s.15-.08.15-.08l.06-.15v-.06h.04ZM39.97,26.87v.29h-.04v-.07l-.06-.15-.15-.07h0s.26,0,.26,0ZM40.16,25.36v.35h-.05v-.08l-.07-.18-.19-.08h0s.31,0,.31,0Z"/>
      <path class="cls-1" d="M40.2,28.38h-1.91v-.13h.1l.17-.07.07-.17v-2.45l-.07-.17-.17-.07h-.09v-.13s1.32,0,1.32,0h.15s.15-.03.15-.03l.14-.03.09-.03.06-.02v.65h-.13v-.12l-.06-.15-.12-.07h-.88v1.29h.71l.12-.05.05-.12v-.1h.13v.78h-.13v-.11l-.05-.12-.12-.05h-.71v1.25h.59c.11,0,.21-.01.29-.04l.2-.11.14-.17.11-.23v-.03h.14l-.29.8ZM39.55,28.3h.56v-.05h-.51l-.06.05ZM39,28.3h.42l.06-.05h-.48v.05ZM38.73,28.3h.18v-.13h.01v-1.25h-.01v-.22h.01v-1.29h-.01v-.13h-.18v.32h-.01v2.37h.01v.32ZM38.54,28.3h.09v-.07l-.02.02-.07.05M40.01,28.17h.18l.08-.24-.13.15-.14.09M39.89,26.92l.03.04v-.04h-.03ZM39,26.84h.71s.22,0,.22,0v-.03h-.26s-.66,0-.66,0v.05ZM39.89,26.7h.03v-.04l-.03.04M40.06,25.41h0s.05.07.05.07v-.07h-.05ZM38.55,25.28l.07.05h.01s0-.05,0-.05h-.08ZM39,25.33h.81s.04-.01.04-.01h.17l-.41-.04h-.61v.05Z"/>
      <path class="cls-1" d="M42.52,25.18c.24,0,.45.04.65.11.19.08.36.19.5.33.14.14.25.31.33.51.08.2.12.42.12.66s-.04.46-.12.66-.19.37-.33.51c-.14.14-.31.25-.5.33-.2.08-.41.11-.65.11s-.45-.04-.65-.11c-.2-.08-.36-.19-.5-.33-.14-.14-.25-.31-.33-.51s-.12-.42-.12-.66.04-.46.12-.66c.08-.2.19-.37.33-.51.14-.14.3-.25.5-.33.19-.08.41-.11.65-.11M42.52,28.27c.19,0,.36-.03.51-.11.15-.07.29-.17.39-.3.11-.13.2-.28.26-.47.06-.18.09-.38.09-.6s-.03-.42-.09-.6c-.06-.18-.15-.34-.26-.47-.11-.13-.24-.23-.39-.3-.15-.07-.32-.11-.51-.11s-.36.03-.51.11c-.15.07-.29.17-.39.3-.11.13-.19.29-.25.47-.06.18-.09.38-.09.6s.03.42.09.6c.06.18.15.34.25.47.11.13.24.23.39.3.15.07.32.11.51.11"/>
      <path class="cls-1" d="M42.52,28.44c-.24,0-.46-.04-.66-.12-.2-.08-.37-.19-.52-.34-.14-.14-.25-.32-.33-.52-.08-.2-.12-.43-.12-.67s.04-.47.12-.67.19-.38.33-.52c.15-.14.32-.26.52-.34.2-.08.42-.12.66-.12s.46.04.66.12c.2.08.37.19.52.34.14.15.26.32.34.52.08.2.12.43.12.67s-.04.47-.12.67c-.08.2-.19.38-.34.52-.14.14-.32.26-.52.34-.2.08-.42.12-.66.12M42.52,25.22c-.23,0-.44.04-.63.11-.19.07-.35.18-.49.32-.13.14-.24.3-.32.49-.08.19-.11.41-.11.64s.04.45.11.64c.08.19.18.36.32.5.13.14.3.24.49.32.19.07.4.11.63.11s.44-.04.63-.11c.19-.07.35-.18.49-.32.14-.14.24-.3.32-.5.08-.19.11-.41.11-.64s-.04-.45-.11-.64c-.08-.19-.18-.36-.32-.49-.14-.14-.3-.24-.49-.32-.19-.08-.4-.11-.63-.11M42.52,28.31c-.19,0-.37-.04-.52-.11-.16-.07-.3-.18-.41-.31-.11-.13-.2-.3-.26-.48-.06-.18-.09-.39-.09-.62s.03-.43.09-.62c.06-.18.15-.34.26-.48.11-.13.25-.24.41-.31.16-.07.33-.11.52-.11s.37.04.53.11c.16.07.3.18.41.31.11.14.2.29.26.48.06.19.09.39.09.62s-.03.43-.09.62c-.06.19-.15.35-.26.48-.11.13-.25.24-.41.31-.16.07-.34.11-.53.11M42.52,25.35c-.18,0-.34.03-.49.1-.15.07-.28.16-.38.29-.11.13-.19.28-.25.45-.06.18-.09.37-.09.59s.03.42.09.59c.06.18.14.33.25.45.1.13.23.22.38.29.15.07.31.1.49.1s.35-.04.5-.1c.15-.07.27-.17.38-.29.1-.12.19-.28.25-.45.06-.18.09-.38.09-.59s-.03-.41-.09-.59c-.06-.18-.14-.33-.25-.45-.1-.12-.23-.22-.38-.29-.15-.07-.31-.1-.5-.1"/>
      <path class="cls-1" d="M30.53,32.46l-.03.09c-.16.08-.4.11-.59.11-.61,0-1.14-.29-1.14-.97,0-.4.21-.67.43-.81.24-.14.46-.16.66-.16.17,0,.39.03.44.04l.19.03.04.03s-.02.1-.02.4l-.03.05-.02-.03-.08-.2c-.07-.08-.27-.19-.55-.19-.14,0-.32.01-.49.15-.14.12-.23.3-.23.61,0,.53.34.93.86.93l.21-.03.05-.09v-.23c0-.12,0-.22,0-.29l-.11-.14h-.1s-.04-.03-.04-.03l.05-.03c.13,0,.28,0,.36,0h.29s.05.02.05.02l-.03.02h-.07s-.09.15-.09.15c0,.07,0,.17,0,.3v.27Z"/>
      <path class="cls-1" d="M31.32,32.1h-.02s-.12.3-.12.3l-.03.13.09.06h.03l.03.02-.03.02h-.24s-.14,0-.25,0l-.04-.02.02-.02h.06c.1-.02.14-.08.18-.19l.57-1.32.06-.08.06.07c.05.12.41.98.55,1.29.08.19.14.22.18.23h.08s.03.03.03.03l-.09.02c-.08,0-.23,0-.42,0l-.07-.02.03-.02.02-.05-.17-.42h-.02s-.51-.01-.51-.01ZM31.78,31.98h.01s-.21-.55-.21-.55v-.02s-.02.02-.02.02l-.21.53v.02h.43Z"/>
      <path class="cls-1" d="M32.83,31.65c0-.32,0-.38,0-.45l-.09-.11h-.09s-.04-.03-.04-.03l.05-.02c.11,0,.25,0,.3,0h.34c.14,0,.3,0,.41.08.06.04.15.15.15.29,0,.16-.09.29-.3.46.19.24.35.43.48.56.12.12.2.13.23.14h.05s.03.03.03.03l-.04.02h-.21c-.12,0-.18-.01-.24-.04-.09-.05-.18-.15-.3-.31-.09-.11-.18-.26-.21-.29h-.04s-.19-.02-.19-.02l-.02.02v.03c0,.19,0,.36.01.45l.08.11h.11s.03.03.03.03l-.05.02c-.13,0-.3,0-.34,0h-.27s-.04-.02-.04-.02l.04-.02h.08s.07-.12.07-.12c0-.09,0-.25,0-.45v-.37ZM33.11,31.81l.02.04.17.02.15-.04c.07-.05.14-.14.14-.31,0-.3-.2-.37-.33-.37h-.13s-.02.04-.02.04v.62Z"/>
      <path class="cls-1" d="M34.58,31.64c0-.32,0-.38,0-.44l-.09-.11h-.09s-.04-.03-.04-.03l.05-.02c.11,0,.25,0,.31,0,.07,0,.22,0,.35,0,.27,0,.64,0,.88.24.11.11.2.28.2.53,0,.26-.11.47-.24.59-.1.1-.33.25-.73.25h-.26s-.22-.02-.22-.02h-.12s-.15,0-.15,0l-.04-.02.03-.02h.08s.06-.12.06-.12c.01-.09.01-.26.01-.45v-.37ZM34.87,31.88c0,.22,0,.38,0,.43l.02.15s.11.08.28.08c.2,0,.34-.03.47-.14.14-.12.18-.3.18-.52,0-.27-.11-.44-.2-.52-.2-.18-.44-.2-.61-.2h-.13s-.03.06-.03.06c0,.07,0,.24,0,.41v.26Z"/>
      <path class="cls-1" d="M36.68,31.65c0-.32,0-.38,0-.45l-.09-.11h-.09s-.04-.03-.04-.03l.05-.02c.11,0,.25,0,.31,0h.68s.03-.02.03-.02v.02s0,.04,0,.14v.14s-.04.03-.04.03l-.02-.03-.02-.08s-.03-.07-.14-.08h-.34s-.01,0-.01,0v.54s.4,0,.4,0l.1-.03.03-.03.02.02s0,.05-.02.15v.14s-.03.05-.03.05l-.02-.02v-.08s-.13-.08-.13-.08h-.34s-.01.01-.01.01v.48c0,.14.07.18.29.18l.2-.03.09-.16.03-.03.02.05-.03.23-.12.05c-.16,0-.29,0-.4,0-.11,0-.19,0-.25,0h-.12s-.15,0-.15,0l-.04-.02.03-.02h.08s.06-.12.06-.12c.01-.09.01-.25.01-.45v-.37Z"/>
      <path class="cls-1" d="M38.29,32.34c0,.16.03.21.07.23l.11.02.04.02-.05.02c-.14,0-.24,0-.28,0-.02,0-.12,0-.23,0l-.05-.02.03-.02h.1c.06-.02.06-.08.07-.26l.02-1.24.04-.07.09.07s.35.36.67.67c.15.15.44.44.47.47h.01l-.02-.93c0-.13-.02-.17-.07-.18h-.11s-.03-.03-.03-.03l.05-.02c.11,0,.23,0,.28,0,.02,0,.11,0,.21,0l.05.02-.04.02h-.07c-.06.02-.08.06-.08.18l-.02,1.33-.03.07-.09-.04c-.14-.13-.41-.39-.64-.6-.24-.23-.47-.48-.51-.52h0l.03.86Z"/>
      <path class="cls-1" d="M41.45,30.9h-.37c-.14.02-.2.03-.24.08l-.04.09-.03.03-.02-.04.05-.28.03-.05.11.03h.25s.98.01.98.01h.17s.07-.03.07-.03l.02.05v.29s-.03.04-.03.04l-.03-.05v-.03c0-.06-.07-.13-.29-.14h-.31s0,1.01,0,1.01c0,.23,0,.42.01.53l.1.13h.13s.04.03.04.03l-.05.03c-.16,0-.32,0-.39,0-.06,0-.21,0-.31,0l-.05-.03.04-.02h.09s.07-.15.07-.15c.01-.1.01-.3.01-.53v-1.01Z"/>
      <path class="cls-1" d="M42.87,31.65c0-.32,0-.38,0-.45l-.09-.11h-.09s-.04-.03-.04-.03l.05-.02c.11,0,.25,0,.31,0h.68s.03-.02.03-.02l.02.02s-.01.04-.02.14v.14s-.04.03-.04.03l-.02-.03-.02-.08s-.03-.07-.14-.08h-.34s-.01,0-.01,0v.54s.39,0,.39,0l.1-.03.04-.03.02.02s0,.05-.02.15v.14s-.03.05-.03.05l-.02-.02v-.08s-.13-.08-.13-.08h-.34s-.01.01-.01.01v.48c0,.14.07.18.29.18l.2-.03.09-.16.02-.03.02.05-.03.23-.12.05c-.16,0-.29,0-.4,0-.11,0-.19,0-.25,0h-.12s-.15,0-.15,0l-.04-.02.03-.02h.08s.06-.12.06-.12c0-.09,0-.25,0-.45v-.37Z"/>
      <path class="cls-1" d="M44.35,31.65c0-.32,0-.38,0-.45l-.09-.11h-.09s-.04-.03-.04-.03l.05-.02c.11,0,.25,0,.3,0h.34c.14,0,.3,0,.41.08.06.04.15.15.15.29,0,.16-.09.29-.3.46.19.24.35.43.48.56.12.12.2.13.23.14h.05s.03.03.03.03l-.04.02h-.21c-.12,0-.18-.01-.24-.04-.09-.05-.18-.15-.3-.31-.09-.11-.18-.26-.21-.29h-.04s-.19-.02-.19-.02l-.02.02v.03c0,.19,0,.36.01.45l.08.11h.11s.03.03.03.03l-.04.02c-.13,0-.31,0-.34,0h-.27s-.04-.02-.04-.02l.03-.02h.08s.07-.12.07-.12c0-.09,0-.25,0-.45v-.37ZM44.62,31.81l.02.04.17.02.15-.04c.07-.05.14-.14.14-.31,0-.3-.2-.37-.33-.37h-.13s-.02.04-.02.04v.62Z"/>
      <path class="cls-1" d="M46.09,31.65c0-.32,0-.38,0-.45l-.09-.11h-.09s-.04-.03-.04-.03l.05-.02c.11,0,.25,0,.3,0h.34c.14,0,.3,0,.41.08.06.04.15.15.15.29,0,.16-.09.29-.3.46.19.24.35.43.48.56.12.12.2.13.23.14h.05s.03.03.03.03l-.04.02h-.21c-.12,0-.18-.01-.24-.04-.09-.05-.17-.15-.3-.31-.09-.11-.18-.26-.21-.29h-.04s-.19-.02-.19-.02l-.02.02v.03c0,.19,0,.36.01.45l.08.11h.11s.03.03.03.03l-.05.02c-.13,0-.3,0-.34,0h-.27s-.04-.02-.04-.02l.03-.02h.08s.07-.12.07-.12c0-.09,0-.25,0-.45v-.37ZM46.37,31.81l.02.04.17.02.15-.04c.07-.05.14-.14.14-.31,0-.3-.2-.37-.33-.37h-.13s-.02.04-.02.04v.62Z"/>
      <path class="cls-1" d="M47.93,32.1h-.02s-.12.3-.12.3l-.03.13.09.06h.03l.03.02-.03.02h-.24s-.14,0-.25,0l-.04-.02.03-.02h.06c.1-.02.14-.08.18-.19l.57-1.32.06-.08.06.07c.05.12.41.98.55,1.29.08.19.15.22.18.23h.08s.03.03.03.03l-.09.02c-.08,0-.23,0-.42,0l-.07-.02.03-.02.02-.05-.17-.42h-.02s-.51-.01-.51-.01ZM48.39,31.98h.01s-.21-.55-.21-.55v-.02s-.02.02-.02.02l-.21.53v.02h.43Z"/>
      <path class="cls-1" d="M49.48,32.43c-.21-.18-.27-.42-.27-.62,0-.14.05-.39.25-.57.16-.14.37-.22.69-.22.14,0,.22,0,.32.02l.22.04.03.03v.12s-.02.23-.02.23l-.03.05-.02-.04-.09-.2c-.07-.07-.22-.12-.42-.12-.19,0-.31.03-.41.12-.16.14-.2.34-.2.55,0,.5.39.73.68.73.19,0,.3-.01.39-.11l.07-.14.03-.04.03.04-.05.28-.06.06c-.09.03-.25.05-.39.05-.3,0-.55-.06-.75-.23"/>
      <path class="cls-1" d="M51.24,31.65c0-.32,0-.38,0-.45l-.09-.11h-.09s-.04-.03-.04-.03l.05-.02c.11,0,.25,0,.32,0h.68s.04-.02.04-.02l.02.02s-.01.04-.02.14v.14s-.04.03-.04.03l-.02-.03-.02-.08s-.03-.07-.14-.08h-.34s-.02,0-.02,0v.52l.02.02h.38s.1-.04.1-.04l.04-.03.02.02s0,.05-.02.15v.14s-.03.05-.03.05l-.02-.02v-.08s-.13-.08-.13-.08h-.34s-.01.01-.01.01v.48c0,.14.07.18.3.18l.2-.03.09-.16.03-.03.02.05-.03.23-.12.05c-.16,0-.29,0-.4,0-.11,0-.19,0-.25,0h-.12s-.15,0-.15,0l-.04-.02.03-.02h.08s.06-.12.06-.12c.01-.09.01-.25.01-.45v-.37Z"/>
      <path class="cls-1" d="M28.9,35.79l-.05-.08c0-.14,0-.28.01-.32l.03-.06.02.04.02.13c.05.18.2.25.35.25.22,0,.33-.15.33-.28,0-.12-.04-.23-.24-.4l-.11-.09c-.27-.21-.37-.39-.37-.59,0-.27.23-.47.57-.47.16,0,.26.02.33.04l.03.03s0,.1,0,.3l-.03.07-.02-.05-.06-.16s-.11-.12-.27-.12c-.18,0-.29.11-.29.26,0,.11.06.2.26.35l.07.05c.3.22.4.4.4.63,0,.14-.05.31-.23.43-.12.08-.26.1-.39.1-.14,0-.25-.02-.36-.06"/>
      <path class="cls-1" d="M30.47,34.84c0-.32,0-.38,0-.44l-.09-.11h-.09s-.04-.03-.04-.03l.05-.02c.11,0,.25,0,.31,0,.09,0,.26,0,.36,0,.27,0,.37.09.4.12.05.04.11.14.11.25,0,.3-.24.51-.55.51h-.06s-.03-.03-.03-.03l.07-.03c.12,0,.29-.13.29-.34,0-.07,0-.21-.13-.31l-.22-.08h-.09s-.02.05-.02.05v.83c0,.19,0,.36.01.45l.08.11h.11s.04.03.04.03l-.04.02c-.14,0-.3,0-.36,0h-.27s-.04-.02-.04-.02l.03-.02h.08s.06-.12.06-.12c.01-.09.01-.25.01-.45v-.37Z"/>
      <path class="cls-1" d="M32.09,35.29l-.02.02-.12.28-.03.13.09.06h.03l.03.02-.03.02h-.24s-.14,0-.25,0l-.04-.02.02-.02h.06c.1-.02.14-.08.18-.19l.57-1.32.06-.08.06.07c.05.12.41.98.55,1.29.08.19.15.22.18.22h.08s.03.03.03.03l-.09.02c-.08,0-.23,0-.42,0l-.07-.02.03-.02.02-.05-.17-.42-.02-.02h-.51ZM32.55,35.17h.01s-.21-.55-.21-.55v-.02s-.02.02-.02.02l-.21.53v.02h.43Z"/>
      <path class="cls-1" d="M34.44,34.67c0-.38,0-.44,0-.52l-.1-.14h-.1s-.04-.03-.04-.03l.05-.02c.13,0,.29,0,.34,0h.35c.16,0,.32,0,.45.1.07.05.17.17.17.34,0,.18-.08.35-.33.55.22.28.39.5.53.65.14.14.24.16.28.17h.07s.03.03.03.03l-.05.03h-.23c-.14,0-.2-.01-.27-.05-.11-.06-.2-.17-.34-.36-.1-.14-.21-.3-.24-.34l-.04-.02h-.22s-.02.02-.02.02v.03c0,.23,0,.42.01.53l.1.14h.12s.03.03.03.03l-.05.03c-.14,0-.33,0-.36,0-.05,0-.2,0-.3,0l-.05-.03.04-.02h.09s.07-.15.07-.15c.01-.1.01-.3.01-.53v-.44ZM34.73,34.86l.02.04.19.03c.1,0,.13-.01.17-.04.08-.05.15-.17.15-.37,0-.35-.23-.45-.38-.45h-.13s-.02.04-.02.04v.75Z"/>
      <path class="cls-1" d="M36.31,34.84c0-.32,0-.38,0-.44l-.09-.11h-.09s-.04-.03-.04-.03l.05-.02c.11,0,.25,0,.31,0h.68s.03-.02.03-.02l.02.02s-.01.04-.02.14v.14s-.04.03-.04.03l-.02-.03v-.08s-.05-.07-.16-.08h-.34s-.02,0-.02,0v.52l.02.02h.38s.1-.04.1-.04l.03-.03.02.02s0,.05-.02.15v.14s-.03.05-.03.05l-.02-.02v-.08s-.13-.08-.13-.08h-.34s-.01.01-.01.01v.48c0,.14.07.18.29.18l.2-.03.09-.16.02-.03.02.05-.03.23-.12.05c-.16,0-.29,0-.4,0-.11,0-.19,0-.25,0h-.12s-.15,0-.15,0l-.04-.02.03-.02h.08s.06-.12.06-.12c.01-.09.01-.25.01-.45v-.37Z"/>
      <path class="cls-1" d="M37.66,35.79l-.04-.07c0-.11.01-.24.01-.28l.03-.05.02.03.02.11c.05.15.21.21.35.21.19,0,.3-.12.3-.27,0-.09-.02-.18-.22-.3l-.13-.07c-.26-.15-.34-.29-.34-.48,0-.26.25-.42.55-.42.14,0,.25.02.31.04l.03.03s0,.09,0,.25l-.03.07-.02-.04-.06-.14s-.1-.1-.24-.1c-.16,0-.3.08-.3.23,0,.09.03.17.23.28l.09.05c.29.16.38.32.38.51,0,.15-.06.28-.22.39-.1.07-.25.09-.36.09-.13,0-.26-.01-.35-.05"/>
      <path class="cls-1" d="M38.93,35.02c0-.36.25-.82.91-.82.55,0,.89.3.89.79s-.35.86-.91.86c-.63,0-.89-.45-.89-.82M40.4,35.06c0-.46-.28-.75-.63-.75-.24,0-.53.13-.53.65,0,.43.25.77.66.77.15,0,.5-.07.5-.67"/>
      <path class="cls-1" d="M41.26,34.84c0-.32,0-.38,0-.45l-.09-.11h-.09s-.04-.03-.04-.03l.05-.02c.11,0,.25,0,.3,0h.34c.14,0,.3,0,.41.08.06.04.15.15.15.29,0,.16-.09.29-.3.46.19.24.35.43.48.56.12.12.2.13.23.14h.05s.03.03.03.03l-.04.02h-.21c-.12,0-.18-.01-.24-.04-.09-.05-.17-.15-.3-.31-.09-.11-.18-.25-.21-.29l-.04-.02h-.19s-.02.01-.02.01v.03c0,.2,0,.36.01.45l.08.11h.11s.03.03.03.03l-.05.02c-.13,0-.3,0-.34,0h-.27s-.04-.02-.04-.02l.04-.02h.08s.07-.12.07-.12c0-.09,0-.25,0-.45v-.37ZM41.53,35l.02.04.17.02.15-.03c.07-.05.14-.14.14-.31,0-.3-.2-.37-.33-.37h-.13s-.02.04-.02.04v.62Z"/>
      <path class="cls-1" d="M43.29,34.36h-.32c-.13.01-.18.02-.21.07l-.04.07-.03.03-.02-.04.05-.25.02-.04.09.03h.22s.88.01.88.01h.15s.06-.02.06-.02l.02.04v.26s-.02.03-.02.03l-.03-.04v-.02c0-.06-.06-.12-.26-.12h-.27s0,.85,0,.85c0,.19,0,.36.01.45l.08.11h.11s.04.03.04.03l-.04.02c-.14,0-.29,0-.35,0h-.28s-.04-.02-.04-.02l.03-.02h.08s.06-.12.06-.12c.01-.09.01-.25.01-.45v-.85Z"/>
      <path class="cls-1" d="M44.5,35.79l-.04-.07c0-.11.01-.24.01-.28l.03-.05.02.03.02.11c.05.15.21.21.35.21.19,0,.3-.12.3-.27,0-.09-.02-.18-.22-.3l-.13-.07c-.26-.15-.34-.29-.34-.48,0-.26.25-.42.55-.42.14,0,.25.02.31.04l.03.03s0,.09,0,.25l-.03.07-.02-.04-.06-.14s-.1-.1-.24-.1c-.16,0-.3.08-.3.23,0,.09.03.17.23.28l.09.05c.29.16.38.32.38.51,0,.15-.06.28-.22.39-.1.07-.25.09-.36.09-.13,0-.26-.01-.35-.05"/>
    </g>
  </g>
</svg>