<?xml version="1.0" encoding="UTF-8"?>
<svg id="_レイヤー_2" data-name="レイヤー 2" xmlns="http://www.w3.org/2000/svg" viewBox="0 0 7.66 7.66">
  <defs>
    <style>
      .cls-1 {
        fill: #fff;
      }
    </style>
  </defs>
  <g id="_レイヤー_1-2" data-name="レイヤー 1">
    <g>
      <path class="cls-1" d="M7.41,3.83h.25c0,2.11-1.71,3.83-3.83,3.83-2.11,0-3.83-1.71-3.83-3.83C0,1.71,1.71,0,3.83,0c2.11,0,3.83,1.71,3.83,3.83h-.5c0-1.84-1.49-3.32-3.33-3.33-1.84,0-3.32,1.49-3.33,3.33,0,1.84,1.49,3.32,3.33,3.33,1.84,0,3.32-1.49,3.33-3.33h.25Z"/>
      <path class="cls-1" d="M5.29,3.83h.25c0,1.02-.17,1.94-.45,2.62-.14.34-.31.63-.52.85-.2.21-.46.36-.75.36-.29,0-.55-.14-.75-.36-.61-.64-.96-1.95-.96-3.47,0-1.02.17-1.94.45-2.62.14-.34.31-.63.52-.85C3.28.14,3.54,0,3.83,0c.29,0,.55.14.75.36.61.64.96,1.95.97,3.47h-.5c0-.96-.16-1.83-.41-2.44-.12-.3-.27-.54-.41-.69-.15-.15-.27-.21-.39-.21-.12,0-.24.06-.39.21-.45.44-.83,1.68-.82,3.12,0,.96.16,1.83.41,2.44.12.3.27.54.41.69.15.15.27.2.39.21.12,0,.24-.06.39-.21.45-.44.83-1.68.82-3.12h.25Z"/>
      <polyline class="cls-1" points=".25 3.7 7.37 3.7 7.37 4.2 .25 4.2"/>
      <polyline class="cls-1" points=".67 1.71 7.01 1.71 7.01 2.21 .67 2.21"/>
      <polyline class="cls-1" points=".67 5.61 6.6 5.61 6.6 6.11 .67 6.11"/>
    </g>
  </g>
</svg>