<?xml version="1.0" encoding="UTF-8"?>
<svg id="_レイヤー_2" data-name="レイヤー 2" xmlns="http://www.w3.org/2000/svg" xmlns:xlink="http://www.w3.org/1999/xlink" viewBox="0 0 1700.79 363.36">
  <defs>
    <style>
      .cls-1 {
        fill: none;
      }

      .cls-2 {
        clip-path: url(#clippath-1);
      }

      .cls-3 {
        fill: #f1eee7;
      }

      .cls-4 {
        fill: #eeebe1;
      }

      .cls-5 {
        fill: #f7f6f1;
      }

      .cls-6 {
        clip-path: url(#clippath);
      }
    </style>
    <clipPath id="clippath">
      <rect class="cls-1" width="1700.79" height="363.36"/>
    </clipPath>
    <clipPath id="clippath-1">
      <polygon class="cls-1" points="1594.12 913.03 769.42 913.03 -.75 202.73 -.75 136.22 1594.12 136.22 1594.12 913.03"/>
    </clipPath>
  </defs>
  <g id="BACKGROUND">
    <g class="cls-6">
      <g>
        <rect class="cls-3" x="427.56" y="101.63" width="815.39" height="105.08"/>
        <rect class="cls-5" x="-.75" y="136.22" width="1701.54" height="1548.98"/>
        <g class="cls-2">
          <g>
            <rect class="cls-4" x="1580.82" y="116.93" width="25.94" height="901.85"/>
            <rect class="cls-4" x="1536.92" y="116.93" width="25.94" height="901.85"/>
            <rect class="cls-4" x="1493.03" y="116.93" width="25.94" height="901.85"/>
            <rect class="cls-4" x="1449.13" y="116.93" width="25.94" height="901.85"/>
            <rect class="cls-4" x="1405.24" y="116.93" width="25.94" height="901.85"/>
            <rect class="cls-4" x="1361.34" y="116.93" width="25.94" height="901.85"/>
            <rect class="cls-4" x="1317.44" y="116.93" width="25.94" height="901.85"/>
            <rect class="cls-4" x="1273.55" y="116.93" width="25.94" height="901.85"/>
            <rect class="cls-4" x="1229.65" y="116.93" width="25.94" height="901.85"/>
            <rect class="cls-4" x="1185.76" y="116.93" width="25.94" height="901.85"/>
            <rect class="cls-4" x="1141.86" y="116.93" width="25.94" height="901.85"/>
            <rect class="cls-4" x="1097.97" y="116.93" width="25.94" height="901.85"/>
            <rect class="cls-4" x="1054.07" y="116.93" width="25.94" height="901.85"/>
            <rect class="cls-4" x="1010.18" y="116.93" width="25.94" height="901.85"/>
            <rect class="cls-4" x="966.28" y="116.93" width="25.94" height="901.85"/>
            <rect class="cls-4" x="922.39" y="116.93" width="25.94" height="901.85"/>
            <rect class="cls-4" x="878.49" y="116.93" width="25.94" height="901.85"/>
            <rect class="cls-4" x="834.6" y="116.93" width="25.94" height="901.85"/>
            <rect class="cls-4" x="790.7" y="116.93" width="25.94" height="901.85"/>
            <rect class="cls-4" x="746.8" y="116.93" width="25.94" height="901.85"/>
            <rect class="cls-4" x="702.91" y="116.93" width="25.94" height="901.85"/>
            <rect class="cls-4" x="659.01" y="116.93" width="25.94" height="901.85"/>
            <rect class="cls-4" x="615.12" y="116.93" width="25.94" height="901.85"/>
            <rect class="cls-4" x="571.22" y="116.93" width="25.94" height="901.85"/>
            <rect class="cls-4" x="527.33" y="116.93" width="25.94" height="901.85"/>
            <rect class="cls-4" x="483.43" y="116.93" width="25.94" height="901.85"/>
            <rect class="cls-4" x="439.54" y="116.93" width="25.94" height="901.85"/>
            <rect class="cls-4" x="395.64" y="116.93" width="25.94" height="901.85"/>
            <rect class="cls-4" x="351.75" y="116.93" width="25.94" height="901.85"/>
            <rect class="cls-4" x="307.85" y="116.93" width="25.94" height="901.85"/>
            <rect class="cls-4" x="263.95" y="116.93" width="25.94" height="901.85"/>
            <rect class="cls-4" x="220.06" y="116.93" width="25.94" height="901.85"/>
            <rect class="cls-4" x="176.16" y="116.93" width="25.94" height="901.85"/>
            <rect class="cls-4" x="132.27" y="116.93" width="25.94" height="901.85"/>
            <rect class="cls-4" x="88.37" y="116.93" width="25.94" height="901.85"/>
            <rect class="cls-4" x="44.48" y="116.93" width="25.94" height="901.85"/>
            <rect class="cls-4" x=".58" y="116.93" width="25.94" height="901.85"/>
          </g>
        </g>
        <rect class="cls-3" x="1592.79" y="100.3" width="108" height="1503.09"/>
      </g>
    </g>
  </g>
</svg>