<?xml version="1.0" encoding="UTF-8"?>
<svg id="_レイヤー_2" data-name="レイヤー 2" xmlns="http://www.w3.org/2000/svg" viewBox="0 0 544.46 89.88">
  <defs>
    <style>
      .cls-1 {
        fill: #f7f6f1;
      }
    </style>
  </defs>
  <g id="BACKGROUND">
    <g>
      <rect class="cls-1" x="1.19" width="73.01" height="27.18"/>
      <rect class="cls-1" x="79.53" width="73.01" height="39.44"/>
      <rect class="cls-1" x="157.87" width="73.01" height="39.44"/>
      <rect class="cls-1" x="236.21" width="73.01" height="39.44"/>
      <rect class="cls-1" x="314.55" width="73.01" height="39.44"/>
      <rect class="cls-1" x="392.89" width="73.01" height="39.44"/>
      <rect class="cls-1" x="471.23" width="73.01" height="39.44"/>
      <rect class="cls-1" y="57.14" width="42.73" height="27.69"/>
      <rect class="cls-1" x="93.37" y="57.14" width="42.73" height="22.95"/>
      <rect class="cls-1" x="223.13" y="57.14" width="42.73" height="22.95"/>
      <rect class="cls-1" x="50.64" y="57.14" width="32.2" height="20.87"/>
      <rect class="cls-1" x="399.58" y="57.14" width="32.2" height="20.87"/>
      <rect class="cls-1" x="439.15" y="57.14" width="32.2" height="30.36"/>
      <rect class="cls-1" x="480.29" y="69.01" width="32.2" height="20.87"/>
      <rect class="cls-1" x="512.26" y="48.49" width="32.2" height="15.33"/>
      <rect class="cls-1" x="144.8" y="65.05" width="32.2" height="20.87"/>
      <rect class="cls-1" x="184.36" y="65.05" width="32.2" height="20.87"/>
      <rect class="cls-1" x="272.71" y="65.05" width="32.2" height="20.87"/>
      <rect class="cls-1" x="311.76" y="57.14" width="42.73" height="22.95"/>
      <rect class="cls-1" x="361.33" y="65.05" width="32.2" height="20.87"/>
    </g>
  </g>
</svg>